{"glyphs":{"0":{"ha":789,"x_min":75,"x_max":713,"o":"m 395 64 q 203 190 263 64 q 170 368 170 264 q 293 643 170 578 q 396 667 339 667 q 598 517 547 667 q 620 365 620 450 q 519 107 620 189 q 395 64 464 64 m 397 745 q 129 597 214 745 q 75 365 75 502 q 202 49 75 149 q 393 -14 282 -14 q 646 119 556 -14 q 713 366 713 221 q 564 703 713 612 q 397 745 492 745 z "},"1":{"ha":526,"x_min":39,"x_max":457,"o":"m 69 562 l 252 639 l 252 71 l 99 71 l 99 0 l 457 0 l 457 71 l 343 71 l 343 732 l 264 732 l 39 637 l 69 562 z "},"2":{"ha":587,"x_min":38,"x_max":517,"o":"m 517 1 l 517 80 l 184 80 l 308 220 q 351 269 321 236 q 480 441 453 381 q 500 525 500 486 q 395 711 500 651 q 266 745 336 745 q 50 640 132 745 q 38 623 43 631 l 109 582 q 259 666 170 659 q 385 601 345 666 q 407 519 407 566 q 320 350 407 449 q 250 274 298 326 l 41 50 l 41 1 l 517 1 z "},"3":{"ha":582,"x_min":12,"x_max":534,"o":"m 247 -195 q 468 -102 384 -195 q 534 83 534 -26 q 442 270 534 203 q 351 311 403 298 q 486 445 450 345 q 499 524 499 483 q 395 709 499 647 q 262 745 334 745 q 50 636 125 745 q 39 618 45 627 l 111 579 q 258 667 170 662 q 380 604 336 667 q 406 513 406 563 q 328 368 406 415 q 218 339 282 339 l 167 339 l 167 264 l 247 264 q 418 170 369 264 q 439 80 439 129 q 347 -90 439 -37 q 245 -115 301 -115 q 66 -45 149 -114 l 12 -109 q 247 -195 118 -195 z "},"4":{"ha":674,"x_min":33,"x_max":651,"o":"m 521 -183 l 521 49 l 651 49 l 651 126 l 521 126 l 521 732 l 438 732 l 33 114 l 46 47 l 430 49 l 430 -183 l 521 -183 m 430 126 l 129 126 l 430 586 l 430 126 z "},"5":{"ha":594,"x_min":39,"x_max":541,"o":"m 243 -195 q 494 -62 412 -195 q 541 113 541 16 q 446 335 541 252 q 252 403 369 403 q 183 396 210 403 l 183 655 l 484 655 l 484 732 l 91 732 l 91 309 q 214 330 155 330 q 419 218 361 330 q 445 111 445 170 q 363 -75 445 -11 q 240 -115 311 -115 q 85 -65 163 -114 l 39 -134 q 243 -195 137 -195 z "},"6":{"ha":704,"x_min":68,"x_max":633,"o":"m 633 293 q 519 541 633 458 q 373 590 453 590 q 186 499 262 590 q 160 463 171 481 q 274 808 165 716 q 393 850 326 850 q 545 777 487 849 l 606 826 q 410 928 534 921 q 396 928 403 928 q 117 709 201 928 q 68 408 68 582 q 194 42 68 146 q 351 -12 260 -12 q 582 113 500 -12 q 633 293 633 195 m 171 290 q 274 494 171 439 q 359 514 313 514 q 506 429 456 514 q 540 286 540 370 q 448 94 540 152 q 354 65 404 65 q 212 145 267 65 q 171 290 171 206 z "},"7":{"ha":547,"x_min":15,"x_max":525,"o":"m 525 667 l 525 732 l 15 732 l 15 644 l 420 644 q 122 -178 224 191 l 218 -187 q 525 667 335 239 z "},"8":{"ha":651,"x_min":43,"x_max":608,"o":"m 608 243 q 515 448 608 374 q 433 487 477 476 q 564 621 532 521 q 576 700 576 659 q 468 895 576 836 q 332 928 410 928 q 122 833 193 928 q 77 693 77 774 q 170 513 77 578 q 212 488 190 498 q 68 353 113 450 q 43 241 43 300 q 149 35 43 107 q 320 -12 222 -12 q 549 84 467 -12 q 608 243 608 152 m 134 250 q 225 423 134 372 q 324 449 270 449 q 486 361 435 449 q 514 247 514 312 q 431 94 514 144 q 326 65 384 65 q 163 148 217 65 q 134 250 134 193 m 168 690 q 258 838 168 802 q 330 852 290 852 q 476 764 439 852 q 488 693 488 732 q 403 537 488 578 q 328 521 369 521 q 189 601 231 521 q 168 690 168 640 z "},"9":{"ha":703,"x_min":66,"x_max":632,"o":"m 66 438 q 172 198 66 282 q 326 144 241 144 q 513 237 437 144 q 537 274 526 255 q 397 -95 532 -20 q 307 -118 357 -118 q 161 -54 221 -118 q 152 -42 156 -47 l 94 -90 q 278 -194 161 -182 q 305 -195 293 -195 q 578 11 492 -195 q 632 328 632 144 q 480 712 632 623 q 349 745 422 745 q 115 617 194 745 q 66 438 66 538 m 346 667 q 491 587 438 667 q 528 446 528 529 q 429 244 528 300 q 340 221 388 221 q 194 308 243 221 q 161 446 161 365 q 263 648 161 595 q 346 667 302 667 z "},"A":{"ha":712,"x_min":8,"x_max":704,"o":"m 103 0 l 174 228 l 536 228 l 605 0 l 704 0 l 418 916 l 297 916 l 8 0 l 103 0 m 304 654 q 355 840 336 773 q 406 656 382 738 l 514 300 l 195 300 l 304 654 z "},"Æ":{"ha":1107,"x_min":8,"x_max":1038,"o":"m 109 0 l 237 231 l 583 232 l 583 0 l 1038 0 l 1038 77 l 674 77 l 674 438 l 986 438 l 986 515 l 674 515 l 674 838 l 1025 838 l 1025 916 l 526 916 l 8 0 l 109 0 m 465 637 q 583 854 506 712 l 583 304 l 278 304 l 465 637 z "},"Á":{"ha":712,"x_min":8,"x_max":704,"o":"m 103 0 l 174 228 l 536 228 l 605 0 l 704 0 l 418 916 l 297 916 l 8 0 l 103 0 m 304 654 q 355 840 336 773 q 406 656 382 738 l 514 300 l 195 300 l 304 654 m 532 1118 l 479 1190 l 274 1035 l 313 978 l 532 1118 z "},"Ă":{"ha":712,"x_min":8,"x_max":704,"o":"m 103 0 l 174 228 l 536 228 l 605 0 l 704 0 l 418 916 l 297 916 l 8 0 l 103 0 m 304 654 q 355 840 336 773 q 406 656 382 738 l 514 300 l 195 300 l 304 654 m 195 1157 q 282 1013 195 1055 q 358 997 317 997 q 496 1065 449 997 q 525 1157 524 1104 l 463 1160 q 392 1072 453 1090 q 361 1066 376 1066 q 271 1119 300 1066 q 259 1164 262 1139 l 195 1157 z "},"Â":{"ha":712,"x_min":8,"x_max":704,"o":"m 103 0 l 174 228 l 536 228 l 605 0 l 704 0 l 418 916 l 297 916 l 8 0 l 103 0 m 304 654 q 355 840 336 773 q 406 656 382 738 l 514 300 l 195 300 l 304 654 m 368 1177 l 183 1025 l 224 975 l 363 1081 l 505 974 l 548 1028 l 368 1177 z "},"Ä":{"ha":712,"x_min":8,"x_max":704,"o":"m 103 0 l 174 228 l 536 228 l 605 0 l 704 0 l 418 916 l 297 916 l 8 0 l 103 0 m 304 654 q 355 840 336 773 q 406 656 382 738 l 514 300 l 195 300 l 304 654 m 296 1077 q 255 1137 296 1126 q 239 1139 247 1139 q 184 1097 195 1139 q 182 1077 182 1086 q 221 1015 182 1027 q 239 1012 231 1012 q 293 1054 281 1012 q 296 1077 296 1066 m 537 1077 q 496 1137 537 1126 q 480 1139 488 1139 q 426 1097 437 1139 q 423 1077 423 1086 q 463 1015 423 1027 q 479 1012 471 1012 q 534 1057 524 1012 q 537 1077 537 1067 z "},"À":{"ha":712,"x_min":8,"x_max":704,"o":"m 103 0 l 174 228 l 536 228 l 605 0 l 704 0 l 418 916 l 297 916 l 8 0 l 103 0 m 304 654 q 355 840 336 773 q 406 656 382 738 l 514 300 l 195 300 l 304 654 m 221 1118 l 274 1190 l 479 1035 l 439 978 l 221 1118 z "},"Ā":{"ha":712,"x_min":8,"x_max":704,"o":"m 103 0 l 174 228 l 536 228 l 605 0 l 704 0 l 418 916 l 297 916 l 8 0 l 103 0 m 304 654 q 355 840 336 773 q 406 656 382 738 l 514 300 l 195 300 l 304 654 m 189 1112 l 189 1040 l 533 1040 l 533 1112 l 189 1112 z "},"Ą":{"ha":712,"x_min":8,"x_max":724,"o":"m 304 654 q 355 840 336 773 q 406 656 382 738 l 514 300 l 195 300 l 304 654 m 724 -260 l 720 -199 q 674 -205 699 -205 q 589 -153 605 -205 q 586 -132 586 -142 q 704 0 589 -57 l 418 916 l 297 916 l 8 0 l 103 0 l 174 228 l 536 228 l 605 0 l 609 0 q 507 -149 509 -68 q 597 -263 507 -239 q 652 -270 624 -270 q 724 -260 692 -270 z "},"Å":{"ha":712,"x_min":8,"x_max":704,"o":"m 103 0 l 174 228 l 536 228 l 605 0 l 704 0 l 419 911 q 496 1039 495 949 q 419 1166 496 1134 q 363 1177 392 1177 q 247 1116 286 1177 q 227 1038 227 1081 q 297 914 228 948 l 8 0 l 103 0 m 304 654 q 355 840 336 773 q 406 656 382 738 l 514 300 l 195 300 l 304 654 m 288 1038 q 338 1118 288 1101 q 361 1122 350 1122 q 427 1077 408 1122 q 435 1038 435 1059 q 385 959 435 975 q 362 955 373 955 q 296 998 316 955 q 288 1038 288 1017 z "},"Ã":{"ha":712,"x_min":8,"x_max":704,"o":"m 103 0 l 174 228 l 536 228 l 605 0 l 704 0 l 418 916 l 297 916 l 8 0 l 103 0 m 304 654 q 355 840 336 773 q 406 656 382 738 l 514 300 l 195 300 l 304 654 m 444 1086 q 361 1115 418 1086 q 285 1137 317 1135 q 160 1074 222 1135 l 201 1031 q 285 1065 241 1065 q 368 1036 311 1065 q 449 1015 414 1015 q 563 1080 510 1016 l 522 1123 q 444 1086 487 1086 z "},"B":{"ha":696,"x_min":106,"x_max":637,"o":"m 637 264 q 551 441 637 376 q 449 484 506 473 q 586 597 541 509 q 610 697 610 644 q 483 891 610 837 q 326 920 418 920 q 106 916 208 920 l 106 0 q 266 -5 184 -5 q 637 264 636 -4 m 317 841 q 517 682 514 837 q 420 532 517 575 q 309 511 373 511 l 197 511 l 197 838 q 317 841 278 841 m 300 73 q 197 79 248 73 l 197 438 l 324 438 q 538 307 510 438 q 543 262 543 285 q 300 73 540 75 z "},"C":{"ha":700,"x_min":50,"x_max":689,"o":"m 412 72 q 184 239 250 72 q 149 456 149 328 q 277 807 149 716 q 404 846 332 846 q 602 697 543 844 l 689 723 q 458 924 627 898 q 406 928 431 928 q 133 781 231 928 q 50 456 50 655 q 190 65 50 190 q 400 -12 278 -12 q 670 80 528 -11 l 633 146 q 412 72 511 72 z "},"Ć":{"ha":700,"x_min":50,"x_max":689,"o":"m 412 72 q 184 239 250 72 q 149 456 149 328 q 277 807 149 716 q 404 846 332 846 q 602 697 543 844 l 689 723 q 458 924 627 898 q 406 928 431 928 q 133 781 231 928 q 50 456 50 655 q 190 65 50 190 q 400 -12 278 -12 q 670 80 528 -11 l 633 146 q 412 72 511 72 m 578 1118 l 525 1190 l 320 1035 l 359 978 l 578 1118 z "},"Č":{"ha":700,"x_min":50,"x_max":689,"o":"m 412 72 q 184 239 250 72 q 149 456 149 328 q 277 807 149 716 q 404 846 332 846 q 602 697 543 844 l 689 723 q 458 924 627 898 q 406 928 431 928 q 133 781 231 928 q 50 456 50 655 q 190 65 50 190 q 400 -12 278 -12 q 670 80 528 -11 l 633 146 q 412 72 511 72 m 403 974 l 587 1127 l 548 1176 l 408 1069 l 264 1179 l 222 1126 l 403 974 z "},"Ç":{"ha":700,"x_min":50,"x_max":689,"o":"m 369 -267 q 518 -193 477 -267 q 533 -136 533 -165 q 453 -14 533 -56 q 445 -9 448 -11 q 670 80 552 4 l 633 146 q 412 72 511 72 q 184 239 250 72 q 149 456 149 328 q 277 807 149 716 q 404 846 332 846 q 602 697 543 844 l 689 723 q 458 924 627 898 q 406 928 431 928 q 133 781 231 928 q 50 456 50 655 q 190 66 50 190 q 374 -11 269 -3 q 464 -119 460 -56 q 401 -193 464 -175 q 358 -198 381 -198 q 315 -194 336 -198 l 312 -260 q 369 -267 338 -267 z "},"D":{"ha":768,"x_min":106,"x_max":718,"o":"m 106 916 l 106 0 q 330 -4 231 -4 q 663 191 566 -5 q 718 456 718 302 q 545 865 718 755 q 332 920 457 920 q 195 917 290 920 q 106 916 137 916 m 330 76 q 197 77 245 76 l 197 838 q 332 840 247 840 q 597 631 536 840 q 620 456 620 553 q 473 111 620 197 q 330 76 414 76 z "},"Ď":{"ha":768,"x_min":106,"x_max":718,"o":"m 106 916 l 106 0 q 330 -4 231 -4 q 663 191 566 -5 q 718 456 718 302 q 545 865 718 755 q 332 920 457 920 q 195 917 290 920 q 106 916 137 916 m 330 76 q 197 77 245 76 l 197 838 q 332 840 247 840 q 597 631 536 840 q 620 456 620 553 q 473 111 620 197 q 330 76 414 76 m 353 974 l 537 1127 l 498 1176 l 358 1069 l 214 1179 l 172 1126 l 353 974 z "},"Đ":{"ha":773,"x_min":8,"x_max":724,"o":"m 8 513 l 8 441 l 113 441 l 113 0 q 336 -4 237 -4 q 670 191 572 -5 q 724 456 724 302 q 552 865 724 755 q 339 920 464 920 q 202 917 297 920 q 113 916 144 916 l 113 513 l 8 513 m 336 76 q 203 77 252 76 l 203 441 l 403 441 l 403 513 l 203 513 l 203 838 q 339 840 254 840 q 604 631 543 840 q 627 456 627 553 q 480 111 627 197 q 336 76 420 76 z "},"E":{"ha":629,"x_min":106,"x_max":560,"o":"m 560 77 l 197 77 l 197 438 l 509 438 l 509 515 l 197 515 l 197 838 l 548 838 l 548 916 l 106 916 l 106 0 l 560 0 l 560 77 z "},"É":{"ha":629,"x_min":106,"x_max":560,"o":"m 560 77 l 197 77 l 197 438 l 509 438 l 509 515 l 197 515 l 197 838 l 548 838 l 548 916 l 106 916 l 106 0 l 560 0 l 560 77 m 499 1118 l 446 1190 l 241 1035 l 281 978 l 499 1118 z "},"Ě":{"ha":629,"x_min":106,"x_max":560,"o":"m 560 77 l 197 77 l 197 438 l 509 438 l 509 515 l 197 515 l 197 838 l 548 838 l 548 916 l 106 916 l 106 0 l 560 0 l 560 77 m 324 974 l 509 1127 l 469 1176 l 330 1069 l 186 1179 l 144 1126 l 324 974 z "},"Ê":{"ha":629,"x_min":106,"x_max":560,"o":"m 560 77 l 197 77 l 197 438 l 509 438 l 509 515 l 197 515 l 197 838 l 548 838 l 548 916 l 106 916 l 106 0 l 560 0 l 560 77 m 334 1177 l 149 1025 l 190 975 l 330 1081 l 471 974 l 514 1028 l 334 1177 z "},"Ë":{"ha":629,"x_min":106,"x_max":560,"o":"m 560 77 l 197 77 l 197 438 l 509 438 l 509 515 l 197 515 l 197 838 l 548 838 l 548 916 l 106 916 l 106 0 l 560 0 l 560 77 m 263 1077 q 222 1137 263 1126 q 206 1139 214 1139 q 152 1097 163 1139 q 149 1077 149 1086 q 189 1015 149 1027 q 206 1012 198 1012 q 260 1054 248 1012 q 263 1077 263 1066 m 505 1077 q 464 1137 505 1126 q 448 1139 456 1139 q 393 1097 404 1139 q 391 1077 391 1086 q 430 1015 391 1027 q 446 1012 438 1012 q 502 1057 491 1012 q 505 1077 505 1067 z "},"Ė":{"ha":629,"x_min":106,"x_max":560,"o":"m 560 77 l 197 77 l 197 438 l 509 438 l 509 515 l 197 515 l 197 838 l 548 838 l 548 916 l 106 916 l 106 0 l 560 0 l 560 77 m 358 1044 q 361 1109 387 1080 q 357 1114 358 1112 q 300 1115 330 1143 q 294 1109 297 1112 q 297 1040 269 1072 q 351 1038 324 1012 q 358 1044 355 1042 z "},"È":{"ha":629,"x_min":106,"x_max":560,"o":"m 560 77 l 197 77 l 197 438 l 509 438 l 509 515 l 197 515 l 197 838 l 548 838 l 548 916 l 106 916 l 106 0 l 560 0 l 560 77 m 187 1118 l 240 1190 l 445 1035 l 406 978 l 187 1118 z "},"Ē":{"ha":629,"x_min":106,"x_max":560,"o":"m 560 77 l 197 77 l 197 438 l 509 438 l 509 515 l 197 515 l 197 838 l 548 838 l 548 916 l 106 916 l 106 0 l 560 0 l 560 77 m 155 1112 l 155 1040 l 499 1040 l 499 1112 l 155 1112 z "},"Ę":{"ha":629,"x_min":106,"x_max":581,"o":"m 581 -260 l 576 -199 q 530 -205 555 -205 q 445 -153 461 -205 q 442 -132 442 -142 q 560 0 445 -57 l 560 77 l 197 77 l 197 438 l 509 438 l 509 515 l 197 515 l 197 838 l 548 838 l 548 916 l 106 916 l 106 0 l 465 0 q 363 -149 365 -68 q 453 -263 363 -239 q 509 -270 480 -270 q 581 -260 548 -270 z "},"Ð":{"ha":773,"x_min":8,"x_max":724,"o":"m 8 513 l 8 441 l 113 441 l 113 0 q 336 -4 237 -4 q 670 191 572 -5 q 724 456 724 302 q 552 865 724 755 q 339 920 464 920 q 202 917 297 920 q 113 916 144 916 l 113 513 l 8 513 m 336 76 q 203 77 252 76 l 203 441 l 403 441 l 403 513 l 203 513 l 203 838 q 339 840 254 840 q 604 631 543 840 q 627 456 627 553 q 480 111 627 197 q 336 76 420 76 z "},"€":{"ha":765,"x_min":26,"x_max":704,"o":"m 704 71 l 663 138 q 461 72 557 72 q 247 239 309 72 q 222 338 231 283 l 547 338 l 560 407 l 216 407 q 214 457 214 425 q 216 499 214 486 l 589 499 l 602 568 l 221 568 q 377 831 251 780 q 453 845 414 845 q 621 757 553 845 q 633 739 628 747 l 701 793 q 502 925 631 905 q 456 929 479 929 q 182 750 274 929 q 125 568 141 670 l 26 568 l 26 499 l 118 499 q 117 452 117 481 q 118 407 117 422 l 26 407 l 26 338 l 125 338 q 290 34 156 122 q 449 -11 361 -11 q 704 71 576 -9 z "},"F":{"ha":597,"x_min":106,"x_max":551,"o":"m 551 916 l 106 916 l 106 0 l 197 0 l 197 444 l 511 444 l 511 521 l 197 521 l 197 838 l 551 838 l 551 916 z "},"G":{"ha":769,"x_min":50,"x_max":699,"o":"m 699 65 l 699 441 l 401 441 l 401 363 l 608 363 l 608 114 q 426 68 505 68 q 190 228 260 68 q 149 456 149 321 q 267 795 149 694 q 411 846 328 846 q 613 696 547 844 l 699 723 q 486 921 636 886 q 414 929 450 929 q 138 784 239 929 q 50 456 50 656 q 209 50 50 170 q 416 -14 297 -14 q 699 65 548 -12 z "},"Ğ":{"ha":769,"x_min":50,"x_max":699,"o":"m 699 65 l 699 441 l 401 441 l 401 363 l 608 363 l 608 114 q 426 68 505 68 q 190 228 260 68 q 149 456 149 321 q 267 795 149 694 q 411 846 328 846 q 613 696 547 844 l 699 723 q 486 921 636 886 q 414 929 450 929 q 138 784 239 929 q 50 456 50 656 q 209 50 50 170 q 416 -14 297 -14 q 699 65 548 -12 m 247 1157 q 334 1013 247 1055 q 410 997 369 997 q 548 1065 500 997 q 576 1157 575 1104 l 514 1160 q 444 1072 505 1090 q 412 1066 427 1066 q 323 1119 351 1066 q 311 1164 313 1139 l 247 1157 z "},"H":{"ha":817,"x_min":106,"x_max":711,"o":"m 620 0 l 711 0 l 711 916 l 620 916 l 620 514 l 197 514 l 197 916 l 106 916 l 106 0 l 197 0 l 197 438 l 620 438 l 620 0 z "},"I":{"ha":312,"x_min":111,"x_max":202,"o":"m 111 916 l 111 0 l 202 0 l 202 916 l 111 916 z "},"Í":{"ha":312,"x_min":71,"x_max":328,"o":"m 111 916 l 111 0 l 202 0 l 202 916 l 111 916 m 328 1118 l 275 1190 l 71 1035 l 110 978 l 328 1118 z "},"Î":{"ha":300,"x_min":-14,"x_max":320,"o":"m 156 1177 l -14 1027 l 27 977 l 151 1080 l 278 974 l 320 1028 l 156 1177 m 111 916 l 111 0 l 202 0 l 202 916 l 111 916 z "},"Ï":{"ha":300,"x_min":-15,"x_max":315,"o":"m 99 1077 q 61 1138 99 1124 q 43 1141 52 1141 q -12 1097 -1 1141 q -15 1077 -15 1086 q 24 1015 -15 1027 q 42 1012 34 1012 q 96 1054 84 1012 q 99 1077 99 1066 m 315 1077 q 277 1138 315 1123 q 256 1141 266 1141 q 202 1100 214 1141 q 199 1077 199 1088 q 239 1015 199 1027 q 255 1012 247 1012 q 312 1054 298 1012 q 315 1077 315 1066 m 111 916 l 111 0 l 202 0 l 202 916 l 111 916 z "},"İ":{"ha":300,"x_min":91,"x_max":212,"o":"m 111 916 l 111 0 l 202 0 l 202 916 l 111 916 m 182 1012 q 184 1077 210 1047 q 180 1081 182 1080 q 123 1082 153 1111 q 118 1077 121 1080 q 121 1008 92 1039 q 175 1005 148 979 q 182 1012 179 1009 z "},"Ì":{"ha":312,"x_min":16,"x_max":274,"o":"m 111 916 l 111 0 l 202 0 l 202 916 l 111 916 m 16 1118 l 69 1190 l 274 1035 l 235 978 l 16 1118 z "},"Ī":{"ha":300,"x_min":1,"x_max":298,"o":"m 1 1112 l 1 1040 l 298 1040 l 298 1112 l 1 1112 m 111 916 l 111 0 l 202 0 l 202 916 l 111 916 z "},"Į":{"ha":312,"x_min":5,"x_max":222,"o":"m 222 -260 l 218 -199 q 172 -205 197 -205 q 87 -153 103 -205 q 84 -132 84 -142 q 202 0 87 -57 l 202 916 l 111 916 l 111 3 q 5 -149 7 -64 q 95 -263 5 -239 q 151 -270 122 -270 q 222 -260 190 -270 z "},"J":{"ha":395,"x_min":3,"x_max":294,"o":"m 130 -12 q 274 77 232 -12 q 294 178 294 121 l 294 916 l 203 916 l 203 191 q 121 65 194 73 q 28 95 79 66 l 3 22 q 130 -12 64 -12 z "},"K":{"ha":713,"x_min":106,"x_max":709,"o":"m 704 60 q 643 100 667 58 l 422 487 l 682 916 l 589 916 l 350 521 l 197 521 l 197 916 l 106 916 l 106 0 l 197 0 l 197 445 l 349 445 l 567 61 q 670 -12 609 -11 q 709 -8 690 -12 l 704 60 z "},"L":{"ha":545,"x_min":104,"x_max":532,"o":"m 532 0 l 532 77 l 195 77 l 195 916 l 104 916 l 104 0 l 532 0 z "},"Ĺ":{"ha":545,"x_min":88,"x_max":532,"o":"m 532 0 l 532 77 l 195 77 l 195 916 l 104 916 l 104 0 l 532 0 m 346 1118 l 293 1190 l 88 1035 l 127 978 l 346 1118 z "},"Ľ":{"ha":545,"x_min":104,"x_max":532,"o":"m 532 0 l 532 77 l 195 77 l 195 916 l 104 916 l 104 0 l 532 0 m 513 853 q 467 925 513 911 q 449 928 457 928 q 392 887 406 928 q 388 861 388 873 q 433 800 389 812 q 378 675 426 747 l 410 651 q 510 823 491 732 q 513 853 513 840 z "},"Ł":{"ha":562,"x_min":-28,"x_max":532,"o":"m 532 0 l 532 77 l 195 77 l 195 427 l 384 506 l 359 568 l 195 500 l 195 916 l 104 916 l 104 463 l -28 407 l -4 345 l 104 389 l 104 0 l 532 0 z "},"M":{"ha":956,"x_min":33,"x_max":922,"o":"m 117 0 l 187 559 q 199 659 191 591 q 214 773 210 736 q 273 562 271 566 l 431 31 l 514 35 l 684 559 q 709 644 692 586 q 746 768 734 728 q 768 560 765 585 l 830 0 l 922 0 l 812 916 l 713 916 l 522 309 q 499 227 514 283 q 479 151 486 175 q 460 227 472 175 q 441 307 448 282 l 258 916 l 157 916 l 33 0 l 117 0 z "},"N":{"ha":829,"x_min":106,"x_max":723,"o":"m 723 0 l 723 916 l 636 916 l 636 178 l 189 926 l 106 916 l 106 0 l 193 0 l 193 749 l 644 -11 l 723 0 z "},"Ń":{"ha":829,"x_min":106,"x_max":723,"o":"m 723 0 l 723 916 l 636 916 l 636 178 l 189 926 l 106 916 l 106 0 l 193 0 l 193 749 l 644 -11 l 723 0 m 581 1118 l 528 1190 l 323 1035 l 362 978 l 581 1118 z "},"Ň":{"ha":829,"x_min":106,"x_max":723,"o":"m 723 0 l 723 916 l 636 916 l 636 178 l 189 926 l 106 916 l 106 0 l 193 0 l 193 749 l 644 -11 l 723 0 m 406 974 l 590 1127 l 551 1176 l 411 1069 l 267 1179 l 225 1126 l 406 974 z "},"Ñ":{"ha":829,"x_min":106,"x_max":723,"o":"m 723 0 l 723 916 l 636 916 l 636 178 l 189 926 l 106 916 l 106 0 l 193 0 l 193 749 l 644 -11 l 723 0 m 492 1086 q 410 1115 467 1086 q 334 1137 366 1135 q 209 1074 271 1135 l 250 1031 q 334 1065 290 1065 q 416 1036 359 1065 q 498 1015 463 1015 q 612 1080 559 1016 l 571 1123 q 492 1086 536 1086 z "},"O":{"ha":807,"x_min":52,"x_max":755,"o":"m 755 456 q 617 853 755 731 q 407 928 532 928 q 125 761 222 928 q 52 456 52 635 q 197 56 52 175 q 403 -12 281 -12 q 686 157 590 -12 q 755 456 755 281 m 149 456 q 252 781 149 677 q 406 846 316 846 q 623 678 557 846 q 658 456 658 583 q 551 126 658 227 q 403 69 488 69 q 183 241 245 69 q 149 456 149 332 z "},"Œ":{"ha":1063,"x_min":52,"x_max":994,"o":"m 434 -9 q 522 -4 460 -9 q 597 0 574 0 l 994 0 l 994 77 l 631 77 l 631 438 l 943 438 l 943 515 l 631 515 l 631 838 l 982 838 l 982 916 l 566 916 q 434 924 442 924 q 102 720 197 924 q 52 456 52 610 q 434 -9 54 -8 m 437 72 q 149 456 151 75 q 319 819 149 746 q 434 841 370 841 q 540 831 486 841 l 540 81 q 437 72 488 72 z "},"Ó":{"ha":807,"x_min":52,"x_max":755,"o":"m 755 456 q 617 853 755 731 q 407 928 532 928 q 125 761 222 928 q 52 456 52 635 q 197 56 52 175 q 403 -12 281 -12 q 686 157 590 -12 q 755 456 755 281 m 149 456 q 252 781 149 677 q 406 846 316 846 q 623 678 557 846 q 658 456 658 583 q 551 126 658 227 q 403 69 488 69 q 183 241 245 69 q 149 456 149 332 m 579 1107 l 526 1179 l 321 1024 l 361 967 l 579 1107 z "},"Ô":{"ha":807,"x_min":52,"x_max":755,"o":"m 755 456 q 617 853 755 731 q 407 928 532 928 q 125 761 222 928 q 52 456 52 635 q 197 56 52 175 q 403 -12 281 -12 q 686 157 590 -12 q 755 456 755 281 m 149 456 q 252 781 149 677 q 406 846 316 846 q 623 678 557 846 q 658 456 658 583 q 551 126 658 227 q 403 69 488 69 q 183 241 245 69 q 149 456 149 332 m 414 1166 l 229 1015 l 270 964 l 410 1070 l 551 963 l 594 1017 l 414 1166 z "},"Ö":{"ha":807,"x_min":52,"x_max":755,"o":"m 755 456 q 617 853 755 731 q 407 928 532 928 q 125 761 222 928 q 52 456 52 635 q 197 56 52 175 q 403 -12 281 -12 q 686 157 590 -12 q 755 456 755 281 m 149 456 q 252 781 149 677 q 406 846 316 846 q 623 678 557 846 q 658 456 658 583 q 551 126 658 227 q 403 69 488 69 q 183 241 245 69 q 149 456 149 332 m 343 1066 q 302 1126 343 1115 q 286 1128 294 1128 q 232 1086 243 1128 q 229 1066 229 1076 q 269 1004 229 1016 q 286 1001 278 1001 q 340 1043 328 1001 q 343 1066 343 1055 m 585 1066 q 544 1126 585 1115 q 528 1128 536 1128 q 473 1086 484 1128 q 471 1066 471 1076 q 510 1004 471 1016 q 526 1001 518 1001 q 582 1046 571 1001 q 585 1066 585 1057 z "},"Ò":{"ha":807,"x_min":52,"x_max":755,"o":"m 755 456 q 617 853 755 731 q 407 928 532 928 q 125 761 222 928 q 52 456 52 635 q 197 56 52 175 q 403 -12 281 -12 q 686 157 590 -12 q 755 456 755 281 m 149 456 q 252 781 149 677 q 406 846 316 846 q 623 678 557 846 q 658 456 658 583 q 551 126 658 227 q 403 69 488 69 q 183 241 245 69 q 149 456 149 332 m 267 1107 l 320 1179 l 525 1024 l 486 967 l 267 1107 z "},"Ő":{"ha":807,"x_min":52,"x_max":755,"o":"m 755 456 q 617 853 755 731 q 407 928 532 928 q 125 761 222 928 q 52 456 52 635 q 197 56 52 175 q 403 -12 281 -12 q 686 157 590 -12 q 755 456 755 281 m 149 456 q 252 781 149 677 q 406 846 316 846 q 623 678 557 846 q 658 456 658 583 q 551 126 658 227 q 403 69 488 69 q 183 241 245 69 q 149 456 149 332 m 477 1120 l 420 1184 l 232 1017 l 274 967 l 477 1120 m 719 1120 l 662 1184 l 473 1017 l 515 967 l 719 1120 z "},"Ō":{"ha":807,"x_min":52,"x_max":755,"o":"m 755 456 q 617 853 755 731 q 407 928 532 928 q 125 761 222 928 q 52 456 52 635 q 197 56 52 175 q 403 -12 281 -12 q 686 157 590 -12 q 755 456 755 281 m 149 456 q 252 781 149 677 q 406 846 316 846 q 623 678 557 846 q 658 456 658 583 q 551 126 658 227 q 403 69 488 69 q 183 241 245 69 q 149 456 149 332 m 235 1101 l 235 1029 l 579 1029 l 579 1101 l 235 1101 z "},"Ø":{"ha":807,"x_min":52,"x_max":755,"o":"m 568 1016 l 529 906 q 407 928 475 928 q 125 761 222 928 q 52 456 52 635 q 201 52 52 171 q 218 39 210 45 l 175 -80 l 239 -100 l 278 9 q 403 -12 332 -12 q 686 157 590 -12 q 755 456 755 281 q 621 849 755 727 q 589 875 605 864 l 632 997 l 568 1016 m 149 456 q 252 781 149 677 q 406 846 316 846 q 500 826 458 846 l 251 130 q 149 456 149 233 m 403 69 q 307 90 349 69 l 556 785 q 658 456 658 681 q 551 126 658 227 q 403 69 488 69 z "},"Õ":{"ha":807,"x_min":52,"x_max":755,"o":"m 755 456 q 617 853 755 731 q 407 928 532 928 q 125 761 222 928 q 52 456 52 635 q 197 56 52 175 q 403 -12 281 -12 q 686 157 590 -12 q 755 456 755 281 m 149 456 q 252 781 149 677 q 406 846 316 846 q 623 678 557 846 q 658 456 658 583 q 551 126 658 227 q 403 69 488 69 q 183 241 245 69 q 149 456 149 332 m 491 1076 q 408 1104 465 1076 q 332 1126 365 1124 q 208 1063 270 1124 l 248 1020 q 332 1054 289 1054 q 415 1025 358 1054 q 496 1004 461 1004 q 610 1069 557 1005 l 570 1112 q 491 1076 534 1076 z "},"P":{"ha":656,"x_min":107,"x_max":631,"o":"m 199 0 l 199 381 l 332 381 q 589 507 511 381 q 631 665 631 576 q 435 909 631 864 q 321 920 384 920 q 107 916 209 920 l 107 0 l 199 0 m 316 841 q 529 709 500 841 q 534 650 534 682 q 382 467 534 496 q 308 460 347 460 l 199 460 l 199 838 q 316 841 273 841 z "},"Q":{"ha":803,"x_min":52,"x_max":755,"o":"m 755 456 q 618 850 755 728 q 406 928 532 928 q 123 760 221 928 q 52 456 52 635 q 197 56 52 175 q 403 -12 281 -12 l 418 -12 q 544 -163 425 -138 q 734 -142 627 -179 l 715 -68 q 526 -61 578 -117 q 503 3 505 -37 q 720 235 656 52 q 755 456 755 334 m 149 456 q 252 781 149 677 q 406 846 316 846 q 623 678 557 846 q 658 456 658 583 q 551 126 658 227 q 403 69 488 69 q 183 241 245 69 q 149 456 149 332 z "},"R":{"ha":692,"x_min":107,"x_max":667,"o":"m 199 0 l 199 395 l 321 395 q 358 396 346 395 l 522 61 q 625 -12 562 -11 q 667 -8 650 -12 l 662 60 l 654 60 q 601 98 618 62 l 445 411 q 625 593 590 454 q 635 669 635 629 q 321 920 632 918 q 107 916 209 920 l 107 0 l 199 0 m 316 841 q 524 749 484 841 q 538 658 538 711 q 368 475 538 496 q 317 472 343 472 l 199 472 l 199 838 q 316 841 273 841 z "},"Ŕ":{"ha":692,"x_min":107,"x_max":667,"o":"m 199 0 l 199 395 l 321 395 q 358 396 346 395 l 522 61 q 625 -12 562 -11 q 667 -8 650 -12 l 662 60 l 654 60 q 601 98 618 62 l 445 411 q 625 593 590 454 q 635 669 635 629 q 321 920 632 918 q 107 916 209 920 l 107 0 l 199 0 m 316 841 q 524 749 484 841 q 538 658 538 711 q 368 475 538 496 q 317 472 343 472 l 199 472 l 199 838 q 316 841 273 841 m 505 1118 l 452 1190 l 247 1035 l 286 978 l 505 1118 z "},"Ř":{"ha":692,"x_min":107,"x_max":667,"o":"m 199 0 l 199 395 l 321 395 q 358 396 346 395 l 522 61 q 625 -12 562 -11 q 667 -8 650 -12 l 662 60 l 654 60 q 601 98 618 62 l 445 411 q 625 593 590 454 q 635 669 635 629 q 321 920 632 918 q 107 916 209 920 l 107 0 l 199 0 m 316 841 q 524 749 484 841 q 538 658 538 711 q 368 475 538 496 q 317 472 343 472 l 199 472 l 199 838 q 316 841 273 841 m 330 974 l 514 1127 l 475 1176 l 335 1069 l 191 1179 l 149 1126 l 330 974 z "},"S":{"ha":627,"x_min":57,"x_max":568,"o":"m 567 240 q 445 454 567 377 q 311 524 425 468 q 183 628 209 574 q 170 690 170 656 q 252 830 170 788 q 335 850 292 850 q 487 770 434 850 q 496 753 492 761 l 568 791 q 399 922 524 897 q 340 928 370 928 q 140 848 217 928 q 76 686 76 781 q 193 480 76 555 q 327 412 213 468 q 458 304 430 361 q 473 233 473 271 q 385 84 473 125 q 305 68 349 68 q 98 137 201 69 l 57 69 q 301 -12 171 -12 q 518 84 444 -12 q 567 240 567 148 z "},"Ś":{"ha":627,"x_min":57,"x_max":568,"o":"m 567 240 q 445 454 567 377 q 311 524 425 468 q 183 628 209 574 q 170 690 170 656 q 252 830 170 788 q 335 850 292 850 q 487 770 434 850 q 496 753 492 761 l 568 791 q 399 922 524 897 q 340 928 370 928 q 140 848 217 928 q 76 686 76 781 q 193 480 76 555 q 327 412 213 468 q 458 304 430 361 q 473 233 473 271 q 385 84 473 125 q 305 68 349 68 q 98 137 201 69 l 57 69 q 301 -12 171 -12 q 518 84 444 -12 q 567 240 567 148 m 496 1118 l 444 1190 l 239 1035 l 278 978 l 496 1118 z "},"Š":{"ha":627,"x_min":57,"x_max":568,"o":"m 567 240 q 445 454 567 377 q 311 524 425 468 q 183 628 209 574 q 170 690 170 656 q 252 830 170 788 q 335 850 292 850 q 487 770 434 850 q 496 753 492 761 l 568 791 q 399 922 524 897 q 340 928 370 928 q 140 848 217 928 q 76 686 76 781 q 193 480 76 555 q 327 412 213 468 q 458 304 430 361 q 473 233 473 271 q 385 84 473 125 q 305 68 349 68 q 98 137 201 69 l 57 69 q 301 -12 171 -12 q 518 84 444 -12 q 567 240 567 148 m 321 974 l 506 1127 l 467 1176 l 327 1069 l 183 1179 l 141 1126 l 321 974 z "},"T":{"ha":559,"x_min":11,"x_max":547,"o":"m 11 917 l 11 838 l 232 838 l 232 0 l 323 0 l 323 838 l 547 838 l 547 917 l 11 917 z "},"Ť":{"ha":559,"x_min":11,"x_max":547,"o":"m 11 917 l 11 838 l 232 838 l 232 0 l 323 0 l 323 838 l 547 838 l 547 917 l 11 917 m 277 974 l 461 1127 l 422 1176 l 282 1069 l 138 1179 l 96 1126 l 277 974 z "},"Þ":{"ha":663,"x_min":107,"x_max":631,"o":"m 332 206 q 589 332 511 206 q 631 490 631 401 q 439 731 631 688 q 321 743 387 743 l 199 743 l 199 916 l 107 916 l 107 0 l 199 0 l 199 206 l 332 206 m 316 666 q 530 529 505 667 q 534 475 534 503 q 368 289 534 313 q 308 285 339 285 l 199 285 l 199 665 l 316 666 z "},"U":{"ha":808,"x_min":100,"x_max":708,"o":"m 708 327 l 708 916 l 617 916 l 617 330 q 400 68 614 69 q 191 339 193 71 l 191 916 l 100 916 l 100 340 q 327 -7 100 37 q 401 -14 362 -14 q 663 127 586 -14 q 708 327 708 210 z "},"Ú":{"ha":808,"x_min":100,"x_max":708,"o":"m 708 327 l 708 916 l 617 916 l 617 330 q 400 68 614 69 q 191 339 193 71 l 191 916 l 100 916 l 100 340 q 327 -7 100 37 q 401 -14 362 -14 q 663 127 586 -14 q 708 327 708 210 m 576 1118 l 524 1190 l 319 1035 l 358 978 l 576 1118 z "},"Û":{"ha":808,"x_min":100,"x_max":708,"o":"m 708 327 l 708 916 l 617 916 l 617 330 q 400 68 614 69 q 191 339 193 71 l 191 916 l 100 916 l 100 340 q 327 -7 100 37 q 401 -14 362 -14 q 663 127 586 -14 q 708 327 708 210 m 411 1177 l 227 1025 l 267 975 l 407 1081 l 548 974 l 591 1028 l 411 1177 z "},"Ü":{"ha":808,"x_min":100,"x_max":708,"o":"m 708 327 l 708 916 l 617 916 l 617 330 q 400 68 614 69 q 191 339 193 71 l 191 916 l 100 916 l 100 340 q 327 -7 100 37 q 401 -14 362 -14 q 663 127 586 -14 q 708 327 708 210 m 340 1077 q 300 1137 340 1126 q 283 1139 292 1139 q 229 1097 240 1139 q 227 1077 227 1086 q 266 1015 227 1027 q 283 1012 275 1012 q 338 1054 326 1012 q 340 1077 340 1066 m 582 1077 q 541 1137 582 1126 q 525 1139 533 1139 q 471 1097 481 1139 q 468 1077 468 1086 q 507 1015 468 1027 q 524 1012 515 1012 q 579 1057 568 1012 q 582 1077 582 1067 z "},"Ù":{"ha":808,"x_min":100,"x_max":708,"o":"m 708 327 l 708 916 l 617 916 l 617 330 q 400 68 614 69 q 191 339 193 71 l 191 916 l 100 916 l 100 340 q 327 -7 100 37 q 401 -14 362 -14 q 663 127 586 -14 q 708 327 708 210 m 264 1118 l 317 1190 l 522 1035 l 483 978 l 264 1118 z "},"Ű":{"ha":808,"x_min":100,"x_max":716,"o":"m 708 327 l 708 916 l 617 916 l 617 330 q 400 68 614 69 q 191 339 193 71 l 191 916 l 100 916 l 100 340 q 327 -7 100 37 q 401 -14 362 -14 q 663 127 586 -14 q 708 327 708 210 m 475 1131 l 418 1195 l 229 1028 l 271 978 l 475 1131 m 716 1131 l 659 1195 l 471 1028 l 513 978 l 716 1131 z "},"Ū":{"ha":808,"x_min":100,"x_max":708,"o":"m 708 327 l 708 916 l 617 916 l 617 330 q 400 68 614 69 q 191 339 193 71 l 191 916 l 100 916 l 100 340 q 327 -7 100 37 q 401 -14 362 -14 q 663 127 586 -14 q 708 327 708 210 m 233 1112 l 233 1040 l 578 1040 l 578 1112 l 233 1112 z "},"Ų":{"ha":808,"x_min":100,"x_max":708,"o":"m 708 327 l 708 916 l 617 916 l 617 330 q 400 68 614 69 q 191 339 193 71 l 191 916 l 100 916 l 100 340 q 339 -9 100 28 q 385 -14 362 -12 q 302 -149 304 -76 q 392 -263 302 -239 q 448 -270 419 -270 q 519 -260 487 -270 l 515 -199 q 469 -205 494 -205 q 384 -153 400 -205 q 381 -132 381 -142 q 488 -7 381 -61 q 495 -3 492 -4 q 696 216 656 41 q 708 327 708 267 z "},"Ů":{"ha":808,"x_min":100,"x_max":708,"o":"m 708 327 l 708 916 l 617 916 l 617 330 q 400 68 614 69 q 191 339 193 71 l 191 916 l 100 916 l 100 340 q 327 -7 100 37 q 401 -14 362 -14 q 663 127 586 -14 q 708 327 708 210 m 544 1084 q 467 1211 544 1179 q 411 1222 439 1222 q 294 1161 334 1222 q 274 1082 274 1126 q 351 955 274 987 q 407 944 378 944 q 522 1004 483 944 q 544 1084 544 1039 m 335 1082 q 385 1162 335 1146 q 408 1166 397 1166 q 475 1122 456 1166 q 483 1082 483 1104 q 433 1004 483 1020 q 410 1000 420 1000 q 343 1043 363 1000 q 335 1082 335 1062 z "},"V":{"ha":713,"x_min":12,"x_max":701,"o":"m 412 0 l 701 916 l 606 916 l 419 313 q 358 80 400 251 q 293 313 315 243 l 113 916 l 12 916 l 294 0 l 412 0 z "},"W":{"ha":1043,"x_min":22,"x_max":1021,"o":"m 320 0 l 483 571 q 524 746 496 624 q 562 571 545 633 l 712 0 l 799 0 l 1021 916 l 932 916 l 793 315 q 773 205 787 283 q 758 122 764 148 q 719 312 735 252 l 567 886 l 484 882 l 326 315 q 282 117 308 248 q 250 311 258 273 l 117 916 l 22 916 l 232 0 l 320 0 z "},"X":{"ha":723,"x_min":8,"x_max":719,"o":"m 715 64 q 666 87 685 61 q 655 102 661 94 l 415 467 l 689 916 l 597 916 l 366 543 l 129 916 l 26 916 l 309 477 l 8 0 l 109 0 l 357 404 l 578 61 q 681 -12 625 -11 q 719 -7 693 -12 l 715 64 z "},"Y":{"ha":646,"x_min":1,"x_max":646,"o":"m 365 0 l 365 345 l 646 916 l 549 916 l 399 601 q 323 425 372 543 q 247 602 277 538 l 100 916 l 1 916 l 274 346 l 274 0 l 365 0 z "},"Ý":{"ha":646,"x_min":1,"x_max":646,"o":"m 365 0 l 365 345 l 646 916 l 549 916 l 399 601 q 323 425 372 543 q 247 602 277 538 l 100 916 l 1 916 l 274 346 l 274 0 l 365 0 m 496 1118 l 444 1190 l 239 1035 l 278 978 l 496 1118 z "},"Ÿ":{"ha":646,"x_min":1,"x_max":646,"o":"m 365 0 l 365 345 l 646 916 l 549 916 l 399 601 q 323 425 372 543 q 247 602 277 538 l 100 916 l 1 916 l 274 346 l 274 0 l 365 0 m 260 1077 q 220 1137 260 1126 q 203 1139 212 1139 q 149 1097 160 1139 q 146 1077 146 1086 q 186 1015 146 1027 q 203 1012 195 1012 q 258 1054 245 1012 q 260 1077 260 1066 m 502 1077 q 461 1137 502 1126 q 445 1139 453 1139 q 391 1097 401 1139 q 388 1077 388 1086 q 427 1015 388 1027 q 444 1012 435 1012 q 499 1057 488 1012 q 502 1077 502 1067 z "},"Z":{"ha":640,"x_min":42,"x_max":598,"o":"m 146 83 l 598 840 l 598 917 l 53 917 l 53 836 l 496 836 l 42 77 l 42 0 l 594 0 l 594 83 l 146 83 z "},"Ź":{"ha":640,"x_min":42,"x_max":598,"o":"m 146 83 l 598 840 l 598 917 l 53 917 l 53 836 l 496 836 l 42 77 l 42 0 l 594 0 l 594 83 l 146 83 m 498 1118 l 445 1190 l 240 1035 l 279 978 l 498 1118 z "},"Ž":{"ha":640,"x_min":42,"x_max":598,"o":"m 146 83 l 598 840 l 598 917 l 53 917 l 53 836 l 496 836 l 42 77 l 42 0 l 594 0 l 594 83 l 146 83 m 323 974 l 507 1127 l 468 1176 l 328 1069 l 184 1179 l 142 1126 l 323 974 z "},"Ż":{"ha":640,"x_min":42,"x_max":598,"o":"m 146 83 l 598 840 l 598 917 l 53 917 l 53 836 l 496 836 l 42 77 l 42 0 l 594 0 l 594 83 l 146 83 m 357 1044 q 359 1109 385 1080 q 355 1114 357 1112 q 298 1115 328 1143 q 293 1109 296 1112 q 296 1040 267 1072 q 350 1038 323 1012 q 357 1044 354 1042 z "},"a":{"ha":587,"x_min":28,"x_max":571,"o":"m 525 -12 q 571 -8 549 -12 l 567 58 q 547 57 559 57 q 487 106 496 57 q 484 151 484 123 l 484 483 q 369 674 484 628 q 277 690 327 690 q 54 624 160 689 l 88 557 q 264 616 187 616 q 391 519 370 616 q 395 479 395 500 l 395 388 q 311 392 353 392 q 60 293 130 392 q 28 191 28 247 q 133 7 28 56 q 227 -12 175 -12 q 391 64 324 -12 q 407 87 400 76 q 525 -12 430 -9 m 245 61 q 122 156 140 61 q 119 191 119 174 q 312 328 122 327 q 395 324 357 328 l 395 227 q 309 76 395 117 q 245 61 278 61 z "},"á":{"ha":587,"x_min":28,"x_max":571,"o":"m 525 -12 q 571 -8 549 -12 l 567 58 q 547 57 559 57 q 487 106 496 57 q 484 151 484 123 l 484 483 q 369 674 484 628 q 277 690 327 690 q 54 624 160 689 l 88 557 q 264 616 187 616 q 391 519 370 616 q 395 479 395 500 l 395 388 q 311 392 353 392 q 60 293 130 392 q 28 191 28 247 q 133 7 28 56 q 227 -12 175 -12 q 391 64 324 -12 q 407 87 400 76 q 525 -12 430 -9 m 245 61 q 122 156 140 61 q 119 191 119 174 q 312 328 122 327 q 395 324 357 328 l 395 227 q 309 76 395 117 q 245 61 278 61 m 449 916 l 396 987 l 191 833 l 231 776 l 449 916 z "},"ă":{"ha":587,"x_min":28,"x_max":571,"o":"m 525 -12 q 571 -8 549 -12 l 567 58 q 547 57 559 57 q 487 106 496 57 q 484 151 484 123 l 484 483 q 369 674 484 628 q 277 690 327 690 q 54 624 160 689 l 88 557 q 264 616 187 616 q 391 519 370 616 q 395 479 395 500 l 395 388 q 311 392 353 392 q 60 293 130 392 q 28 191 28 247 q 133 7 28 56 q 227 -12 175 -12 q 391 64 324 -12 q 407 87 400 76 q 525 -12 430 -9 m 245 61 q 122 156 140 61 q 119 191 119 174 q 312 328 122 327 q 395 324 357 328 l 395 227 q 309 76 395 117 q 245 61 278 61 m 114 955 q 201 811 114 853 q 277 795 236 795 q 415 863 368 795 q 444 955 442 902 l 381 958 q 311 869 372 888 q 279 864 294 864 q 190 917 218 864 q 178 962 180 937 l 114 955 z "},"â":{"ha":587,"x_min":28,"x_max":571,"o":"m 525 -12 q 571 -8 549 -12 l 567 58 q 547 57 559 57 q 487 106 496 57 q 484 151 484 123 l 484 483 q 369 674 484 628 q 277 690 327 690 q 54 624 160 689 l 88 557 q 264 616 187 616 q 391 519 370 616 q 395 479 395 500 l 395 388 q 311 392 353 392 q 60 293 130 392 q 28 191 28 247 q 133 7 28 56 q 227 -12 175 -12 q 391 64 324 -12 q 407 87 400 76 q 525 -12 430 -9 m 245 61 q 122 156 140 61 q 119 191 119 174 q 312 328 122 327 q 395 324 357 328 l 395 227 q 309 76 395 117 q 245 61 278 61 m 285 975 l 100 823 l 141 773 l 281 879 l 422 772 l 465 826 l 285 975 z "},"´":{"ha":449,"x_min":114,"x_max":372,"o":"m 372 916 l 319 987 l 114 833 l 153 776 l 372 916 z "},"ä":{"ha":587,"x_min":28,"x_max":571,"o":"m 525 -12 q 571 -8 549 -12 l 567 58 q 547 57 559 57 q 487 106 496 57 q 484 151 484 123 l 484 483 q 369 674 484 628 q 277 690 327 690 q 54 624 160 689 l 88 557 q 264 616 187 616 q 391 519 370 616 q 395 479 395 500 l 395 388 q 311 392 353 392 q 60 293 130 392 q 28 191 28 247 q 133 7 28 56 q 227 -12 175 -12 q 391 64 324 -12 q 407 87 400 76 q 525 -12 430 -9 m 245 61 q 122 156 140 61 q 119 191 119 174 q 312 328 122 327 q 395 324 357 328 l 395 227 q 309 76 395 117 q 245 61 278 61 m 214 875 q 174 935 214 924 q 157 937 165 937 q 103 895 114 937 q 100 875 100 884 q 140 812 100 825 q 157 810 149 810 q 212 852 199 810 q 214 875 214 864 m 456 875 q 415 935 456 924 q 399 937 407 937 q 345 895 355 937 q 342 875 342 884 q 381 812 342 825 q 397 810 389 810 q 453 854 442 810 q 456 875 456 865 z "},"æ":{"ha":948,"x_min":31,"x_max":907,"o":"m 662 618 q 808 486 777 618 q 817 397 817 444 l 490 396 q 608 609 507 568 q 662 618 633 618 m 894 45 l 867 107 q 696 62 774 62 q 511 193 562 62 q 487 327 488 251 l 907 327 l 907 359 q 665 690 905 689 q 464 576 534 689 q 281 690 410 685 q 57 624 163 689 l 91 557 q 267 616 190 616 q 393 519 373 616 q 397 479 397 500 l 397 388 q 313 392 355 392 q 62 293 133 392 q 31 191 31 247 q 136 7 31 56 q 229 -12 178 -12 q 387 54 320 -12 q 439 138 423 91 q 685 -12 517 -11 q 894 45 791 -11 m 248 61 q 125 164 140 61 q 123 191 123 178 q 315 328 126 327 q 397 324 359 328 l 397 227 q 312 76 397 117 q 248 61 281 61 z "},"à":{"ha":587,"x_min":28,"x_max":571,"o":"m 525 -12 q 571 -8 549 -12 l 567 58 q 547 57 559 57 q 487 106 496 57 q 484 151 484 123 l 484 483 q 369 674 484 628 q 277 690 327 690 q 54 624 160 689 l 88 557 q 264 616 187 616 q 391 519 370 616 q 395 479 395 500 l 395 388 q 311 392 353 392 q 60 293 130 392 q 28 191 28 247 q 133 7 28 56 q 227 -12 175 -12 q 391 64 324 -12 q 407 87 400 76 q 525 -12 430 -9 m 245 61 q 122 156 140 61 q 119 191 119 174 q 312 328 122 327 q 395 324 357 328 l 395 227 q 309 76 395 117 q 245 61 278 61 m 138 916 l 191 987 l 396 833 l 357 776 l 138 916 z "},"ā":{"ha":587,"x_min":28,"x_max":571,"o":"m 525 -12 q 571 -8 549 -12 l 567 58 q 547 57 559 57 q 487 106 496 57 q 484 151 484 123 l 484 483 q 369 674 484 628 q 277 690 327 690 q 54 624 160 689 l 88 557 q 264 616 187 616 q 391 519 370 616 q 395 479 395 500 l 395 388 q 311 392 353 392 q 60 293 130 392 q 28 191 28 247 q 133 7 28 56 q 227 -12 175 -12 q 391 64 324 -12 q 407 87 400 76 q 525 -12 430 -9 m 245 61 q 122 156 140 61 q 119 191 119 174 q 312 328 122 327 q 395 324 357 328 l 395 227 q 309 76 395 117 q 245 61 278 61 m 106 910 l 106 838 l 450 838 l 450 910 l 106 910 z "},"&":{"ha":888,"x_min":73,"x_max":829,"o":"m 244 815 q 315 920 245 897 q 354 926 334 926 q 449 860 429 926 q 456 817 456 840 q 339 614 456 720 q 331 608 335 610 q 244 815 244 736 m 374 61 q 201 145 259 62 q 165 264 165 197 q 275 456 165 354 q 308 486 290 471 q 589 172 410 354 q 374 61 506 64 m 762 488 l 674 488 q 633 252 674 349 q 376 544 475 416 q 529 730 498 648 q 547 817 547 773 q 446 977 547 932 q 354 996 404 996 q 184 918 239 996 q 155 814 155 875 q 263 548 156 708 q 110 387 148 450 q 73 263 73 326 q 193 35 73 111 q 366 -12 269 -12 q 646 115 534 -11 q 768 -5 730 31 l 829 54 q 696 189 743 140 q 762 488 762 313 z "},"ං":{"ha":396,"x_min":33,"x_max":363,"o":"m 106 361 q 184 212 106 222 q 198 210 191 210 q 290 345 283 210 q 290 361 290 353 q 198 510 281 502 q 106 361 110 496 m 33 361 q 117 562 33 506 q 198 585 153 585 q 345 476 302 585 q 363 361 363 426 q 218 137 363 151 q 198 136 208 136 q 34 324 47 136 q 33 361 33 342 z "},"ą":{"ha":591,"x_min":28,"x_max":583,"o":"m 583 -256 l 579 -194 q 533 -199 557 -199 q 444 -148 460 -199 q 441 -127 441 -137 q 571 -9 441 -50 q 574 -8 572 -8 l 571 -8 l 567 58 q 547 57 559 57 q 487 106 496 57 q 484 151 484 123 l 484 483 q 369 674 484 628 q 277 690 327 690 q 54 624 160 689 l 88 557 q 264 616 187 616 q 391 519 370 616 q 395 479 395 500 l 395 388 q 311 392 353 392 q 60 293 130 392 q 28 191 28 247 q 133 7 28 56 q 227 -12 175 -12 q 391 64 324 -12 q 407 87 400 76 q 479 -7 420 12 q 365 -130 380 -53 q 363 -151 363 -141 q 433 -251 363 -221 q 511 -266 468 -266 q 583 -256 544 -266 m 245 61 q 122 156 140 61 q 119 191 119 174 q 312 328 122 327 q 395 324 357 328 l 395 227 q 309 76 395 117 q 245 61 278 61 z "},"≈":{"ha":700,"x_min":57,"x_max":642,"o":"m 481 454 q 354 492 441 454 q 222 528 274 528 q 57 446 134 526 l 104 396 q 222 445 163 445 q 353 407 267 445 q 480 372 431 372 q 640 454 570 373 l 593 505 q 481 454 541 454 m 481 260 q 355 298 442 260 q 224 334 274 334 q 58 252 136 332 l 106 202 q 222 251 161 251 q 354 213 267 251 q 481 178 431 178 q 642 260 571 179 l 593 311 q 481 260 544 260 z "},"å":{"ha":587,"x_min":28,"x_max":571,"o":"m 525 -12 q 571 -8 549 -12 l 567 58 q 547 57 559 57 q 487 106 496 57 q 484 151 484 123 l 484 483 q 369 674 484 628 q 277 690 327 690 q 54 624 160 689 l 88 557 q 264 616 187 616 q 391 519 370 616 q 395 479 395 500 l 395 388 q 311 392 353 392 q 60 293 130 392 q 28 191 28 247 q 133 7 28 56 q 227 -12 175 -12 q 391 64 324 -12 q 407 87 400 76 q 525 -12 430 -9 m 245 61 q 122 156 140 61 q 119 191 119 174 q 312 328 122 327 q 395 324 357 328 l 395 227 q 309 76 395 117 q 245 61 278 61 m 416 882 q 339 1009 416 977 q 283 1020 312 1020 q 167 959 206 1020 q 146 880 146 924 q 224 753 146 785 q 279 742 251 742 q 395 802 355 742 q 416 882 416 837 m 208 880 q 258 960 208 944 q 281 964 270 964 q 347 920 328 964 q 355 880 355 902 q 305 802 355 818 q 282 798 293 798 q 216 841 236 798 q 208 880 208 860 z "},"^":{"ha":696,"x_min":73,"x_max":623,"o":"m 349 928 l 73 532 l 130 495 l 349 812 l 564 495 l 623 536 l 349 928 z "},"~":{"ha":700,"x_min":58,"x_max":642,"o":"m 642 363 l 593 415 q 481 365 544 365 q 355 403 442 365 q 224 438 274 438 q 58 357 136 437 l 106 305 q 222 354 161 354 q 353 315 267 354 q 481 279 431 279 q 642 363 570 281 z "},"*":{"ha":499,"x_min":45,"x_max":446,"o":"m 266 807 l 288 914 q 259 978 298 968 q 205 968 235 982 l 231 807 l 266 807 m 222 798 l 126 852 q 57 848 79 882 q 49 792 45 826 l 213 768 l 222 798 m 217 758 l 136 684 q 122 613 91 644 q 170 591 138 598 l 243 738 l 217 758 m 255 738 l 302 637 q 357 598 321 590 q 400 640 382 606 l 282 757 l 255 738 m 286 768 l 392 781 q 446 822 445 785 q 420 875 445 846 l 275 799 l 286 768 z "},"@":{"ha":1047,"x_min":76,"x_max":977,"o":"m 769 -30 l 745 31 q 533 -9 643 -9 q 206 183 298 -9 q 157 431 157 288 q 282 754 159 633 q 545 856 388 856 q 822 728 724 856 q 897 481 897 628 q 774 206 897 227 q 750 205 762 205 q 694 256 700 205 q 693 275 693 266 l 693 541 q 594 696 693 659 q 522 708 560 708 q 336 655 418 707 l 365 598 q 511 643 438 643 q 614 538 610 635 l 614 469 q 544 472 568 472 q 331 373 377 472 q 316 305 316 342 q 401 157 316 198 q 477 141 437 141 q 624 217 571 141 q 625 220 625 218 q 742 141 646 142 q 947 293 888 141 q 977 483 977 373 q 826 830 977 708 q 545 924 711 924 q 195 769 328 924 q 76 431 77 632 q 244 11 76 144 q 526 -76 357 -76 q 769 -30 648 -77 m 491 205 q 404 267 423 205 q 399 307 399 285 q 545 416 401 415 q 614 414 593 416 l 614 336 q 543 216 614 245 q 491 205 518 205 z "},"ã":{"ha":587,"x_min":28,"x_max":571,"o":"m 525 -12 q 571 -8 549 -12 l 567 58 q 547 57 559 57 q 487 106 496 57 q 484 151 484 123 l 484 483 q 369 674 484 628 q 277 690 327 690 q 54 624 160 689 l 88 557 q 264 616 187 616 q 391 519 370 616 q 395 479 395 500 l 395 388 q 311 392 353 392 q 60 293 130 392 q 28 191 28 247 q 133 7 28 56 q 227 -12 175 -12 q 391 64 324 -12 q 407 87 400 76 q 525 -12 430 -9 m 245 61 q 122 156 140 61 q 119 191 119 174 q 312 328 122 327 q 395 324 357 328 l 395 227 q 309 76 395 117 q 245 61 278 61 m 362 884 q 279 913 336 884 q 203 935 236 933 q 79 872 141 933 l 119 829 q 203 863 160 863 q 286 834 229 863 q 368 812 332 812 q 481 878 429 814 l 441 921 q 362 884 406 884 z "},"b":{"ha":669,"x_min":104,"x_max":614,"o":"m 614 372 q 506 647 614 563 q 376 690 448 690 q 195 585 262 689 l 194 983 l 106 983 l 104 45 q 326 -12 209 -12 q 556 125 476 -12 q 614 372 614 225 m 193 94 l 194 395 q 282 598 194 543 q 357 618 317 618 q 487 532 441 618 q 522 370 522 465 q 423 95 522 171 q 321 61 378 61 q 193 94 262 61 z "},"\\":{"ha":530,"x_min":26,"x_max":503,"o":"m 420 -95 l 503 -94 l 106 983 l 26 983 l 420 -95 z "},"|":{"ha":410,"x_min":167,"x_max":241,"o":"m 170 983 l 167 -95 l 241 -95 l 241 983 l 170 983 z "},"{":{"ha":389,"x_min":56,"x_max":359,"o":"m 359 -244 l 355 -174 q 320 -175 345 -175 q 245 -118 256 -175 q 241 -72 241 -98 l 241 278 q 157 403 240 377 q 240 528 239 430 l 240 868 q 283 966 240 951 q 320 971 298 971 q 355 970 346 971 l 358 1040 q 292 1047 330 1047 q 167 964 190 1047 q 157 883 157 930 l 157 537 q 66 435 157 442 q 56 435 61 435 l 56 369 q 157 269 156 366 l 157 -85 q 229 -241 157 -214 q 292 -251 256 -251 q 359 -244 324 -251 z "},"}":{"ha":385,"x_min":26,"x_max":330,"o":"m 26 1039 l 30 968 q 65 970 41 970 q 140 913 129 970 q 144 867 144 892 l 144 517 q 228 392 145 418 q 145 267 146 365 l 145 -73 q 102 -171 145 -156 q 65 -176 87 -176 q 30 -175 39 -176 l 27 -245 q 94 -252 56 -252 q 218 -170 195 -252 q 228 -88 228 -136 l 228 258 q 319 359 228 353 q 330 359 324 359 l 330 426 q 228 526 229 429 l 228 880 q 156 1036 228 1009 q 94 1046 129 1046 q 26 1039 61 1046 z "},"[":{"ha":384,"x_min":117,"x_max":346,"o":"m 346 -237 l 346 -160 l 201 -160 l 201 956 l 346 956 l 346 1034 l 117 1034 l 117 -237 l 346 -237 z "},"]":{"ha":381,"x_min":35,"x_max":264,"o":"m 35 1040 l 35 963 l 180 963 l 180 -153 l 35 -153 l 35 -231 l 264 -231 l 264 1040 l 35 1040 z "},"˘":{"ha":524,"x_min":96,"x_max":426,"o":"m 96 955 q 183 811 96 853 q 259 795 218 795 q 397 863 350 795 q 426 955 425 902 l 363 958 q 293 869 354 888 q 262 864 277 864 q 172 917 201 864 q 160 962 163 937 l 96 955 z "},"¦":{"ha":410,"x_min":167,"x_max":241,"o":"m 170 315 l 167 -95 l 241 -95 l 241 315 l 170 315 m 170 983 l 167 575 l 241 575 l 241 983 l 170 983 z "},"•":{"ha":464,"x_min":104,"x_max":358,"o":"m 358 399 q 298 511 358 475 q 232 530 267 530 q 122 467 157 530 q 104 399 104 435 q 167 286 104 323 q 232 269 197 269 q 342 332 307 269 q 358 399 358 363 z "},"c":{"ha":530,"x_min":49,"x_max":526,"o":"m 514 47 l 487 111 q 326 62 399 62 q 155 216 193 62 q 141 339 141 270 q 241 600 141 544 q 309 616 273 616 q 454 506 403 614 l 526 537 q 345 688 473 671 q 312 690 328 690 q 95 555 165 690 q 49 340 49 467 q 176 24 49 109 q 307 -12 233 -12 q 514 47 411 -11 z "},"ć":{"ha":530,"x_min":49,"x_max":526,"o":"m 514 47 l 487 111 q 326 62 399 62 q 155 216 193 62 q 141 339 141 270 q 241 600 141 544 q 309 616 273 616 q 454 506 403 614 l 526 537 q 345 688 473 671 q 312 690 328 690 q 95 555 165 690 q 49 340 49 467 q 176 24 49 109 q 307 -12 233 -12 q 514 47 411 -11 m 487 916 l 434 987 l 229 833 l 269 776 l 487 916 z "},"ˇ":{"ha":606,"x_min":121,"x_max":486,"o":"m 301 772 l 486 925 l 446 974 l 307 867 l 163 977 l 121 924 l 301 772 z "},"č":{"ha":530,"x_min":49,"x_max":526,"o":"m 514 47 l 487 111 q 326 62 399 62 q 155 216 193 62 q 141 339 141 270 q 241 600 141 544 q 309 616 273 616 q 454 506 403 614 l 526 537 q 345 688 473 671 q 312 690 328 690 q 95 555 165 690 q 49 340 49 467 q 176 24 49 109 q 307 -12 233 -12 q 514 47 411 -11 m 313 772 l 498 925 l 458 974 l 319 867 l 175 977 l 133 924 l 313 772 z "},"ç":{"ha":530,"x_min":49,"x_max":526,"o":"m 266 -267 q 415 -193 374 -267 q 430 -136 430 -165 q 354 -16 430 -60 q 343 -11 349 -14 q 514 47 429 -1 l 487 111 q 326 62 399 62 q 155 216 193 62 q 141 339 141 270 q 241 600 141 544 q 309 616 273 616 q 454 506 403 614 l 526 537 q 345 688 473 671 q 312 690 328 690 q 95 555 165 690 q 49 340 49 467 q 172 27 49 113 q 266 -9 214 -1 q 361 -119 353 -57 q 298 -193 361 -175 q 255 -198 278 -198 q 212 -194 233 -198 l 209 -260 q 266 -267 235 -267 z "},"¸":{"ha":502,"x_min":145,"x_max":366,"o":"m 202 -267 q 351 -193 311 -267 q 366 -136 366 -165 q 289 -15 366 -58 q 232 7 263 -1 l 161 5 q 292 -91 267 -24 q 297 -119 297 -106 q 235 -193 297 -175 q 191 -198 214 -198 q 148 -194 170 -198 l 145 -260 q 202 -267 171 -267 z "},"¢":{"ha":585,"x_min":52,"x_max":530,"o":"m 518 75 l 491 138 q 330 90 401 90 q 163 220 206 90 q 144 353 144 278 q 233 591 144 530 q 313 616 270 616 q 448 528 396 616 q 458 506 453 517 l 530 541 q 340 689 465 675 l 340 791 l 275 791 l 275 688 q 85 532 144 666 q 52 354 52 454 q 175 54 52 137 q 275 18 218 24 l 275 -92 l 340 -92 l 340 16 q 518 75 429 23 z "},"ˆ":{"ha":606,"x_min":121,"x_max":486,"o":"m 305 975 l 121 823 l 161 773 l 301 879 l 442 772 l 486 826 l 305 975 z "},":":{"ha":300,"x_min":85,"x_max":214,"o":"m 214 469 q 171 537 214 524 q 151 540 160 540 q 90 495 103 540 q 85 469 85 481 q 132 400 85 412 q 151 397 141 397 q 212 444 198 397 q 214 469 214 457 m 214 61 q 171 129 214 115 q 151 132 160 132 q 90 87 103 132 q 85 61 85 73 q 132 -8 85 4 q 151 -11 141 -11 q 212 35 198 -11 q 214 61 214 49 z "},",":{"ha":254,"x_min":39,"x_max":189,"o":"m 189 49 q 138 129 189 113 q 118 132 127 132 q 56 88 71 132 q 50 57 50 73 q 100 -11 53 4 q 39 -148 92 -69 l 75 -175 q 184 11 163 -88 q 189 49 189 31 z "},"©":{"ha":1034,"x_min":58,"x_max":981,"o":"m 981 468 q 840 812 981 678 q 522 936 709 936 q 194 804 327 936 q 58 465 58 670 q 203 114 58 248 q 519 -5 334 -5 q 846 126 715 -7 q 981 468 981 262 m 713 214 l 684 271 q 532 224 600 224 q 376 342 416 224 q 359 457 359 392 q 457 690 359 640 q 522 705 487 705 q 648 623 600 705 q 661 601 655 612 l 726 631 q 557 768 671 750 q 524 770 540 770 q 324 655 392 770 q 278 458 278 574 q 391 197 278 274 q 522 157 448 157 q 713 214 616 159 m 140 467 q 269 777 140 661 q 521 871 374 871 q 800 746 692 871 q 899 465 898 632 q 772 153 899 269 q 522 60 667 60 q 240 184 350 60 q 140 467 140 298 z "},"¤":{"ha":726,"x_min":54,"x_max":665,"o":"m 637 338 q 574 549 636 468 l 663 661 l 612 703 l 528 597 q 362 650 458 650 q 194 595 266 648 l 107 703 l 56 662 l 146 549 q 76 338 76 461 q 140 126 77 210 l 54 22 l 106 -20 l 186 80 q 354 28 255 28 q 529 87 456 30 l 613 -19 l 665 23 l 574 133 q 637 338 637 218 m 168 338 q 241 530 168 460 q 359 576 292 576 q 519 468 469 576 q 547 338 547 410 q 472 145 547 213 q 357 102 423 102 q 195 209 247 102 q 168 338 168 267 z "},"d":{"ha":662,"x_min":47,"x_max":620,"o":"m 305 61 q 175 152 222 61 q 141 316 141 220 q 237 583 141 509 q 340 617 282 617 q 471 586 407 617 l 471 274 q 376 77 471 126 q 305 61 343 61 m 471 983 l 471 666 q 335 690 401 690 q 103 549 183 690 q 47 312 47 449 q 151 38 47 125 q 288 -12 210 -12 q 475 96 408 -11 q 620 -8 487 -28 l 616 58 q 562 92 570 53 q 559 130 559 109 l 559 983 l 471 983 z "},"†":{"ha":612,"x_min":39,"x_max":572,"o":"m 343 -75 l 354 359 l 345 613 l 572 609 l 572 685 l 345 681 l 354 944 l 258 944 l 267 681 l 39 685 l 39 609 l 267 613 l 258 359 l 269 -75 l 343 -75 z "},"‡":{"ha":612,"x_min":39,"x_max":572,"o":"m 572 184 l 572 260 l 345 256 l 354 438 l 345 613 l 572 609 l 572 685 l 345 681 l 354 944 l 258 944 l 267 681 l 39 685 l 39 609 l 267 613 l 258 438 l 267 256 l 39 260 l 39 184 l 267 189 l 258 -75 l 354 -75 l 345 189 l 572 184 z "},"ď":{"ha":715,"x_min":47,"x_max":754,"o":"m 305 61 q 175 152 222 61 q 141 316 141 220 q 237 583 141 509 q 340 617 282 617 q 471 586 407 617 l 471 274 q 376 77 471 126 q 305 61 343 61 m 471 983 l 471 666 q 335 690 401 690 q 103 549 183 690 q 47 312 47 449 q 151 38 47 125 q 288 -12 210 -12 q 475 96 408 -11 q 620 -8 487 -28 l 616 58 q 562 92 570 53 q 559 130 559 109 l 559 983 l 471 983 m 754 880 q 708 952 754 939 q 690 955 699 955 q 633 914 647 955 q 629 888 629 901 q 674 827 631 840 q 620 703 667 774 l 651 678 q 751 850 732 760 q 754 880 754 867 z "},"đ":{"ha":658,"x_min":47,"x_max":648,"o":"m 262 852 l 262 785 l 471 785 l 471 666 q 335 690 401 690 q 103 549 183 690 q 47 312 47 449 q 151 38 47 125 q 288 -12 210 -12 q 475 96 408 -11 q 620 -8 487 -28 l 616 58 q 562 92 570 53 q 559 130 559 109 l 559 785 l 648 785 l 648 852 l 559 852 l 559 983 l 471 983 l 471 852 l 262 852 m 305 61 q 175 152 222 61 q 141 316 141 220 q 237 583 141 509 q 340 617 282 617 q 471 586 407 617 l 471 274 q 376 77 471 126 q 305 61 343 61 z "},"°":{"ha":481,"x_min":71,"x_max":411,"o":"m 243 1001 q 100 929 149 1001 q 71 823 71 886 q 157 673 71 716 q 237 654 195 654 q 378 723 328 654 q 411 827 411 766 q 323 982 411 937 q 243 1001 285 1001 m 240 720 q 151 776 176 720 q 140 830 140 799 q 205 929 140 906 q 240 935 221 935 q 331 879 305 935 q 342 823 342 853 q 279 727 342 751 q 240 720 260 720 z "},"¨":{"ha":556,"x_min":100,"x_max":456,"o":"m 214 875 q 174 935 214 924 q 157 937 165 937 q 103 895 114 937 q 100 875 100 884 q 140 812 100 825 q 157 810 149 810 q 212 852 199 810 q 214 875 214 864 m 456 875 q 415 935 456 924 q 399 937 407 937 q 345 895 355 937 q 342 875 342 884 q 381 812 342 825 q 397 810 389 810 q 453 854 442 810 q 456 875 456 865 z "},"÷":{"ha":708,"x_min":54,"x_max":654,"o":"m 654 315 l 654 392 l 54 392 l 54 315 l 654 315 m 416 137 q 370 203 416 191 q 354 205 362 205 q 294 160 308 205 q 292 137 292 149 q 340 68 292 77 q 354 66 347 66 q 414 114 401 66 q 416 137 416 125 m 416 568 q 370 635 416 623 q 354 636 362 636 q 294 591 308 636 q 292 568 292 581 q 340 499 292 509 q 354 498 347 498 q 414 545 401 498 q 416 568 416 556 z "},"$":{"ha":704,"x_min":100,"x_max":606,"o":"m 396 -122 l 396 -8 q 583 121 533 12 q 605 228 605 170 q 484 433 605 359 q 351 499 465 445 q 227 600 252 547 q 214 656 214 625 q 301 791 214 754 q 376 806 336 806 q 536 715 490 804 l 606 753 q 422 882 559 865 q 396 884 408 884 l 396 993 l 330 993 l 330 880 q 152 766 206 859 q 122 654 122 716 q 237 456 122 528 q 369 391 256 445 q 498 286 472 342 q 511 222 511 256 q 415 79 511 111 q 347 68 384 68 q 142 134 240 69 l 100 66 q 330 -12 206 -7 l 330 -122 l 396 -122 z "},"˙":{"ha":334,"x_min":107,"x_max":228,"o":"m 198 842 q 201 907 227 878 q 197 911 198 910 q 140 913 170 941 q 134 907 137 910 q 137 838 109 869 q 191 836 164 810 q 198 842 195 840 z "},"ı":{"ha":298,"x_min":104,"x_max":193,"o":"m 193 0 l 193 678 l 104 678 l 104 0 l 193 0 z "},"◌":{"ha":906,"x_min":41,"x_max":865,"o":"m 88 225 q 123 278 88 263 q 145 282 134 282 q 198 247 183 282 q 202 225 202 236 q 167 172 202 187 q 145 168 156 168 q 92 203 107 168 q 88 225 88 214 m 218 95 q 254 148 218 133 q 275 152 264 152 q 328 118 313 152 q 334 95 334 106 q 298 42 334 58 q 275 38 288 38 q 222 73 237 38 q 218 95 218 84 m 704 225 q 739 278 704 263 q 761 282 750 282 q 814 247 799 282 q 818 225 818 236 q 783 172 818 187 q 761 168 772 168 q 708 203 723 168 q 704 225 704 214 m 574 95 q 609 148 574 133 q 631 152 620 152 q 684 117 669 152 q 688 95 688 106 q 652 42 688 57 q 631 38 642 38 q 578 73 593 38 q 574 95 574 84 m 88 581 q 123 633 88 618 q 145 637 134 637 q 198 602 183 637 q 202 581 202 591 q 167 528 202 543 q 145 524 156 524 q 92 559 107 524 q 88 581 88 570 m 218 711 q 254 764 218 749 q 275 768 264 768 q 328 734 313 768 q 334 711 334 722 q 298 658 334 674 q 275 654 288 654 q 222 689 237 654 q 218 711 218 700 m 704 581 q 739 633 704 618 q 761 637 750 637 q 814 602 799 637 q 818 581 818 591 q 783 528 818 543 q 761 524 772 524 q 708 559 723 524 q 704 581 704 570 m 574 711 q 609 764 574 749 q 631 768 620 768 q 684 732 669 768 q 688 711 688 722 q 652 658 688 673 q 631 654 642 654 q 578 689 593 654 q 574 711 574 700 m 41 403 q 76 456 41 441 q 98 460 87 460 q 151 425 136 460 q 155 403 155 414 q 119 350 155 365 q 98 346 109 346 q 45 381 60 346 q 41 403 41 392 m 751 403 q 787 456 751 441 q 808 460 798 460 q 861 425 846 460 q 865 403 865 414 q 830 350 865 365 q 808 346 819 346 q 755 381 770 346 q 751 403 751 392 m 396 758 q 431 811 396 796 q 453 815 442 815 q 506 780 491 815 q 510 758 510 769 q 475 705 510 720 q 453 701 464 701 q 400 736 415 701 q 396 758 396 747 m 396 47 q 431 100 396 85 q 453 104 442 104 q 506 69 491 104 q 510 47 510 58 q 475 -5 510 9 q 453 -9 464 -9 q 400 26 415 -9 q 396 47 396 37 z "},"e":{"ha":605,"x_min":53,"x_max":567,"o":"m 552 45 l 525 107 q 355 62 435 62 q 170 191 221 62 q 145 326 146 250 l 567 326 l 567 359 q 321 690 564 689 q 104 562 178 690 q 53 342 53 472 q 190 30 53 117 q 345 -12 256 -12 q 552 45 450 -11 m 320 618 q 468 483 438 618 q 476 397 476 444 l 148 396 q 269 610 165 571 q 320 618 293 618 z "},"é":{"ha":605,"x_min":53,"x_max":567,"o":"m 552 45 l 525 107 q 355 62 435 62 q 170 191 221 62 q 145 326 146 250 l 567 326 l 567 359 q 321 690 564 689 q 104 562 178 690 q 53 342 53 472 q 190 30 53 117 q 345 -12 256 -12 q 552 45 450 -11 m 320 618 q 468 483 438 618 q 476 397 476 444 l 148 396 q 269 610 165 571 q 320 618 293 618 m 500 916 l 448 987 l 243 833 l 282 776 l 500 916 z "},"ě":{"ha":605,"x_min":53,"x_max":567,"o":"m 552 45 l 525 107 q 355 62 435 62 q 170 191 221 62 q 145 326 146 250 l 567 326 l 567 359 q 321 690 564 689 q 104 562 178 690 q 53 342 53 472 q 190 30 53 117 q 345 -12 256 -12 q 552 45 450 -11 m 320 618 q 468 483 438 618 q 476 397 476 444 l 148 396 q 269 610 165 571 q 320 618 293 618 m 326 772 l 510 925 l 471 974 l 331 867 l 187 977 l 145 924 l 326 772 z "},"ê":{"ha":605,"x_min":53,"x_max":567,"o":"m 552 45 l 525 107 q 355 62 435 62 q 170 191 221 62 q 145 326 146 250 l 567 326 l 567 359 q 321 690 564 689 q 104 562 178 690 q 53 342 53 472 q 190 30 53 117 q 345 -12 256 -12 q 552 45 450 -11 m 320 618 q 468 483 438 618 q 476 397 476 444 l 148 396 q 269 610 165 571 q 320 618 293 618 m 336 975 l 152 823 l 193 773 l 332 879 l 473 772 l 517 826 l 336 975 z "},"ë":{"ha":605,"x_min":53,"x_max":567,"o":"m 552 45 l 525 107 q 355 62 435 62 q 170 191 221 62 q 145 326 146 250 l 567 326 l 567 359 q 321 690 564 689 q 104 562 178 690 q 53 342 53 472 q 190 30 53 117 q 345 -12 256 -12 q 552 45 450 -11 m 320 618 q 468 483 438 618 q 476 397 476 444 l 148 396 q 269 610 165 571 q 320 618 293 618 m 264 875 q 224 935 264 924 q 208 937 216 937 q 153 895 164 937 q 151 875 151 884 q 190 812 151 825 q 208 810 199 810 q 262 852 250 810 q 264 875 264 864 m 506 875 q 465 935 506 924 q 449 937 457 937 q 395 895 406 937 q 392 875 392 884 q 431 812 392 825 q 448 810 439 810 q 503 854 492 810 q 506 875 506 865 z "},"ė":{"ha":605,"x_min":53,"x_max":567,"o":"m 552 45 l 525 107 q 355 62 435 62 q 170 191 221 62 q 145 326 146 250 l 567 326 l 567 359 q 321 690 564 689 q 104 562 178 690 q 53 342 53 472 q 190 30 53 117 q 345 -12 256 -12 q 552 45 450 -11 m 320 618 q 468 483 438 618 q 476 397 476 444 l 148 396 q 269 610 165 571 q 320 618 293 618 m 359 842 q 362 907 388 878 q 358 911 359 910 q 301 913 331 941 q 296 907 298 910 q 298 838 270 869 q 353 836 326 810 q 359 842 357 840 z "},"è":{"ha":605,"x_min":53,"x_max":567,"o":"m 552 45 l 525 107 q 355 62 435 62 q 170 191 221 62 q 145 326 146 250 l 567 326 l 567 359 q 321 690 564 689 q 104 562 178 690 q 53 342 53 472 q 190 30 53 117 q 345 -12 256 -12 q 552 45 450 -11 m 320 618 q 468 483 438 618 q 476 397 476 444 l 148 396 q 269 610 165 571 q 320 618 293 618 m 190 916 l 243 987 l 448 833 l 408 776 l 190 916 z "},"…":{"ha":808,"x_min":71,"x_max":726,"o":"m 463 61 q 419 129 463 115 q 399 132 408 132 q 338 87 351 132 q 334 61 334 73 q 380 -8 334 4 q 399 -11 389 -11 q 460 35 446 -11 q 463 61 463 47 m 726 61 q 682 129 726 115 q 662 132 671 132 q 601 87 614 132 q 597 61 597 75 q 643 -8 597 4 q 662 -11 652 -11 q 723 35 709 -11 q 726 61 726 47 m 199 61 q 156 129 199 115 q 136 132 145 132 q 75 87 88 132 q 71 61 71 73 q 117 -8 71 4 q 136 -11 126 -11 q 197 35 183 -11 q 199 61 199 49 z "},"ē":{"ha":605,"x_min":53,"x_max":567,"o":"m 552 45 l 525 107 q 355 62 435 62 q 170 191 221 62 q 145 326 146 250 l 567 326 l 567 359 q 321 690 564 689 q 104 562 178 690 q 53 342 53 472 q 190 30 53 117 q 345 -12 256 -12 q 552 45 450 -11 m 320 618 q 468 483 438 618 q 476 397 476 444 l 148 396 q 269 610 165 571 q 320 618 293 618 m 157 910 l 157 838 l 502 838 l 502 910 l 157 910 z "},"—":{"ha":1356,"x_min":-1,"x_max":1358,"o":"m -1 446 l -1 366 l 1358 366 l 1358 446 l -1 446 z "},"–":{"ha":678,"x_min":-1,"x_max":680,"o":"m -1 446 l -1 366 l 680 366 l 680 446 l -1 446 z "},"ę":{"ha":604,"x_min":53,"x_max":567,"o":"m 545 -260 l 541 -199 q 495 -205 519 -205 q 410 -149 423 -205 q 407 -129 407 -138 q 490 8 407 -58 q 522 30 506 20 q 552 45 537 37 l 525 107 q 355 62 435 62 q 170 191 221 62 q 145 326 146 250 l 567 326 l 567 359 q 321 690 564 689 q 104 562 178 690 q 53 342 53 472 q 190 30 53 117 q 345 -12 256 -12 q 407 -7 380 -12 q 328 -151 330 -71 q 400 -256 328 -227 q 473 -270 433 -270 q 545 -260 513 -270 m 320 618 q 468 483 438 618 q 476 397 476 444 l 148 396 q 269 610 165 571 q 320 618 293 618 z "},"=":{"ha":749,"x_min":96,"x_max":654,"o":"m 654 406 l 654 483 l 96 483 l 96 406 l 654 406 m 654 216 l 654 292 l 96 292 l 96 216 l 654 216 z "},"℮":{"ha":972,"x_min":64,"x_max":922,"o":"m 237 144 l 237 483 l 922 483 q 762 846 922 722 q 505 933 651 933 q 156 761 279 933 q 64 457 64 631 q 208 94 64 227 q 494 -14 327 -14 q 823 110 681 -14 q 861 146 844 127 l 829 180 q 562 38 722 61 q 500 34 530 34 q 237 144 343 35 m 750 793 l 750 530 l 237 530 l 237 776 q 491 886 334 880 q 506 886 499 886 q 750 793 654 884 z "},"ð":{"ha":662,"x_min":49,"x_max":614,"o":"m 614 431 q 469 890 614 741 q 454 905 461 898 l 552 974 l 514 1025 l 400 945 q 222 991 320 991 q 102 974 159 991 l 121 907 q 217 918 170 918 q 330 895 282 918 l 209 811 l 245 758 l 389 859 q 521 543 503 762 q 372 646 473 628 q 331 650 351 650 q 106 528 186 650 q 49 319 49 439 q 161 41 49 129 q 328 -12 232 -12 q 614 431 613 -9 m 142 317 q 227 536 142 467 q 334 574 273 574 q 502 450 454 574 q 522 324 522 395 q 434 98 522 165 q 331 64 389 64 q 165 182 214 64 q 142 317 142 241 z "},"!":{"ha":330,"x_min":98,"x_max":227,"o":"m 214 951 l 110 951 l 125 229 l 199 229 l 214 951 m 227 61 q 183 129 227 115 q 163 132 172 132 q 102 87 115 132 q 98 61 98 73 q 144 -8 98 4 q 163 -11 153 -11 q 224 35 210 -11 q 227 61 227 49 z "},"¡":{"ha":330,"x_min":103,"x_max":232,"o":"m 115 -271 l 220 -271 l 205 450 l 130 450 l 115 -271 m 103 618 q 146 551 103 564 q 167 548 157 548 q 228 593 214 548 q 232 618 232 606 q 186 688 232 675 q 167 690 176 690 q 106 644 119 690 q 103 618 103 631 z "},"f":{"ha":410,"x_min":42,"x_max":437,"o":"m 400 608 l 400 678 l 227 678 l 227 788 q 302 920 227 907 q 317 921 311 921 q 406 894 362 920 l 437 956 q 305 996 373 996 q 156 901 197 996 q 138 804 138 859 l 138 678 l 42 678 l 42 608 l 138 608 l 138 0 l 227 0 l 227 608 l 400 608 z "},"ﬁ":{"ha":680,"x_min":39,"x_max":593,"o":"m 224 0 l 224 608 l 486 608 l 486 0 l 574 0 l 574 678 l 224 678 l 224 788 q 315 921 232 914 q 381 905 346 921 l 411 967 q 301 996 355 996 q 153 902 194 996 q 136 804 136 859 l 136 678 l 39 678 l 39 608 l 136 608 l 136 0 l 224 0 m 593 875 q 548 941 593 929 q 530 944 540 944 q 471 899 484 944 q 467 875 467 887 q 509 808 467 823 q 530 804 519 804 q 590 850 576 804 q 593 875 593 863 z "},"ﬂ":{"ha":718,"x_min":39,"x_max":700,"o":"m 387 608 l 387 678 l 224 678 l 224 788 q 315 921 232 914 q 381 905 346 921 l 411 967 q 301 996 355 996 q 153 902 194 996 q 136 804 136 859 l 136 678 l 39 678 l 39 608 l 136 608 l 136 0 l 224 0 l 224 608 l 387 608 m 700 5 l 681 72 q 632 61 655 61 q 575 140 576 64 l 575 983 l 487 983 l 487 130 q 571 -7 487 19 q 614 -12 593 -12 q 700 5 652 -12 z "},"ƒ":{"ha":581,"x_min":-72,"x_max":571,"o":"m 220 -96 l 298 492 l 481 492 l 481 563 l 308 563 l 338 785 q 458 921 358 920 q 544 902 494 921 l 571 968 q 453 996 513 996 q 283 898 339 996 q 252 802 259 856 l 220 563 l 72 563 l 72 492 l 210 492 l 133 -80 q 28 -213 109 -206 q -41 -194 -5 -212 l -72 -259 q 35 -289 -12 -289 q 189 -194 136 -289 q 220 -96 212 -151 z "},"⁄":{"ha":735,"x_min":35,"x_max":685,"o":"m 122 -15 l 35 -14 l 601 997 l 685 997 l 122 -15 z "},"g":{"ha":628,"x_min":50,"x_max":602,"o":"m 312 281 q 194 347 235 281 q 170 445 170 389 q 250 602 170 562 q 311 617 279 617 q 429 545 391 617 q 452 446 452 503 q 372 296 452 335 q 312 281 343 281 m 312 689 q 129 598 194 689 q 83 445 83 534 q 171 254 84 317 q 95 140 96 210 q 157 42 96 76 q 50 -115 52 -26 q 159 -263 50 -217 q 300 -289 220 -289 q 556 -190 477 -289 q 595 -73 595 -138 q 490 79 595 35 q 363 100 435 100 l 241 99 q 172 141 184 99 q 171 155 171 148 q 228 222 174 202 q 311 209 266 209 q 494 297 429 209 q 538 445 538 358 q 476 618 537 552 l 602 616 l 602 688 l 378 680 q 312 689 347 689 m 307 -216 q 146 -146 182 -216 q 136 -102 136 -125 q 227 26 137 -27 l 241 26 l 357 28 q 499 -37 468 30 q 509 -77 509 -56 q 407 -201 509 -168 q 307 -216 362 -216 z "},"ğ":{"ha":628,"x_min":50,"x_max":602,"o":"m 312 281 q 194 347 235 281 q 170 445 170 389 q 250 602 170 562 q 311 617 279 617 q 429 545 391 617 q 452 446 452 503 q 372 296 452 335 q 312 281 343 281 m 312 689 q 129 598 194 689 q 83 445 83 534 q 171 254 84 317 q 95 140 96 210 q 157 42 96 76 q 50 -115 52 -26 q 159 -263 50 -217 q 300 -289 220 -289 q 556 -190 477 -289 q 595 -73 595 -138 q 490 79 595 35 q 363 100 435 100 l 241 99 q 172 141 184 99 q 171 155 171 148 q 228 222 174 202 q 311 209 266 209 q 494 297 429 209 q 538 445 538 358 q 476 618 537 552 l 602 616 l 602 688 l 378 680 q 312 689 347 689 m 307 -216 q 146 -146 182 -216 q 136 -102 136 -125 q 227 26 137 -27 l 241 26 l 357 28 q 499 -37 468 30 q 509 -77 509 -56 q 407 -201 509 -168 q 307 -216 362 -216 m 152 955 q 239 811 152 853 q 315 795 274 795 q 453 863 406 795 q 481 955 480 902 l 419 958 q 349 869 410 888 q 317 864 332 864 q 228 917 256 864 q 216 962 218 937 l 152 955 z "},"ß":{"ha":753,"x_min":39,"x_max":700,"o":"m 700 190 q 595 377 700 296 q 544 415 578 391 q 449 499 468 468 q 438 541 438 519 q 496 633 438 586 q 574 701 562 686 q 623 823 623 754 q 513 971 623 925 q 388 996 456 996 q 176 901 244 996 q 136 760 136 842 l 136 678 l 39 678 l 39 608 l 136 608 l 136 0 l 224 0 l 224 754 q 327 920 224 888 q 381 928 353 928 q 517 873 476 928 q 536 818 536 848 q 471 701 536 753 q 446 682 463 694 q 366 600 384 635 q 351 534 351 570 q 439 384 351 452 q 486 351 454 373 q 591 255 568 294 q 612 186 612 222 q 545 69 612 100 q 502 60 524 60 q 372 103 446 61 l 340 38 q 503 -12 425 -12 q 655 58 598 -12 q 700 190 700 113 z "},"`":{"ha":461,"x_min":117,"x_max":374,"o":"m 117 916 l 170 987 l 374 833 l 335 776 l 117 916 z "},">":{"ha":585,"x_min":94,"x_max":515,"o":"m 515 345 l 155 700 l 94 640 l 403 343 l 94 34 l 156 -22 l 515 345 z "},"≥":{"ha":591,"x_min":80,"x_max":517,"o":"m 517 441 l 133 719 l 81 655 l 393 441 l 80 217 l 127 156 l 517 441 m 510 26 l 510 103 l 88 103 l 88 26 l 510 26 z "},"«":{"ha":648,"x_min":64,"x_max":559,"o":"m 321 560 l 262 608 l 64 358 l 258 107 l 319 156 l 160 359 l 321 560 m 559 559 l 499 608 l 294 358 l 495 107 l 556 157 l 391 359 l 559 559 z "},"»":{"ha":646,"x_min":64,"x_max":559,"o":"m 301 155 l 361 107 l 559 357 l 365 608 l 304 559 l 463 355 l 301 155 m 64 156 l 123 107 l 328 357 l 127 608 l 66 557 l 232 355 l 64 156 z "},"‹":{"ha":358,"x_min":39,"x_max":304,"o":"m 304 557 l 241 608 l 39 358 l 237 107 l 301 159 l 137 359 l 304 557 z "},"›":{"ha":358,"x_min":54,"x_max":319,"o":"m 54 156 l 117 106 l 319 355 l 121 606 l 57 555 l 221 354 l 54 156 z "},"h":{"ha":686,"x_min":104,"x_max":640,"o":"m 636 58 q 579 91 589 53 q 576 132 576 107 l 576 464 q 461 675 576 629 q 380 690 425 690 q 197 582 262 690 q 193 575 194 578 l 194 983 l 104 983 l 104 0 l 194 0 l 194 385 q 282 597 194 538 q 359 620 319 620 q 479 526 452 620 q 488 456 488 494 l 488 123 q 602 -12 488 -12 q 640 -8 620 -11 l 636 58 z "},"˝":{"ha":644,"x_min":96,"x_max":583,"o":"m 342 929 l 285 993 l 96 826 l 138 776 l 342 929 m 583 929 l 526 993 l 338 826 l 380 776 l 583 929 z "},"-":{"ha":444,"x_min":61,"x_max":382,"o":"m 61 400 l 61 328 l 382 328 l 382 400 l 61 400 z "},"i":{"ha":298,"x_min":87,"x_max":212,"o":"m 193 0 l 193 678 l 104 678 l 104 0 l 193 0 m 212 875 q 167 941 212 929 q 149 944 159 944 q 90 898 102 944 q 87 875 87 886 q 129 807 87 821 q 149 804 140 804 q 209 850 195 804 q 212 875 212 863 z "},"í":{"ha":298,"x_min":62,"x_max":320,"o":"m 193 0 l 193 678 l 104 678 l 104 0 l 193 0 m 320 916 l 267 987 l 62 833 l 102 776 l 320 916 z "},"î":{"ha":298,"x_min":-15,"x_max":319,"o":"m 155 975 l -15 819 l 30 773 l 151 878 l 273 772 l 319 823 l 155 975 m 193 0 l 193 678 l 104 678 l 104 0 l 193 0 z "},"ï":{"ha":298,"x_min":-12,"x_max":311,"o":"m 103 875 q 64 935 103 922 q 46 937 54 937 q -9 894 0 937 q -12 875 -12 884 q 27 812 -12 825 q 45 810 37 810 q 99 850 85 810 q 103 875 103 863 m 311 875 q 269 935 311 924 q 252 937 260 937 q 198 895 209 937 q 195 875 195 884 q 235 812 195 825 q 252 810 244 810 q 307 850 293 810 q 311 875 311 863 m 193 0 l 193 678 l 104 678 l 104 0 l 193 0 z "},"ì":{"ha":298,"x_min":-8,"x_max":250,"o":"m 193 0 l 193 678 l 104 678 l 104 0 l 193 0 m -8 916 l 45 987 l 250 833 l 210 776 l -8 916 z "},"ī":{"ha":298,"x_min":1,"x_max":297,"o":"m 1 910 l 1 838 l 297 838 l 297 910 l 1 910 m 193 0 l 193 678 l 104 678 l 104 0 l 193 0 z "},"∞":{"ha":1147,"x_min":71,"x_max":1078,"o":"m 853 151 q 1044 251 982 151 q 1078 374 1078 308 q 1000 547 1078 484 q 867 589 944 589 q 659 495 774 589 q 579 427 652 490 q 361 579 450 552 q 294 589 327 589 q 103 487 165 589 q 71 365 71 431 q 153 190 71 250 q 288 151 209 151 q 499 248 377 151 q 572 309 506 254 q 818 153 716 171 q 853 151 837 151 m 854 229 q 665 342 780 229 q 632 374 650 357 q 784 490 738 468 q 859 510 823 510 q 972 434 939 510 q 986 368 986 403 q 925 248 986 286 q 854 229 894 229 m 296 229 q 176 308 210 229 q 163 373 163 338 q 225 492 163 454 q 294 510 255 510 q 477 400 362 510 q 515 363 494 384 q 373 252 411 274 q 296 229 331 229 z "},"∫":{"ha":408,"x_min":16,"x_max":377,"o":"m 252 -47 q 229 699 252 57 q 227 774 228 742 q 317 945 231 937 q 359 937 342 945 l 377 1012 q 305 1024 338 1024 q 153 905 194 1024 q 136 783 136 852 q 157 91 136 694 q 161 -41 160 12 q 75 -213 164 -212 q 30 -205 61 -213 l 16 -278 q 83 -290 49 -290 q 231 -179 186 -290 q 252 -47 252 -122 z "},"į":{"ha":298,"x_min":-4,"x_max":213,"o":"m 180 842 q 183 907 209 878 q 179 911 180 910 q 122 913 152 941 q 117 907 119 910 q 119 838 91 869 q 174 836 146 810 q 180 842 178 840 m 213 -260 l 209 -199 q 163 -205 187 -205 q 77 -153 94 -205 q 75 -132 75 -142 q 193 0 77 -57 l 193 678 l 104 678 l 104 4 q -4 -149 -3 -64 q 85 -263 -4 -239 q 141 -270 113 -270 q 213 -260 180 -270 z "},"j":{"ha":305,"x_min":-94,"x_max":220,"o":"m 199 -87 l 199 678 l 111 678 l 111 -90 q 24 -214 100 -206 q -62 -186 -16 -213 l -94 -254 q 34 -289 -28 -289 q 178 -195 136 -289 q 199 -87 199 -148 m 220 878 q 178 943 220 928 q 157 945 167 945 q 98 902 111 945 q 94 878 94 890 q 138 810 94 822 q 156 807 148 807 q 216 852 203 807 q 220 878 220 865 z "},"k":{"ha":609,"x_min":106,"x_max":604,"o":"m 567 -12 q 604 -8 586 -12 l 600 57 l 585 57 q 547 85 564 57 q 541 96 544 91 l 377 384 l 576 678 l 484 678 l 320 431 l 194 431 l 194 983 l 106 983 l 106 0 l 194 0 l 194 359 l 300 359 l 468 60 q 567 -12 517 -8 z "},"l":{"ha":328,"x_min":104,"x_max":317,"o":"m 233 -12 q 317 5 270 -12 l 298 72 q 251 61 275 61 q 193 140 194 64 l 193 983 l 104 983 l 104 130 q 189 -5 104 20 q 233 -12 210 -12 z "},"ĺ":{"ha":328,"x_min":64,"x_max":321,"o":"m 233 -12 q 317 5 270 -12 l 298 72 q 251 61 275 61 q 193 140 194 64 l 193 983 l 104 983 l 104 130 q 189 -5 104 20 q 233 -12 210 -12 m 321 1176 l 269 1248 l 64 1093 l 103 1036 l 321 1176 z "},"ľ":{"ha":350,"x_min":104,"x_max":389,"o":"m 233 -12 q 317 5 270 -12 l 298 72 q 251 61 275 61 q 193 140 194 64 l 193 983 l 104 983 l 104 130 q 189 -5 104 20 q 233 -12 210 -12 m 389 880 q 343 952 389 939 q 326 955 334 955 q 269 914 282 955 q 264 888 264 901 q 309 827 266 840 q 255 703 302 774 l 286 678 q 387 850 368 760 q 389 880 389 867 z "},"<":{"ha":578,"x_min":62,"x_max":484,"o":"m 62 334 l 423 -22 l 484 38 l 175 335 l 484 644 l 422 700 l 62 334 z "},"≤":{"ha":591,"x_min":75,"x_max":511,"o":"m 505 26 l 505 103 l 83 103 l 83 26 l 505 26 m 75 435 l 458 156 l 510 220 l 198 435 l 511 658 l 464 719 l 75 435 z "},"¬":{"ha":654,"x_min":46,"x_max":595,"o":"m 595 153 l 595 392 l 46 392 l 46 316 l 507 316 l 507 153 l 595 153 z "},"◊":{"ha":703,"x_min":30,"x_max":673,"o":"m 385 -4 l 673 457 l 378 920 l 319 920 l 30 458 l 324 -4 l 385 -4 m 179 389 l 122 464 l 297 741 l 346 826 l 524 530 l 581 452 l 407 171 l 359 90 l 179 389 z "},"ł":{"ha":334,"x_min":88,"x_max":317,"o":"m 88 420 l 91 416 l 104 422 l 104 427 l 193 465 l 193 983 l 104 983 l 104 427 l 88 420 m 233 -12 q 317 5 270 -12 l 298 72 q 251 61 275 61 q 193 140 194 64 l 193 460 l 217 471 l 216 475 l 193 465 l 193 460 l 104 422 l 104 130 q 189 -5 104 20 q 233 -12 210 -12 z "},"m":{"ha":1051,"x_min":104,"x_max":1002,"o":"m 939 465 q 831 674 939 625 q 749 692 793 692 q 571 578 635 692 q 557 551 563 564 q 427 685 525 661 q 376 692 401 692 q 201 590 264 692 q 189 570 194 579 l 187 678 l 104 678 l 104 0 l 193 0 l 193 382 q 281 597 193 537 q 357 620 316 620 q 475 518 450 620 q 481 454 481 490 l 481 0 l 571 0 l 571 382 q 658 598 571 540 q 730 620 692 620 q 841 528 815 620 q 850 454 850 494 l 850 123 q 964 -12 850 -12 q 1002 -8 982 -11 l 998 58 q 941 91 951 53 q 939 132 939 107 l 939 465 z "},"¯":{"ha":491,"x_min":73,"x_max":418,"o":"m 73 910 l 73 838 l 418 838 l 418 910 l 73 910 z "},"−":{"ha":713,"x_min":91,"x_max":623,"o":"m 91 313 l 623 313 l 623 392 l 91 392 l 91 313 z "},"×":{"ha":620,"x_min":87,"x_max":534,"o":"m 87 522 l 256 353 l 88 184 l 141 132 l 309 300 l 479 130 l 534 186 l 365 355 l 533 524 l 480 576 l 312 408 l 142 578 l 87 522 z "},"n":{"ha":684,"x_min":106,"x_max":640,"o":"m 636 58 q 579 94 589 53 q 576 132 576 110 l 576 465 q 464 674 576 627 q 380 690 426 690 q 191 570 252 689 l 190 678 l 106 678 l 106 0 l 194 0 l 194 381 q 283 595 194 536 q 362 620 320 620 q 480 524 453 620 q 488 454 488 492 l 488 123 q 600 -12 491 -11 q 640 -8 620 -12 l 636 58 z "},"ń":{"ha":684,"x_min":106,"x_max":640,"o":"m 636 58 q 579 94 589 53 q 576 132 576 110 l 576 465 q 464 674 576 627 q 380 690 426 690 q 191 570 252 689 l 190 678 l 106 678 l 106 0 l 194 0 l 194 381 q 283 595 194 536 q 362 620 320 620 q 480 524 453 620 q 488 454 488 492 l 488 123 q 600 -12 491 -11 q 640 -8 620 -12 l 636 58 m 517 916 l 464 987 l 259 833 l 298 776 l 517 916 z "},"ň":{"ha":684,"x_min":106,"x_max":640,"o":"m 636 58 q 579 94 589 53 q 576 132 576 110 l 576 465 q 464 674 576 627 q 380 690 426 690 q 191 570 252 689 l 190 678 l 106 678 l 106 0 l 194 0 l 194 381 q 283 595 194 536 q 362 620 320 620 q 480 524 453 620 q 488 454 488 492 l 488 123 q 600 -12 491 -11 q 640 -8 620 -12 l 636 58 m 343 772 l 528 925 l 488 974 l 349 867 l 205 977 l 163 924 l 343 772 z "},"≠":{"ha":749,"x_min":96,"x_max":654,"o":"m 654 216 l 654 292 l 396 292 l 437 406 l 654 406 l 654 483 l 465 483 l 521 639 l 441 639 l 384 483 l 96 483 l 96 406 l 355 406 l 315 292 l 96 292 l 96 216 l 288 216 l 228 53 l 311 53 l 369 216 l 654 216 z "},"ñ":{"ha":684,"x_min":106,"x_max":640,"o":"m 636 58 q 579 94 589 53 q 576 132 576 110 l 576 465 q 464 674 576 627 q 380 690 426 690 q 191 570 252 689 l 190 678 l 106 678 l 106 0 l 194 0 l 194 381 q 283 595 194 536 q 362 620 320 620 q 480 524 453 620 q 488 454 488 492 l 488 123 q 600 -12 491 -11 q 640 -8 620 -12 l 636 58 m 430 884 q 347 913 404 884 q 271 935 304 933 q 146 872 209 933 l 187 829 q 271 863 228 863 q 354 834 297 863 q 435 812 400 812 q 549 878 496 814 l 509 921 q 430 884 473 884 z "},"#":{"ha":887,"x_min":26,"x_max":861,"o":"m 388 916 l 315 665 l 119 665 l 119 601 l 297 601 l 220 338 l 26 338 l 26 274 l 202 274 l 122 0 l 201 0 l 279 274 l 494 275 l 414 0 l 492 0 l 571 275 l 766 275 l 766 338 l 590 338 l 665 601 l 861 601 l 861 665 l 684 665 l 755 916 l 678 916 l 606 665 l 393 665 l 465 916 l 388 916 m 511 338 l 298 338 l 374 601 l 587 601 l 511 338 z "},"o":{"ha":662,"x_min":50,"x_max":612,"o":"m 331 61 q 164 194 209 61 q 142 338 142 256 q 233 583 142 513 q 334 617 278 617 q 500 479 456 617 q 519 338 519 416 q 422 87 519 152 q 331 61 381 61 m 336 690 q 100 552 178 690 q 50 338 50 463 q 186 24 50 106 q 328 -12 247 -12 q 568 134 495 -12 q 612 338 612 220 q 483 650 612 566 q 336 690 420 690 z "},"ó":{"ha":662,"x_min":50,"x_max":612,"o":"m 331 61 q 164 194 209 61 q 142 338 142 256 q 233 583 142 513 q 334 617 278 617 q 500 479 456 617 q 519 338 519 416 q 422 87 519 152 q 331 61 381 61 m 336 690 q 100 552 178 690 q 50 338 50 463 q 186 24 50 106 q 328 -12 247 -12 q 568 134 495 -12 q 612 338 612 220 q 483 650 612 566 q 336 690 420 690 m 506 916 l 453 987 l 248 833 l 288 776 l 506 916 z "},"ô":{"ha":662,"x_min":50,"x_max":612,"o":"m 331 61 q 164 194 209 61 q 142 338 142 256 q 233 583 142 513 q 334 617 278 617 q 500 479 456 617 q 519 338 519 416 q 422 87 519 152 q 331 61 381 61 m 336 690 q 100 552 178 690 q 50 338 50 463 q 186 24 50 106 q 328 -12 247 -12 q 568 134 495 -12 q 612 338 612 220 q 483 650 612 566 q 336 690 420 690 m 342 975 l 157 823 l 198 773 l 338 879 l 479 772 l 522 826 l 342 975 z "},"ö":{"ha":662,"x_min":50,"x_max":612,"o":"m 331 61 q 164 194 209 61 q 142 338 142 256 q 233 583 142 513 q 334 617 278 617 q 500 479 456 617 q 519 338 519 416 q 422 87 519 152 q 331 61 381 61 m 336 690 q 100 552 178 690 q 50 338 50 463 q 186 24 50 106 q 328 -12 247 -12 q 568 134 495 -12 q 612 338 612 220 q 483 650 612 566 q 336 690 420 690 m 270 875 q 229 935 270 924 q 213 937 221 937 q 159 895 170 937 q 156 875 156 884 q 195 812 156 825 q 213 810 205 810 q 267 852 255 810 q 270 875 270 864 m 511 875 q 471 935 511 924 q 454 937 463 937 q 400 895 411 937 q 397 875 397 884 q 437 812 397 825 q 453 810 445 810 q 509 854 498 810 q 511 875 511 865 z "},"œ":{"ha":1074,"x_min":50,"x_max":1034,"o":"m 1020 45 l 993 107 q 822 62 901 62 q 636 195 685 62 q 613 326 614 252 l 1034 326 l 1034 359 q 789 690 1031 689 q 574 549 643 690 q 567 533 570 540 q 336 690 503 689 q 100 552 178 690 q 50 338 50 463 q 186 24 50 106 q 328 -12 247 -12 q 566 149 496 -11 q 783 -11 629 3 q 811 -12 798 -12 q 1020 45 914 -11 m 788 618 q 935 486 903 618 q 943 397 943 444 l 616 396 q 731 608 631 566 q 788 618 758 618 m 142 338 q 233 583 142 513 q 334 617 278 617 q 500 479 456 617 q 519 338 519 416 q 422 87 519 152 q 331 61 381 61 q 164 194 209 61 q 142 338 142 256 z "},"˛":{"ha":377,"x_min":84,"x_max":301,"o":"m 301 -260 l 297 -199 q 251 -205 275 -205 q 165 -153 182 -205 q 163 -132 163 -142 q 281 0 165 -57 l 194 5 q 84 -149 85 -64 q 174 -263 84 -239 q 229 -270 201 -270 q 301 -260 269 -270 z "},"ò":{"ha":662,"x_min":50,"x_max":612,"o":"m 331 61 q 164 194 209 61 q 142 338 142 256 q 233 583 142 513 q 334 617 278 617 q 500 479 456 617 q 519 338 519 416 q 422 87 519 152 q 331 61 381 61 m 336 690 q 100 552 178 690 q 50 338 50 463 q 186 24 50 106 q 328 -12 247 -12 q 568 134 495 -12 q 612 338 612 220 q 483 650 612 566 q 336 690 420 690 m 195 916 l 248 987 l 453 833 l 414 776 l 195 916 z "},"ő":{"ha":662,"x_min":50,"x_max":647,"o":"m 331 61 q 164 194 209 61 q 142 338 142 256 q 233 583 142 513 q 334 617 278 617 q 500 479 456 617 q 519 338 519 416 q 422 87 519 152 q 331 61 381 61 m 336 690 q 100 552 178 690 q 50 338 50 463 q 186 24 50 106 q 328 -12 247 -12 q 568 134 495 -12 q 612 338 612 220 q 483 650 612 566 q 336 690 420 690 m 406 929 l 349 993 l 160 826 l 202 776 l 406 929 m 647 929 l 590 993 l 401 826 l 444 776 l 647 929 z "},"ō":{"ha":662,"x_min":50,"x_max":612,"o":"m 331 61 q 164 194 209 61 q 142 338 142 256 q 233 583 142 513 q 334 617 278 617 q 500 479 456 617 q 519 338 519 416 q 422 87 519 152 q 331 61 381 61 m 336 690 q 100 552 178 690 q 50 338 50 463 q 186 24 50 106 q 328 -12 247 -12 q 568 134 495 -12 q 612 338 612 220 q 483 650 612 566 q 336 690 420 690 m 163 910 l 163 838 l 507 838 l 507 910 l 163 910 z "},"½":{"ha":1097,"x_min":16,"x_max":1051,"o":"m 290 -15 l 853 997 l 769 997 l 203 -14 l 290 -15 m 1051 0 l 1051 71 l 814 71 l 897 167 q 930 205 907 179 q 1032 340 1013 293 q 1043 395 1043 369 q 958 538 1043 491 q 863 562 913 562 q 694 477 755 562 q 688 468 690 472 l 745 434 q 854 496 788 495 q 949 444 922 496 q 962 393 962 420 q 897 266 962 340 q 864 231 886 255 q 844 209 850 216 l 690 39 l 690 0 l 1051 0 m 42 779 l 175 834 l 175 430 l 61 430 l 61 366 l 336 366 l 336 430 l 254 430 l 254 916 l 189 916 l 16 844 l 42 779 z "},"¼":{"ha":1069,"x_min":16,"x_max":1034,"o":"m 967 0 l 967 127 l 1034 127 l 1034 194 l 967 194 l 967 552 l 873 552 l 625 179 l 633 127 l 887 127 l 887 0 l 967 0 m 290 -15 l 853 997 l 769 997 l 203 -14 l 290 -15 m 42 779 l 175 834 l 175 430 l 61 430 l 61 366 l 336 366 l 336 430 l 254 430 l 254 916 l 189 916 l 16 844 l 42 779 m 887 194 l 713 194 l 887 461 l 887 194 z "},"¹":{"ha":430,"x_min":39,"x_max":359,"o":"m 65 779 l 198 834 l 198 430 l 84 430 l 84 366 l 359 366 l 359 430 l 277 430 l 277 916 l 212 916 l 39 844 l 65 779 z "},"ª":{"ha":448,"x_min":30,"x_max":430,"o":"m 395 412 q 430 416 412 412 l 427 475 l 412 475 q 370 521 374 475 q 370 536 370 528 l 370 776 q 275 918 370 887 q 213 928 245 928 q 46 880 129 926 l 75 823 q 202 864 148 864 q 292 795 278 864 q 293 772 293 784 l 293 709 q 239 712 274 712 q 46 627 92 712 q 30 563 30 597 q 113 425 30 458 q 176 412 142 412 q 301 476 254 412 q 308 487 305 483 q 395 412 323 414 m 191 476 q 111 548 119 476 q 110 566 110 557 q 191 654 110 637 q 236 658 212 658 q 293 655 275 658 l 293 589 q 229 484 293 511 q 191 476 210 476 z "},"º":{"ha":514,"x_min":49,"x_max":465,"o":"m 256 476 q 138 589 165 476 q 130 670 130 627 q 203 849 130 806 q 259 864 229 864 q 376 751 349 864 q 384 669 384 713 q 308 488 384 529 q 256 476 285 476 m 260 928 q 76 810 130 928 q 49 669 49 749 q 164 430 49 484 q 254 412 205 412 q 442 540 392 412 q 465 670 465 597 q 351 909 465 853 q 260 928 311 928 z "},"ø":{"ha":662,"x_min":50,"x_max":612,"o":"m 458 798 l 416 680 q 336 690 377 690 q 100 552 178 690 q 50 338 50 463 q 182 26 52 111 l 144 -80 l 206 -100 l 241 0 q 328 -12 283 -12 q 568 134 495 -12 q 612 338 612 220 q 488 647 612 560 q 476 655 481 651 l 519 777 l 458 798 m 142 338 q 233 583 142 513 q 334 617 278 617 q 391 608 366 617 l 212 110 q 142 338 142 187 m 331 61 q 269 72 298 61 l 446 572 q 519 338 519 500 q 422 87 519 152 q 331 61 381 61 z "},"õ":{"ha":662,"x_min":50,"x_max":612,"o":"m 331 61 q 164 194 209 61 q 142 338 142 256 q 233 583 142 513 q 334 617 278 617 q 500 479 456 617 q 519 338 519 416 q 422 87 519 152 q 331 61 381 61 m 336 690 q 100 552 178 690 q 50 338 50 463 q 186 24 50 106 q 328 -12 247 -12 q 568 134 495 -12 q 612 338 612 220 q 483 650 612 566 q 336 690 420 690 m 419 884 q 336 913 393 884 q 260 935 293 933 q 136 872 198 933 l 176 829 q 260 863 217 863 q 343 834 286 863 q 425 812 389 812 q 538 878 486 814 l 498 921 q 419 884 463 884 z "},"p":{"ha":670,"x_min":104,"x_max":614,"o":"m 321 61 q 194 95 258 62 l 194 395 q 279 593 194 536 q 357 617 316 617 q 488 529 441 617 q 522 370 522 465 q 423 95 522 171 q 321 61 378 61 m 193 -277 l 193 11 q 326 -12 258 -12 q 556 125 476 -12 q 614 372 614 225 q 507 646 614 560 q 376 690 449 690 q 191 578 258 689 l 189 678 l 106 678 l 104 -277 l 193 -277 z "},"¶":{"ha":643,"x_min":33,"x_max":534,"o":"m 365 0 l 365 916 l 260 916 q 60 812 118 914 q 33 709 33 765 q 237 505 33 526 q 278 502 258 502 l 278 0 l 365 0 m 534 0 l 534 916 l 448 916 l 448 0 l 534 0 z "},"(":{"ha":376,"x_min":103,"x_max":355,"o":"m 190 400 q 355 1000 191 726 l 282 1035 q 103 396 103 738 q 282 -237 104 53 l 355 -199 q 190 400 190 73 z "},")":{"ha":374,"x_min":24,"x_max":277,"o":"m 190 412 q 24 -187 189 87 l 98 -222 q 277 416 277 75 q 98 1050 275 760 l 24 1012 q 190 412 190 739 z "},"∂":{"ha":720,"x_min":77,"x_max":650,"o":"m 650 438 q 401 926 650 781 q 331 962 368 947 l 297 891 q 536 635 479 815 q 559 484 559 564 l 559 468 q 359 587 481 581 q 130 460 212 587 q 77 270 77 376 q 179 38 77 117 q 334 -12 245 -12 q 591 159 506 -12 q 650 438 650 275 m 171 275 q 275 490 171 433 q 363 511 317 511 q 505 433 456 511 q 538 304 538 378 q 438 92 538 155 q 342 64 393 64 q 199 149 245 64 q 171 275 171 202 z "},"%":{"ha":1112,"x_min":37,"x_max":1076,"o":"m 260 528 q 132 629 165 528 q 117 728 117 673 q 218 918 117 887 q 262 924 239 924 q 396 796 372 924 q 403 726 403 764 q 326 545 403 594 q 260 528 296 528 m 263 989 q 65 868 122 989 q 37 726 37 807 q 138 498 37 566 q 259 464 191 464 q 444 568 381 464 q 483 727 483 636 q 362 968 483 911 q 263 989 317 989 m 853 50 q 724 151 760 50 q 709 251 709 194 q 810 442 709 411 q 854 449 831 449 q 987 330 959 449 q 996 250 996 293 q 920 71 996 119 q 853 50 890 50 m 856 513 q 661 396 718 513 q 629 250 629 332 q 732 22 629 88 q 852 -12 784 -12 q 1036 94 975 -12 q 1076 251 1076 161 q 958 491 1076 431 q 856 513 913 513 m 316 -15 l 229 -14 l 795 997 l 879 997 l 316 -15 z "},".":{"ha":271,"x_min":71,"x_max":199,"o":"m 199 61 q 156 129 199 115 q 136 132 145 132 q 75 87 88 132 q 71 61 71 73 q 117 -8 71 4 q 136 -11 126 -11 q 197 35 183 -11 q 199 61 199 49 z "},"·":{"ha":278,"x_min":66,"x_max":212,"o":"m 138 302 q 205 347 187 302 q 212 382 212 363 q 161 456 212 441 q 138 460 149 460 q 72 416 91 460 q 66 382 66 400 q 117 305 66 321 q 138 302 127 302 z "},"‰":{"ha":1630,"x_min":37,"x_max":1600,"o":"m 1378 52 q 1249 152 1284 52 q 1234 252 1234 195 q 1333 442 1234 410 q 1379 449 1355 449 q 1514 324 1488 449 q 1520 250 1520 290 q 1446 72 1520 122 q 1378 52 1415 52 m 1379 513 q 1184 395 1241 513 q 1154 250 1154 332 q 1256 22 1154 90 q 1377 -12 1309 -12 q 1560 91 1496 -12 q 1600 251 1600 160 q 1477 492 1600 437 q 1379 513 1434 513 m 260 528 q 132 629 165 528 q 117 728 117 673 q 218 918 117 887 q 262 924 239 924 q 396 796 372 924 q 403 726 403 764 q 326 545 403 594 q 260 528 296 528 m 263 989 q 65 868 122 989 q 37 726 37 807 q 138 498 37 566 q 259 464 191 464 q 444 568 381 464 q 483 727 483 636 q 362 968 483 911 q 263 989 317 989 m 853 50 q 724 151 760 50 q 709 251 709 194 q 810 442 709 411 q 854 449 831 449 q 987 330 959 449 q 996 250 996 293 q 920 71 996 119 q 853 50 890 50 m 856 513 q 661 396 718 513 q 629 250 629 332 q 732 22 629 88 q 852 -12 784 -12 q 1036 94 975 -12 q 1076 251 1076 161 q 958 491 1076 431 q 856 513 913 513 m 316 -15 l 229 -14 l 795 997 l 879 997 l 316 -15 z "},"π":{"ha":735,"x_min":46,"x_max":720,"o":"m 688 608 l 688 678 l 46 678 l 46 608 l 138 608 l 138 0 l 227 0 l 225 608 l 507 608 l 507 130 q 591 -7 507 19 q 635 -12 613 -12 q 720 5 673 -12 l 701 72 q 652 61 675 61 q 595 140 597 64 l 595 608 l 688 608 z "},"+":{"ha":631,"x_min":39,"x_max":593,"o":"m 593 313 l 593 389 l 359 389 l 359 618 l 273 618 l 273 389 l 39 389 l 39 313 l 273 313 l 273 84 l 359 84 l 359 313 l 593 313 z "},"±":{"ha":661,"x_min":53,"x_max":608,"o":"m 608 26 l 608 103 l 53 103 l 53 26 l 608 26 m 608 391 l 608 468 l 374 468 l 374 674 l 288 674 l 288 468 l 53 468 l 53 391 l 288 391 l 288 184 l 374 184 l 374 391 l 608 391 z "},"∏":{"ha":857,"x_min":180,"x_max":730,"o":"m 629 841 l 553 853 l 556 597 l 471 597 l 469 572 l 519 -237 l 560 52 l 556 597 l 730 597 l 730 849 l 629 841 m 180 85 l 384 85 l 384 597 l 471 597 l 479 849 l 384 846 l 384 853 l 365 845 l 315 844 l 251 849 l 251 842 l 214 841 l 180 853 l 180 85 z "},"q":{"ha":661,"x_min":49,"x_max":557,"o":"m 49 307 q 157 33 49 117 q 288 -12 214 -12 q 468 95 403 -11 l 469 -305 l 557 -305 l 557 633 q 335 690 457 690 q 109 555 187 690 q 49 307 49 453 m 469 585 l 469 283 q 382 84 469 140 q 305 61 346 61 q 172 152 218 61 q 141 308 141 216 q 240 585 141 510 q 340 617 285 617 q 469 585 403 617 z "},"?":{"ha":600,"x_min":28,"x_max":518,"o":"m 209 214 q 201 271 201 254 q 292 433 201 355 q 349 476 311 448 q 479 597 445 548 q 518 726 518 654 q 411 936 518 863 q 262 981 343 981 q 62 887 140 981 q 28 836 42 863 l 106 803 q 239 901 145 891 q 256 902 248 902 q 391 833 342 902 q 425 723 425 785 q 339 566 425 635 q 285 526 323 552 q 161 415 194 463 q 119 271 119 353 q 129 205 119 239 l 209 214 m 244 61 q 201 129 244 115 q 180 132 190 132 q 119 87 133 132 q 115 61 115 73 q 161 -8 115 4 q 180 -11 171 -11 q 241 35 228 -11 q 244 61 244 49 z "},"¿":{"ha":600,"x_min":81,"x_max":571,"o":"m 391 467 q 399 410 399 427 q 308 248 399 326 q 251 205 289 233 q 121 84 155 133 q 81 -45 81 26 q 189 -255 81 -182 q 338 -300 256 -300 q 537 -206 460 -300 q 571 -155 557 -182 l 494 -122 q 361 -220 454 -210 q 343 -221 351 -221 q 209 -152 258 -221 q 175 -42 175 -104 q 260 115 175 46 q 315 155 277 129 q 438 266 406 218 q 480 410 480 328 q 471 476 480 442 l 391 467 m 355 620 q 399 552 355 566 q 419 549 410 549 q 480 594 467 549 q 484 620 484 606 q 438 689 484 677 q 419 692 429 692 q 358 646 372 692 q 355 620 355 633 z "},"\"":{"ha":400,"x_min":60,"x_max":342,"o":"m 155 989 l 60 989 l 76 708 l 138 708 l 155 989 m 342 989 l 247 989 l 263 708 l 326 708 l 342 989 z "},"„":{"ha":442,"x_min":42,"x_max":377,"o":"m 376 52 q 327 129 376 114 q 307 133 316 133 q 244 88 259 133 q 240 58 240 73 q 289 -8 241 7 q 229 -144 281 -65 l 263 -170 q 345 -60 313 -121 q 376 52 376 1 m 190 52 q 141 129 190 114 q 121 133 130 133 q 58 88 73 133 q 54 58 54 75 q 103 -8 56 7 q 43 -144 95 -65 l 77 -170 q 123 -117 103 -145 q 159 -60 144 -88 q 182 -2 174 -31 q 190 52 190 27 z "},"“":{"ha":434,"x_min":65,"x_max":397,"o":"m 66 781 q 115 704 66 719 q 136 700 126 700 q 198 745 183 700 q 202 774 202 760 q 153 841 201 826 q 213 977 161 898 l 179 1002 q 71 819 91 917 q 66 781 66 799 m 250 781 q 298 704 250 719 q 319 700 309 700 q 381 745 366 700 q 385 774 385 760 q 336 841 384 826 q 396 977 345 898 l 362 1002 q 254 819 274 917 q 250 781 250 799 z "},"”":{"ha":460,"x_min":64,"x_max":396,"o":"m 395 903 q 346 981 395 966 q 326 985 335 985 q 263 940 278 985 q 259 910 259 925 q 308 844 260 859 q 248 708 300 787 l 282 682 q 391 865 370 768 q 395 903 395 886 m 212 903 q 163 981 212 966 q 142 985 152 985 q 80 940 95 985 q 76 910 76 925 q 125 844 77 859 q 65 708 117 787 l 99 682 q 208 865 187 768 q 212 903 212 886 z "},"‘":{"ha":245,"x_min":65,"x_max":214,"o":"m 66 781 q 115 704 66 719 q 136 700 126 700 q 198 745 183 700 q 202 774 202 760 q 153 841 201 826 q 213 977 161 898 l 179 1002 q 71 819 91 917 q 66 781 66 799 z "},"’":{"ha":255,"x_min":45,"x_max":194,"o":"m 193 903 q 144 981 193 966 q 123 985 133 985 q 61 940 76 985 q 57 910 57 925 q 106 844 58 859 q 46 708 98 787 l 80 682 q 189 865 168 768 q 193 903 193 886 z "},"‚":{"ha":256,"x_min":41,"x_max":190,"o":"m 189 52 q 140 129 189 114 q 119 133 129 133 q 57 88 72 133 q 53 58 53 75 q 102 -8 54 7 q 42 -144 94 -65 l 76 -170 q 122 -117 102 -145 q 157 -60 142 -88 q 180 -2 172 -31 q 189 52 189 27 z "},"'":{"ha":212,"x_min":58,"x_max":153,"o":"m 153 989 l 58 989 l 75 708 l 137 708 l 153 989 z "},"r":{"ha":407,"x_min":104,"x_max":408,"o":"m 193 0 l 193 388 q 266 581 193 521 q 346 609 302 609 q 397 601 372 609 l 408 685 q 365 690 388 690 q 195 576 252 690 q 190 564 193 570 l 187 680 l 104 680 l 104 0 l 193 0 z "},"ŕ":{"ha":407,"x_min":104,"x_max":408,"o":"m 193 0 l 193 388 q 266 581 193 521 q 346 609 302 609 q 397 601 372 609 l 408 685 q 365 690 388 690 q 195 576 252 690 q 190 564 193 570 l 187 680 l 104 680 l 104 0 l 193 0 m 373 916 l 320 987 l 115 833 l 155 776 l 373 916 z "},"√":{"ha":863,"x_min":0,"x_max":863,"o":"m 401 -163 l 682 929 l 863 929 l 863 1002 l 613 1002 l 363 -27 l 167 525 l 0 464 l 23 395 l 111 427 l 324 -163 l 401 -163 z "},"ř":{"ha":430,"x_min":45,"x_max":410,"o":"m 193 0 l 193 388 q 266 581 193 521 q 346 609 302 609 q 397 601 372 609 l 408 685 q 365 690 388 690 q 195 576 252 690 q 190 564 193 570 l 187 680 l 104 680 l 104 0 l 193 0 m 225 772 l 410 925 l 370 974 l 231 867 l 87 977 l 45 924 l 225 772 z "},"®":{"ha":1038,"x_min":57,"x_max":978,"o":"m 423 156 l 423 416 l 506 416 l 522 416 l 632 195 q 703 148 655 149 q 734 151 723 148 l 731 198 l 724 198 q 694 221 705 201 l 590 427 q 715 579 704 461 q 716 602 716 591 q 505 769 713 768 q 351 766 396 769 l 351 156 l 423 156 m 500 711 q 642 595 635 699 q 543 477 642 495 q 502 473 522 473 l 423 473 l 423 709 q 464 711 437 709 q 500 711 490 711 m 978 468 q 837 812 978 678 q 521 936 707 936 q 191 803 323 936 q 57 465 57 669 q 201 115 57 250 q 517 -5 331 -5 q 844 126 712 -7 q 978 468 978 262 m 138 467 q 266 777 138 661 q 518 871 370 871 q 798 747 688 871 q 898 465 897 633 q 770 155 898 270 q 519 60 666 60 q 237 184 347 60 q 138 467 138 298 z "},"˚":{"ha":528,"x_min":129,"x_max":399,"o":"m 399 882 q 321 1009 399 977 q 266 1020 294 1020 q 149 959 189 1020 q 129 880 129 924 q 206 753 129 785 q 262 742 233 742 q 377 802 338 742 q 399 882 399 837 m 190 880 q 240 960 190 944 q 263 964 252 964 q 330 920 311 964 q 338 880 338 902 q 288 802 338 818 q 264 798 275 798 q 198 841 218 798 q 190 880 190 860 z "},"s":{"ha":522,"x_min":46,"x_max":468,"o":"m 464 179 q 359 345 464 282 q 290 380 338 358 q 176 457 201 425 q 156 517 156 484 q 224 612 156 586 q 271 620 247 620 q 396 560 353 620 q 403 548 400 553 l 468 583 q 298 689 418 678 q 273 690 286 690 q 107 623 168 690 q 68 515 68 576 q 171 351 68 414 q 239 316 193 339 q 354 240 330 273 q 376 176 376 212 q 305 69 376 98 q 251 60 279 60 q 81 117 165 61 l 46 57 q 252 -12 138 -12 q 423 62 362 -12 q 464 179 464 111 z "},"ś":{"ha":522,"x_min":46,"x_max":468,"o":"m 464 179 q 359 345 464 282 q 290 380 338 358 q 176 457 201 425 q 156 517 156 484 q 224 612 156 586 q 271 620 247 620 q 396 560 353 620 q 403 548 400 553 l 468 583 q 298 689 418 678 q 273 690 286 690 q 107 623 168 690 q 68 515 68 576 q 171 351 68 414 q 239 316 193 339 q 354 240 330 273 q 376 176 376 212 q 305 69 376 98 q 251 60 279 60 q 81 117 165 61 l 46 57 q 252 -12 138 -12 q 423 62 362 -12 q 464 179 464 111 m 420 916 l 368 987 l 163 833 l 202 776 l 420 916 z "},"š":{"ha":547,"x_min":46,"x_max":477,"o":"m 464 179 q 359 345 464 282 q 290 380 338 358 q 176 457 201 425 q 156 517 156 484 q 224 612 156 586 q 271 620 247 620 q 396 560 353 620 q 403 548 400 553 l 468 583 q 298 689 418 678 q 273 690 286 690 q 107 623 168 690 q 68 515 68 576 q 171 351 68 414 q 239 316 193 339 q 354 240 330 273 q 376 176 376 212 q 305 69 376 98 q 251 60 279 60 q 81 117 165 61 l 46 57 q 252 -12 138 -12 q 423 62 362 -12 q 464 179 464 111 m 293 772 l 477 925 l 438 974 l 298 867 l 155 977 l 113 924 l 293 772 z "},"§":{"ha":532,"x_min":60,"x_max":473,"o":"m 145 496 q 175 574 146 543 q 281 487 184 566 q 382 354 370 415 q 385 327 385 340 q 365 251 384 283 q 252 342 347 269 q 149 465 163 411 q 145 496 145 481 m 473 338 q 363 536 473 441 q 305 583 345 552 q 193 690 216 652 q 174 754 174 723 q 243 849 174 826 q 289 857 266 857 q 388 822 350 854 l 435 875 q 289 928 374 928 q 123 857 182 928 q 85 751 85 812 q 132 620 87 681 q 60 486 61 572 q 167 294 60 384 q 225 250 186 279 q 338 144 313 183 q 357 79 357 111 q 286 -28 357 0 q 233 -38 262 -38 q 109 -3 176 -37 l 79 -69 q 233 -110 156 -110 q 411 -28 353 -110 q 445 84 445 19 q 410 198 444 145 q 473 338 472 250 z "},";":{"ha":296,"x_min":71,"x_max":214,"o":"m 214 53 q 168 129 214 114 q 148 132 157 132 q 85 87 102 132 q 81 61 81 75 q 130 -5 84 9 q 71 -137 123 -60 l 106 -164 q 212 20 194 -79 q 214 53 214 38 m 210 446 q 167 514 210 500 q 146 517 156 517 q 85 472 99 517 q 81 446 81 458 q 127 377 81 389 q 146 374 137 374 q 208 420 194 374 q 210 446 210 434 z "},"අ":{"ha":746,"x_min":41,"x_max":705,"o":"m 555 490 q 507 499 532 490 l 507 537 q 578 699 511 633 q 612 724 595 716 q 609 697 609 715 q 631 604 609 681 q 637 560 637 575 q 555 490 635 491 m 431 -278 l 507 -278 l 507 28 q 689 152 604 62 l 640 209 q 507 111 570 138 l 507 435 q 568 425 536 425 q 700 513 677 425 q 705 553 705 533 q 681 663 705 581 q 670 719 670 699 q 693 770 671 755 l 666 818 q 499 719 568 803 q 486 700 491 708 q 340 803 445 795 q 326 803 332 803 q 186 731 232 803 q 160 637 160 690 q 191 533 160 576 q 53 369 87 483 q 41 289 41 330 q 159 56 41 136 q 351 3 239 3 q 430 9 391 3 l 431 -278 m 228 635 q 288 726 228 703 q 326 732 305 732 q 425 665 400 732 q 433 609 433 639 q 427 560 433 586 q 316 562 396 562 q 255 555 286 562 q 228 635 228 589 m 351 81 q 151 178 212 81 q 119 289 119 227 q 195 446 119 388 q 316 486 248 486 l 429 486 l 430 88 q 351 81 391 81 z "},"ආ":{"ha":1059,"x_min":41,"x_max":1031,"o":"m 555 483 q 507 492 532 483 l 507 530 q 578 692 513 628 q 612 718 595 709 q 609 690 609 708 q 631 597 609 674 q 637 553 637 568 q 555 483 635 484 m 431 -285 l 507 -285 l 507 22 q 689 145 604 56 l 640 202 q 507 104 570 132 l 507 429 q 568 418 537 418 q 700 506 677 418 q 705 547 705 526 q 681 656 705 574 q 670 712 670 692 q 693 764 671 749 l 666 811 q 499 712 568 796 q 486 693 491 701 q 340 796 445 788 q 326 796 332 796 q 186 724 232 796 q 160 631 160 684 q 191 526 160 570 q 53 362 87 476 q 41 282 41 323 q 159 49 41 129 q 351 -4 239 -4 q 430 3 391 -4 l 431 -285 m 228 628 q 288 719 228 696 q 326 726 305 726 q 425 658 400 726 q 434 602 434 632 q 433 593 434 598 q 433 585 433 589 q 431 576 433 582 q 430 568 430 570 q 429 560 430 567 l 427 553 q 316 555 396 555 q 255 548 286 555 q 228 628 228 586 m 351 75 q 151 171 212 75 q 119 282 119 220 q 195 439 119 381 q 316 479 248 479 l 429 479 l 430 81 q 351 75 391 75 m 746 707 l 779 646 q 831 670 799 669 q 945 488 924 670 q 951 382 951 439 q 856 99 951 129 q 831 95 844 95 q 779 119 799 96 l 746 58 q 836 16 779 16 q 994 149 943 16 q 1031 382 1031 243 q 921 720 1031 640 q 836 749 882 749 q 746 707 777 747 z "},"ඈ":{"ha":1128,"x_min":41,"x_max":1100,"o":"m 555 490 q 507 499 532 490 l 507 537 q 578 699 511 633 q 612 724 595 716 q 609 697 609 715 q 631 604 609 681 q 637 560 637 575 q 555 490 635 491 m 431 -278 l 507 -278 l 507 28 q 689 152 604 62 l 640 209 q 507 111 570 138 l 507 435 q 568 425 536 425 q 700 513 677 425 q 705 553 705 533 q 681 663 705 581 q 670 719 670 699 q 693 770 671 755 l 666 818 q 499 719 568 803 q 486 700 491 708 q 340 803 445 795 q 326 803 332 803 q 186 731 232 803 q 160 637 160 690 q 191 533 160 576 q 53 369 87 483 q 41 289 41 330 q 159 56 41 136 q 351 3 239 3 q 430 9 391 3 l 431 -278 m 228 635 q 288 726 228 703 q 326 732 305 732 q 425 665 400 732 q 433 609 433 639 q 427 560 433 586 q 316 562 396 562 q 255 555 286 562 q 228 635 228 589 m 351 81 q 151 178 212 81 q 119 289 119 227 q 195 446 119 388 q 316 486 248 486 l 429 486 l 430 88 q 351 81 391 81 m 727 214 q 834 16 727 60 q 911 3 869 3 q 1096 179 1070 3 q 1100 240 1100 209 l 1027 240 q 958 88 1027 121 q 911 79 936 79 q 803 179 818 79 q 800 214 800 197 q 887 381 800 307 q 1009 435 951 434 l 1017 435 l 1017 505 l 846 505 l 1017 666 l 1017 738 l 749 738 l 749 663 l 910 663 l 749 505 l 749 435 l 844 435 q 728 240 741 355 q 727 214 727 227 z "},"ඇ":{"ha":1108,"x_min":41,"x_max":1090,"o":"m 555 490 q 507 499 532 490 l 507 537 q 578 699 511 633 q 612 724 595 716 q 609 697 609 715 q 631 604 609 681 q 637 560 637 575 q 555 490 635 491 m 431 -278 l 507 -278 l 507 28 q 689 152 604 62 l 640 209 q 507 111 570 138 l 507 435 q 568 425 536 425 q 700 513 677 425 q 705 553 705 533 q 681 663 705 581 q 670 719 670 699 q 693 770 671 755 l 666 818 q 499 719 568 803 q 486 700 491 708 q 340 803 445 795 q 326 803 332 803 q 186 731 232 803 q 160 637 160 690 q 191 533 160 576 q 53 369 87 483 q 41 289 41 330 q 159 56 41 136 q 351 3 239 3 q 430 9 391 3 l 431 -278 m 228 635 q 288 726 228 703 q 326 732 305 732 q 425 665 400 732 q 433 609 433 639 q 427 560 433 586 q 316 562 396 562 q 255 555 286 562 q 228 635 228 589 m 351 81 q 151 178 212 81 q 119 289 119 227 q 195 446 119 388 q 316 486 248 486 l 429 486 l 430 88 q 351 81 391 81 m 709 218 q 811 22 709 72 q 903 3 852 3 q 1086 179 1062 3 q 1090 240 1090 208 l 1019 240 q 959 96 1019 134 q 905 81 936 81 q 789 180 807 81 q 787 218 787 198 q 863 418 787 301 q 1032 658 871 430 q 1039 666 1036 662 l 1039 738 l 769 738 l 769 663 l 945 663 q 788 441 800 460 q 709 218 709 317 z "},"ඓ":{"ha":1291,"x_min":34,"x_max":1271,"o":"m 320 362 q 365 435 320 412 q 401 445 382 445 q 473 399 452 445 q 483 362 483 381 q 439 290 483 313 q 401 281 420 281 q 330 326 353 281 q 320 362 320 343 m 251 365 q 317 240 251 286 q 327 235 323 237 q 397 216 361 216 q 503 274 469 216 q 505 277 505 275 q 418 102 502 151 q 327 79 378 79 q 144 208 201 79 q 111 380 111 282 q 199 636 111 538 q 351 707 264 705 q 502 633 435 707 q 511 623 507 628 l 568 670 q 351 783 481 781 q 113 650 205 783 q 34 380 34 536 q 155 61 34 160 q 327 3 227 3 q 543 136 479 3 q 574 281 574 202 q 480 496 574 442 q 403 517 445 517 q 278 452 324 517 q 251 365 251 411 m 1120 724 q 1008 779 1040 724 q 997 819 997 799 q 1029 917 997 857 q 1044 949 1042 939 q 1157 728 1122 861 q 1120 724 1139 724 m 924 817 q 998 690 924 739 q 1124 654 1054 654 q 1173 658 1147 654 q 1192 464 1192 555 q 1044 111 1192 193 q 922 83 991 83 q 709 210 754 83 q 696 285 696 245 q 761 441 696 393 q 823 463 789 463 l 990 463 q 996 517 996 486 q 899 694 996 647 q 818 713 861 713 q 684 644 724 713 q 663 566 663 609 q 669 529 663 545 l 604 529 l 604 463 l 689 463 q 620 278 621 397 q 709 71 620 146 q 922 3 788 3 q 1230 214 1147 3 q 1271 463 1271 319 q 1153 920 1271 716 q 1001 1096 1088 1032 l 958 1044 q 966 1039 960 1042 q 972 1032 970 1034 q 989 997 989 1015 q 959 929 989 981 q 924 817 924 868 m 730 564 q 792 644 730 629 q 818 647 804 647 q 918 575 894 647 q 926 528 925 553 l 738 529 q 730 564 730 547 z "},"ඖ":{"ha":1202,"x_min":41,"x_max":1161,"o":"m 41 342 q 216 3 53 15 q 373 142 340 4 q 494 5 396 26 q 529 3 511 3 q 713 183 677 3 q 727 397 727 258 q 511 986 727 882 q 357 1019 444 1019 q 146 932 235 1019 q 83 837 103 888 l 157 810 q 274 922 187 887 q 357 939 316 939 q 624 674 566 939 q 648 397 648 560 q 605 125 648 189 q 529 83 576 84 q 411 267 423 83 q 408 315 410 289 l 339 315 q 277 102 332 144 q 218 83 251 83 q 117 331 118 83 q 117 346 117 339 q 176 621 117 559 q 216 640 194 640 q 273 582 266 640 q 274 566 274 574 q 271 530 274 552 q 270 503 270 513 q 357 380 270 395 q 384 377 370 377 q 502 547 502 378 q 426 704 502 675 q 387 711 407 711 q 308 671 335 709 q 213 712 273 712 q 50 486 84 712 q 41 342 41 419 m 340 582 q 338 608 340 593 q 385 646 351 644 q 435 547 435 644 q 387 449 434 450 q 338 514 338 450 q 339 553 338 525 q 340 582 340 575 m 773 479 q 884 331 776 332 q 960 389 948 331 q 964 418 962 399 q 991 479 971 469 q 1010 483 1000 483 q 1086 301 1086 481 q 982 75 1085 76 q 964 76 972 75 q 950 79 956 77 q 939 85 944 81 q 930 91 933 88 q 922 98 926 94 q 916 105 918 103 q 911 113 914 107 l 907 118 l 854 79 q 913 19 883 35 q 989 3 947 3 q 1161 301 1160 5 q 1047 555 1161 525 q 1013 559 1031 559 q 941 534 966 559 q 915 480 917 510 q 907 426 913 450 q 887 401 902 401 q 841 484 841 403 q 913 623 841 605 q 948 627 929 627 l 948 692 q 788 595 822 692 q 773 479 773 551 z "},"බ":{"ha":761,"x_min":41,"x_max":720,"o":"m 41 298 q 216 3 42 4 q 331 71 290 4 q 487 3 381 3 q 720 397 720 5 q 505 986 720 882 q 350 1019 437 1019 q 140 932 228 1019 q 76 837 96 888 l 151 810 q 267 922 180 887 q 350 939 309 939 q 617 674 559 939 q 642 397 642 560 q 486 81 640 83 q 378 156 401 81 q 373 201 373 176 q 414 317 373 254 q 463 431 457 385 q 464 458 464 445 q 269 661 461 659 q 53 446 96 661 q 41 298 41 381 m 216 80 q 118 298 118 83 q 248 581 118 560 q 267 582 258 582 q 387 458 385 579 q 346 343 387 408 q 297 224 302 275 q 296 201 296 213 q 300 149 296 174 q 216 80 271 83 z "},"භ":{"ha":895,"x_min":41,"x_max":854,"o":"m 618 79 q 526 133 559 80 q 543 218 543 176 q 467 358 543 331 q 439 363 453 362 q 464 495 458 410 q 541 697 469 659 q 606 712 570 712 q 774 494 750 712 q 779 396 779 449 q 618 79 777 80 m 319 330 l 353 273 q 384 292 370 281 q 416 301 401 301 q 465 218 463 294 q 396 99 465 134 q 312 81 359 81 q 155 180 199 81 q 134 283 134 227 q 142 358 134 320 q 264 481 171 480 l 392 481 q 319 330 380 366 m 57 277 q 160 49 57 123 q 312 3 224 3 q 483 66 422 4 q 618 3 534 4 q 854 396 853 5 q 632 788 854 770 q 606 789 618 789 q 434 697 486 788 q 286 802 393 791 q 264 803 275 803 q 123 731 171 803 q 98 635 98 689 q 117 551 98 590 l 41 551 l 41 481 l 118 481 q 66 366 81 446 q 57 277 57 321 m 168 631 q 229 723 168 701 q 266 730 247 730 q 374 661 349 730 q 382 608 382 636 q 381 576 382 597 q 381 551 381 557 l 191 551 q 168 631 168 583 z "},"ච":{"ha":713,"x_min":41,"x_max":673,"o":"m 57 278 q 141 71 57 146 q 340 3 216 3 q 652 279 590 3 q 673 480 673 369 q 336 1019 671 1017 q 137 935 218 1019 q 76 837 98 892 l 151 810 q 269 926 183 897 q 336 939 302 939 q 590 556 570 939 q 591 480 591 519 q 404 91 591 141 q 340 83 374 83 q 145 208 189 83 q 133 285 133 245 q 198 441 133 393 q 260 463 227 463 l 427 463 q 433 517 433 486 q 336 694 433 647 q 255 713 298 713 q 121 644 161 713 q 100 566 100 609 q 106 529 100 545 l 41 529 l 41 463 l 126 463 q 57 278 58 397 m 167 564 q 229 644 167 629 q 255 647 241 647 q 355 575 331 647 q 363 528 362 553 l 175 529 q 167 564 167 547 z "},"ඡ":{"ha":803,"x_min":41,"x_max":780,"o":"m 515 551 l 426 551 q 425 608 425 568 q 500 728 425 707 q 533 732 517 732 q 636 648 605 732 q 650 570 650 610 q 646 513 650 540 q 515 551 593 551 m 498 330 q 430 384 441 330 q 427 404 427 395 q 471 477 429 458 l 514 477 q 624 431 582 476 q 498 330 576 331 m 118 304 q 194 460 118 418 q 269 477 228 477 l 384 477 q 358 399 358 445 q 419 285 358 321 q 496 264 453 264 q 659 354 600 266 q 665 304 665 331 q 549 106 665 170 q 391 69 481 69 q 160 168 235 69 q 118 304 118 227 m 41 304 q 174 47 41 134 q 391 -11 264 -11 q 674 104 576 -11 q 742 304 742 187 q 703 452 741 389 q 718 571 718 510 q 633 773 716 715 q 774 1001 754 902 q 780 1054 780 1027 l 703 1054 q 620 865 703 966 q 562 802 595 837 q 534 803 552 803 q 391 731 441 802 q 248 803 342 802 q 109 731 156 803 q 81 636 81 690 q 129 507 83 562 q 41 304 41 438 m 149 635 q 210 726 149 704 q 250 732 229 732 q 347 665 323 732 q 357 608 357 640 l 357 551 l 266 551 q 187 538 221 551 q 149 635 149 579 z "},"ද":{"ha":571,"x_min":41,"x_max":614,"o":"m 41 289 q 153 56 41 138 q 250 11 197 24 q 228 -77 228 -28 q 302 -228 228 -174 q 416 -264 353 -264 q 614 -144 541 -263 l 556 -102 q 416 -190 503 -189 q 317 -129 349 -190 q 304 -72 304 -103 q 326 3 305 -27 q 532 106 452 4 q 547 125 540 115 l 484 171 q 319 85 425 87 q 161 160 220 85 q 119 289 119 214 q 194 445 119 387 q 315 486 245 486 l 483 486 q 503 606 503 548 q 406 785 503 739 q 326 803 368 803 q 186 732 233 803 q 159 637 159 692 q 191 534 159 578 q 52 368 85 483 q 41 289 41 328 m 228 635 q 288 726 228 703 q 326 732 305 732 q 425 665 400 732 q 433 609 433 639 q 427 560 433 586 q 315 562 396 562 q 255 556 292 562 q 228 635 228 587 z "},"ඩ":{"ha":770,"x_min":41,"x_max":730,"o":"m 43 248 q 151 16 43 62 q 218 3 182 3 q 369 121 334 3 q 374 142 372 132 q 484 9 396 34 q 532 3 507 3 q 716 183 680 3 q 730 397 730 258 q 514 986 730 882 q 359 1019 446 1019 q 149 933 237 1019 q 85 837 106 890 l 160 810 q 278 922 191 888 q 359 939 319 939 q 624 684 564 939 q 650 397 650 568 q 606 123 650 187 q 532 83 578 84 q 414 267 426 83 q 411 315 412 289 l 340 315 q 270 95 335 133 q 221 83 247 83 q 119 248 123 96 q 186 441 119 391 q 251 463 214 463 l 441 463 q 446 517 446 486 q 350 694 446 647 q 269 713 312 713 q 134 644 175 713 q 114 566 114 609 q 119 529 114 545 l 41 529 l 41 463 l 106 463 q 45 292 57 416 q 43 248 43 270 m 182 564 q 244 644 182 631 q 269 647 255 647 q 369 575 345 647 q 377 528 376 553 l 189 529 q 182 564 182 545 z "},"ඪ":{"ha":760,"x_min":30,"x_max":727,"o":"m 571 724 q 460 780 490 724 q 449 819 449 799 q 481 916 449 857 q 495 948 492 937 q 600 727 567 861 q 571 724 578 724 m 374 817 q 449 690 374 739 q 576 654 505 654 q 616 658 597 654 q 647 358 647 513 q 593 111 647 165 q 521 83 564 83 q 403 267 415 83 q 400 315 401 289 l 330 315 q 259 95 324 134 q 209 83 236 83 q 109 231 115 83 q 109 248 109 240 q 175 441 109 391 q 240 463 203 463 l 430 463 q 435 517 435 486 q 339 694 435 647 q 258 713 301 713 q 123 644 164 713 q 103 566 103 609 q 109 529 103 545 l 30 529 l 30 463 l 95 463 q 34 292 46 416 q 33 248 33 270 q 140 16 33 62 q 208 3 171 3 q 358 121 323 3 q 363 142 361 132 q 488 5 388 23 q 521 3 503 3 q 715 180 680 3 q 727 358 727 244 q 585 954 727 728 q 453 1096 526 1043 l 410 1044 q 420 1035 415 1040 q 439 997 439 1017 q 410 929 439 981 q 374 817 374 868 m 170 564 q 232 644 170 629 q 258 647 244 647 q 358 575 334 647 q 366 528 365 553 l 176 529 q 170 564 170 545 z "},"ධ":{"ha":772,"x_min":41,"x_max":732,"o":"m 41 297 q 75 473 41 401 q 209 609 119 582 q 255 616 232 616 q 343 591 300 614 l 313 522 q 259 536 285 536 q 148 448 190 536 q 144 439 145 444 q 118 296 118 376 q 183 94 118 136 q 222 83 202 83 q 339 252 323 83 q 343 315 342 278 l 412 315 q 491 91 418 125 q 533 83 511 83 q 650 279 635 83 q 652 397 652 326 q 471 917 652 833 q 361 939 422 939 q 201 869 267 939 q 163 810 175 842 l 88 837 q 235 990 126 940 q 361 1019 297 1019 q 701 711 628 1019 q 732 397 732 582 q 692 99 732 183 q 533 3 643 4 q 381 125 415 3 q 377 142 378 134 q 269 9 355 34 q 221 3 247 3 q 52 178 90 3 q 41 297 41 233 z "},"එ":{"ha":728,"x_min":41,"x_max":708,"o":"m 557 724 q 445 779 477 724 q 434 819 434 798 q 467 917 434 857 q 481 949 479 939 q 594 728 559 861 q 557 724 576 724 m 361 817 q 435 690 361 739 q 562 654 491 654 q 610 658 585 654 q 629 464 629 555 q 481 111 629 193 q 359 83 429 83 q 146 210 191 83 q 133 285 133 245 q 198 441 133 393 q 260 463 227 463 l 427 463 q 433 517 433 486 q 336 694 433 647 q 255 713 298 713 q 121 644 161 713 q 100 566 100 609 q 106 529 100 545 l 41 529 l 41 463 l 126 463 q 57 278 58 397 q 146 71 57 146 q 359 3 225 3 q 667 214 585 3 q 708 463 708 319 q 590 920 708 716 q 438 1096 525 1032 l 395 1044 q 401 1039 397 1042 q 410 1032 407 1034 q 426 997 426 1015 q 396 929 426 981 q 361 817 361 868 m 167 564 q 229 644 167 629 q 255 647 241 647 q 355 575 331 647 q 363 528 362 553 l 175 529 q 167 564 167 547 z "},"ඒ":{"ha":728,"x_min":41,"x_max":842,"o":"m 700 921 q 674 924 688 921 l 674 1109 l 678 1109 q 776 1039 765 1109 q 777 1016 777 1028 q 700 921 770 926 m 612 1172 q 614 945 612 1171 q 617 834 614 894 q 566 947 601 888 q 438 1096 510 1036 l 395 1044 q 401 1039 397 1042 q 410 1032 407 1034 q 426 997 426 1015 q 396 929 426 981 q 361 817 361 868 q 435 690 361 739 q 562 654 491 654 q 610 658 585 654 q 629 464 629 567 q 481 111 629 193 q 359 83 429 83 q 146 210 191 83 q 133 285 133 245 q 198 441 133 393 q 260 463 227 463 l 427 463 q 433 517 433 486 q 336 694 433 647 q 255 713 298 713 q 121 644 161 713 q 100 566 100 609 q 106 529 100 545 l 41 529 l 41 463 l 126 463 q 57 278 58 397 q 146 71 57 146 q 359 3 225 3 q 667 214 585 3 q 708 463 708 319 q 680 693 708 574 l 680 857 q 703 856 689 856 q 829 937 795 856 q 842 1016 842 972 q 680 1172 838 1171 l 612 1172 m 557 724 q 445 779 477 724 q 434 819 434 798 q 467 917 434 857 q 481 949 479 939 q 594 728 559 861 q 557 724 576 724 m 167 564 q 229 644 167 629 q 255 647 241 647 q 355 575 331 647 q 363 528 362 553 l 175 529 q 167 564 167 547 z "},"ෆ":{"ha":781,"x_min":41,"x_max":742,"o":"m 41 397 q 127 764 41 682 q 235 803 171 803 q 392 663 359 802 q 500 796 414 772 q 548 803 524 803 q 730 589 697 803 q 742 397 742 513 q 460 3 739 4 l 460 83 q 666 397 666 85 q 548 723 665 722 q 429 538 441 723 q 426 492 427 517 l 358 492 q 297 703 351 659 q 235 723 270 723 q 118 397 118 722 q 323 83 121 84 l 323 3 q 41 397 42 5 z "},"ග":{"ha":871,"x_min":41,"x_max":831,"o":"m 307 384 l 335 324 q 385 353 365 336 q 444 274 430 339 q 446 240 446 256 q 378 100 446 141 q 300 80 345 80 q 118 380 119 83 q 277 713 119 712 q 376 648 346 713 q 384 624 381 636 q 373 548 373 586 q 373 533 373 544 q 374 510 374 518 q 307 384 373 419 m 595 80 q 500 134 533 81 q 521 241 521 186 q 463 388 521 336 q 429 407 445 401 q 449 499 449 446 l 449 540 q 521 697 449 658 q 582 712 548 712 q 738 556 704 712 q 753 396 753 490 q 595 80 751 81 m 41 380 q 300 3 42 4 q 458 66 399 4 q 595 3 507 4 q 831 396 830 5 q 612 788 831 768 q 582 789 597 789 q 423 709 484 788 q 277 789 377 788 q 41 380 42 787 z "},"ඝ":{"ha":791,"x_min":41,"x_max":751,"o":"m 567 553 l 438 553 q 438 575 438 559 q 437 608 437 597 q 510 727 437 704 q 545 732 528 732 q 636 678 612 732 q 644 635 644 658 q 613 547 643 585 q 567 553 590 553 m 133 263 q 201 456 133 406 q 264 476 228 476 l 559 476 q 671 321 652 476 q 674 263 674 292 q 601 85 674 118 q 563 77 583 77 q 511 115 524 77 q 509 134 509 125 q 525 198 509 153 q 533 239 533 221 q 420 335 533 330 q 404 335 412 335 q 274 239 282 321 q 290 175 274 221 q 298 134 298 153 q 263 80 298 94 q 244 77 254 77 q 140 191 161 77 q 133 263 133 225 m 56 269 q 151 28 56 91 q 244 3 193 3 q 351 68 319 3 q 365 123 365 95 q 349 201 365 149 q 343 228 343 217 q 404 270 346 270 q 464 228 463 267 q 450 174 464 220 q 442 123 442 149 q 498 20 442 56 q 563 3 528 3 q 735 144 692 3 q 751 269 751 199 q 671 514 750 442 q 713 636 713 568 q 631 783 713 738 q 547 803 591 803 q 404 731 452 802 q 260 803 353 802 q 122 732 168 803 q 95 639 95 692 q 115 553 95 594 l 41 553 l 41 481 l 118 481 q 58 317 71 438 q 56 269 56 292 m 163 633 q 224 726 163 703 q 262 732 243 732 q 361 666 335 732 q 370 608 370 640 q 369 553 370 568 l 189 553 q 163 633 163 589 z "},"හ":{"ha":867,"x_min":41,"x_max":826,"o":"m 590 79 q 496 133 529 80 q 513 218 513 176 q 437 358 513 331 q 410 363 423 362 q 435 495 430 408 q 514 699 441 661 q 576 712 541 712 q 745 494 720 712 q 749 396 749 449 q 590 79 747 80 m 289 330 l 323 273 q 353 290 340 282 q 388 301 373 301 q 435 236 430 301 q 437 218 437 227 q 369 99 437 134 q 286 80 334 80 q 121 218 149 80 q 114 288 114 251 q 172 461 114 412 q 233 481 199 481 l 362 481 q 289 330 353 368 m 41 283 q 153 38 41 109 q 286 3 210 3 q 454 66 395 4 q 590 3 506 4 q 826 396 825 5 q 609 788 826 765 q 576 789 593 789 q 406 699 458 788 q 273 802 369 788 q 245 803 259 803 q 106 731 152 803 q 79 636 79 690 q 121 514 80 567 q 41 283 41 444 m 146 635 q 208 726 146 704 q 247 732 227 732 q 345 665 320 732 q 354 608 354 640 l 354 553 l 225 553 q 178 547 202 553 q 146 635 146 586 z "},"්":{"ha":0,"x_min":-153,"x_max":79,"o":"m -65 921 q -91 924 -77 921 l -91 1109 l -85 1109 q 12 1016 11 1105 q -65 921 11 922 m -153 1172 l -153 623 l -84 623 l -84 857 q -62 856 -76 856 q 65 937 31 856 q 79 1016 79 971 q -84 1172 75 1171 l -153 1172 z "},"ඉ":{"ha":700,"x_min":41,"x_max":659,"o":"m 134 -176 q 311 -273 209 -271 q 468 -190 416 -273 q 495 -88 495 -144 q 427 50 495 12 q 415 57 420 54 q 625 247 563 103 q 659 427 659 328 q 499 764 659 674 q 339 803 429 803 q 90 673 172 803 q 41 500 41 594 q 88 323 42 389 q 213 233 129 247 q 241 231 228 231 q 385 304 332 231 q 418 407 418 351 q 354 541 416 488 q 250 579 311 579 q 119 505 160 579 q 111 487 114 495 q 110 509 110 495 q 193 678 110 616 q 339 724 254 724 q 538 610 475 724 q 579 427 579 536 q 419 140 579 220 q 264 104 347 104 l 266 31 l 300 31 q 418 -72 411 24 q 418 -85 418 -79 q 359 -186 418 -157 q 307 -198 335 -198 q 191 -133 240 -197 l 134 -176 m 138 406 q 190 494 138 464 q 241 507 214 507 q 331 454 301 507 q 343 406 343 431 q 290 315 343 345 q 241 302 267 302 q 151 355 180 302 q 138 406 138 378 z "},"ඊ":{"ha":675,"x_min":52,"x_max":669,"o":"m 557 994 q 594 941 557 955 q 613 939 604 939 q 666 975 652 939 q 669 994 669 985 q 632 1047 669 1034 q 613 1050 623 1050 q 560 1013 574 1050 q 557 994 557 1004 m 210 994 q 245 943 210 958 q 266 939 256 939 q 320 975 304 939 q 326 1000 326 987 q 289 1047 326 1036 q 271 1050 279 1050 q 213 1013 227 1050 q 210 994 210 1004 m 52 358 q 170 54 52 148 q 339 -1 240 -1 q 579 146 500 -1 q 629 370 629 241 q 590 567 629 483 q 391 713 526 704 q 372 715 380 715 q 289 703 326 715 q 469 926 430 845 q 499 1050 499 987 l 422 1050 q 336 859 422 962 q 225 741 297 814 q 52 358 54 564 m 130 357 l 130 361 l 130 365 q 206 578 133 499 q 358 643 266 643 q 522 522 473 643 q 549 370 549 456 q 458 119 549 197 q 339 77 407 77 q 155 209 208 77 q 130 357 130 273 z "},"ජ":{"ha":803,"x_min":41,"x_max":780,"o":"m 515 551 l 426 551 q 425 608 425 568 q 500 728 425 707 q 533 732 517 732 q 624 678 600 732 q 632 635 632 658 q 594 538 631 579 q 515 551 559 551 m 118 304 q 194 460 118 418 q 269 477 228 477 l 514 477 q 654 378 620 477 q 665 304 665 343 q 549 106 665 170 q 391 69 481 69 q 160 168 235 69 q 118 304 118 227 m 41 304 q 174 47 41 134 q 391 -11 264 -11 q 674 104 576 -11 q 742 304 742 187 q 652 507 741 439 q 700 636 700 562 q 633 773 699 724 q 773 993 751 898 q 780 1054 780 1023 l 703 1054 q 620 865 703 966 q 562 802 595 837 q 534 803 551 803 q 391 731 441 802 q 248 803 342 802 q 109 731 156 803 q 81 636 81 690 q 129 507 83 562 q 41 304 41 438 m 149 635 q 210 726 149 704 q 250 732 229 732 q 347 665 323 732 q 357 608 357 640 l 357 551 l 266 551 q 187 538 221 551 q 149 635 149 579 z "},"ඣ":{"ha":1388,"x_min":41,"x_max":1348,"o":"m 656 297 q 743 34 656 104 q 837 3 784 3 q 987 121 952 3 q 993 142 990 132 q 1118 5 1017 23 q 1150 3 1133 3 q 1335 183 1298 3 q 1348 397 1348 258 q 1133 986 1348 882 q 978 1019 1065 1019 q 768 933 856 1019 q 704 837 724 890 l 779 810 q 895 922 807 887 q 978 939 936 939 q 1242 684 1183 939 q 1268 397 1268 568 q 1225 123 1268 187 q 1150 83 1196 84 q 1032 255 1048 83 q 1028 315 1029 281 l 959 315 q 888 95 954 134 q 838 83 865 83 q 739 225 758 83 q 735 296 735 259 q 761 439 735 381 q 863 534 796 526 q 875 536 869 536 q 930 522 902 534 l 960 591 q 872 616 916 616 q 850 614 857 616 q 594 781 769 780 q 376 677 480 780 q 254 798 347 774 q 208 803 231 803 q 69 732 115 803 q 42 639 42 692 q 151 465 42 517 q 189 450 170 456 l 41 267 l 66 199 q 77 203 73 203 q 95 168 94 201 l 95 134 q 214 3 98 4 q 320 68 292 3 q 327 96 326 83 q 378 19 332 46 q 441 3 407 3 q 601 189 574 3 q 606 271 606 228 q 456 572 606 533 q 407 578 433 578 q 388 576 393 578 q 391 581 391 581 q 594 703 491 701 q 774 589 716 703 q 776 585 776 586 q 690 473 720 545 q 656 297 656 396 m 437 80 q 361 216 363 83 l 361 252 l 292 252 l 292 216 q 216 80 288 81 q 156 161 157 83 q 156 174 156 165 q 157 189 157 183 q 130 264 156 258 q 311 481 161 300 q 393 509 346 509 q 515 392 484 509 q 529 271 529 340 q 437 80 528 81 m 110 635 q 170 726 110 703 q 208 732 187 732 q 305 665 281 732 q 315 608 315 639 l 315 605 l 229 499 q 110 635 111 532 z "},"ඥ":{"ha":1306,"x_min":41,"x_max":1354,"o":"m 967 -77 q 1042 -228 967 -174 q 1156 -264 1092 -264 q 1354 -144 1280 -263 l 1297 -102 q 1156 -190 1242 -189 q 1057 -127 1086 -190 q 1044 -72 1044 -100 q 1065 3 1046 -27 q 1274 109 1194 7 q 1286 125 1280 117 l 1225 171 q 1058 85 1162 87 q 901 160 959 85 q 859 289 859 214 q 935 446 859 388 q 1055 486 987 486 l 1222 486 q 1242 606 1242 548 q 1145 785 1242 739 q 1065 803 1108 803 q 926 732 972 802 q 785 789 875 789 q 631 709 689 788 q 483 789 582 788 q 331 723 388 788 q 218 787 293 785 q 54 575 92 787 q 41 385 41 494 q 212 5 42 20 l 212 81 q 125 244 146 90 q 117 385 117 305 q 189 701 117 646 q 220 712 203 712 q 290 658 273 711 q 247 380 247 555 q 506 3 248 4 q 705 129 651 3 q 727 241 727 182 q 669 388 727 336 q 636 407 652 401 q 655 499 655 448 l 655 540 q 734 701 656 666 q 785 712 757 712 q 887 663 854 712 q 899 633 897 648 q 930 533 902 578 q 792 369 826 483 q 780 289 780 330 q 895 54 780 136 q 989 11 939 24 q 967 -77 967 -28 m 967 635 q 1027 726 967 703 q 1065 732 1044 732 q 1164 665 1139 732 q 1173 609 1173 639 q 1173 600 1173 605 q 1172 592 1172 595 q 1171 583 1172 589 q 1169 575 1169 576 q 1168 567 1169 574 l 1166 560 q 1055 562 1135 562 q 994 555 1025 562 q 967 635 967 593 m 513 384 l 543 324 q 591 353 571 336 q 650 274 636 339 q 652 240 652 256 q 581 98 652 137 q 506 80 548 80 q 326 380 327 83 q 483 713 327 712 q 582 647 553 713 q 590 624 587 635 q 581 548 581 583 l 581 510 q 513 384 579 419 z "},"ක":{"ha":937,"x_min":42,"x_max":897,"o":"m 42 267 l 68 199 q 79 203 75 203 q 96 168 95 201 q 95 148 96 161 q 95 134 95 138 q 216 3 98 4 q 321 68 293 3 q 328 96 327 83 q 380 19 334 46 q 442 3 408 3 q 555 58 515 4 q 681 3 600 4 q 897 369 895 5 q 742 766 897 669 q 609 803 682 803 q 377 678 491 802 q 254 798 347 774 q 209 803 232 803 q 71 732 117 803 q 43 639 43 692 q 152 465 43 517 q 190 450 171 456 l 42 267 m 681 79 q 591 134 612 80 q 608 271 608 197 q 457 572 608 533 q 408 578 434 578 q 389 576 395 578 q 392 581 392 581 q 545 713 480 688 q 606 724 576 724 q 785 582 731 724 q 818 369 818 496 q 694 80 818 95 q 681 79 688 79 m 438 80 q 362 216 363 83 l 362 252 l 293 252 l 293 216 q 216 80 289 81 q 157 161 159 83 l 157 189 q 132 264 156 258 q 312 481 163 300 q 395 509 347 509 q 517 392 486 509 q 530 271 530 340 q 438 80 529 81 m 111 635 q 171 726 111 703 q 209 732 189 732 q 305 669 278 732 q 316 608 316 642 l 316 606 l 229 499 q 111 635 113 532 z "},"ඛ":{"ha":761,"x_min":41,"x_max":720,"o":"m 209 79 q 117 298 117 81 q 243 579 117 555 q 267 582 255 582 q 384 498 369 582 q 387 458 387 480 q 349 338 387 406 q 313 264 323 292 q 288 134 293 195 q 209 79 256 80 m 41 298 q 201 4 42 5 q 289 35 251 5 q 305 -83 294 -33 l 381 -80 q 362 91 362 -5 q 365 156 362 119 q 373 133 368 149 q 381 110 378 117 q 484 8 415 24 q 530 3 506 3 q 720 397 720 5 q 505 986 720 882 q 350 1019 437 1019 q 140 932 228 1019 q 76 837 96 888 l 151 810 q 267 922 180 887 q 350 939 309 939 q 617 674 559 939 q 642 397 642 560 q 575 114 642 190 q 525 88 552 90 q 430 155 460 88 q 429 159 429 157 q 415 195 425 171 q 392 256 401 237 q 396 266 393 262 q 419 311 404 282 q 464 441 460 382 q 464 458 464 450 q 285 661 464 652 q 269 661 277 661 q 53 446 96 661 q 41 298 41 381 z "},"ල":{"ha":779,"x_min":41,"x_max":738,"o":"m 41 282 q 186 -129 41 -4 q 404 -203 275 -203 q 688 -53 600 -203 q 727 52 715 -4 l 650 64 q 534 -92 627 -41 q 404 -125 476 -125 q 165 41 239 -125 q 121 282 121 140 q 225 640 121 519 q 410 723 300 723 q 612 618 540 723 q 659 450 659 545 q 549 216 659 251 q 505 209 528 209 q 415 262 445 209 q 400 315 400 286 q 461 419 400 384 q 517 438 487 434 l 517 511 l 285 511 l 285 441 l 395 441 q 324 309 326 399 q 393 164 324 214 q 506 132 441 132 q 709 279 651 132 q 738 450 738 354 q 650 699 738 597 q 410 803 557 803 q 87 568 178 803 q 41 282 41 448 z "},"ළ":{"ha":742,"x_min":41,"x_max":701,"o":"m 41 180 q 149 -118 41 -11 q 378 -206 239 -206 q 661 -57 572 -206 q 701 50 689 -7 l 624 62 q 506 -96 600 -45 q 378 -126 450 -126 q 157 11 225 -126 q 119 180 119 85 q 216 426 119 355 q 222 431 220 430 q 214 380 214 406 q 305 225 214 271 q 423 201 355 201 q 610 292 562 201 q 628 366 628 327 l 553 366 q 475 278 553 297 q 420 273 449 273 q 289 347 315 273 q 282 385 282 366 q 309 456 283 438 l 646 456 q 666 606 666 537 q 585 792 666 754 q 536 803 562 803 q 427 722 453 802 q 312 803 397 802 q 183 694 208 803 q 176 636 176 666 q 216 510 178 556 q 68 340 115 464 q 41 180 41 266 m 293 529 q 248 594 263 530 q 244 631 244 613 q 290 726 244 705 q 313 730 301 730 q 392 624 382 727 q 395 581 395 597 l 395 529 l 297 529 l 293 529 m 591 529 l 460 529 l 460 624 q 533 730 471 728 q 601 614 598 723 q 591 529 601 575 z "},"ම":{"ha":732,"x_min":41,"x_max":693,"o":"m 363 376 q 304 441 309 376 q 302 467 302 453 q 308 524 302 484 q 313 594 313 571 q 312 620 313 612 q 357 643 327 643 q 416 581 399 643 q 423 521 423 553 q 363 376 422 377 m 41 400 q 148 83 41 189 q 361 3 229 3 q 673 279 610 3 q 693 480 693 369 q 357 1019 692 1017 q 157 935 239 1019 q 96 837 118 892 l 171 810 q 289 926 203 897 q 357 939 323 939 q 613 480 612 936 q 434 94 613 149 q 361 83 399 83 q 133 262 187 83 q 114 400 114 326 q 183 633 114 605 q 202 637 193 637 q 248 581 247 635 q 241 522 248 562 q 236 464 236 481 q 362 309 239 311 q 488 521 488 311 q 403 700 488 667 q 361 708 382 708 q 283 680 316 707 q 203 707 255 707 q 58 562 98 707 q 41 400 41 494 z "},"ා":{"ha":323,"x_min":1,"x_max":286,"o":"m 1 708 q 91 750 35 750 q 252 614 199 750 q 286 384 286 522 q 174 43 286 122 q 91 18 136 18 q 1 60 34 19 l 34 121 q 87 96 57 98 q 203 290 183 96 q 208 384 208 334 q 109 669 208 642 q 87 671 98 671 q 34 647 56 670 l 1 708 z "},"ෑ":{"ha":410,"x_min":0,"x_max":373,"o":"m 0 214 q 110 16 0 58 q 186 3 144 3 q 369 179 345 3 q 373 240 373 209 l 301 240 q 236 91 301 126 q 184 79 213 79 q 76 184 90 79 q 75 214 75 199 q 161 381 75 307 q 283 435 225 434 l 292 435 l 292 505 l 121 505 l 292 666 l 292 738 l 23 738 l 23 663 l 183 663 l 23 505 l 23 435 l 118 435 q 1 241 15 357 q 0 214 0 228 z "},"ැ":{"ha":388,"x_min":0,"x_max":381,"o":"m 0 218 q 102 22 0 72 q 194 3 142 3 q 377 179 353 3 q 381 240 381 209 l 308 240 q 245 94 308 130 q 195 81 222 81 q 79 193 91 81 q 77 218 77 205 q 153 418 77 301 q 323 658 161 430 q 330 666 327 662 l 330 738 l 60 738 l 60 663 l 236 663 q 79 441 91 460 q 0 218 0 316 z "},"ෛ":{"ha":1177,"x_min":28,"x_max":1164,"o":"m 315 362 q 359 435 315 412 q 396 445 377 445 q 468 399 446 445 q 477 362 477 381 q 434 290 477 313 q 396 281 415 281 q 324 326 347 281 q 315 362 315 343 m 245 365 q 312 240 245 286 q 321 235 317 237 q 392 216 354 216 q 498 274 461 217 q 414 103 495 152 q 321 79 373 79 q 136 209 193 79 q 104 380 104 282 q 193 635 104 537 q 346 707 258 705 q 502 627 433 707 q 505 623 503 624 l 562 670 q 346 783 477 781 q 107 650 199 783 q 28 380 28 536 q 149 61 28 160 q 321 3 221 3 q 537 136 473 3 q 568 281 568 202 q 473 496 568 442 q 396 517 439 517 q 271 449 316 517 q 245 365 245 410 m 910 362 q 955 435 910 412 q 991 445 972 445 q 1063 401 1039 445 q 1073 362 1073 382 q 1029 292 1073 316 q 991 281 1010 281 q 920 326 943 281 q 910 362 910 343 m 841 365 q 909 240 841 283 q 917 235 913 237 q 987 216 949 216 q 1093 274 1057 217 q 1009 103 1090 152 q 917 79 968 79 q 731 209 788 79 q 700 380 700 282 q 788 635 700 537 q 941 707 853 705 q 1097 627 1028 707 q 1100 623 1099 624 l 1157 670 q 941 783 1073 781 q 703 650 795 783 q 624 380 624 536 q 745 61 624 160 q 917 3 817 3 q 1133 136 1069 3 q 1164 281 1164 202 q 1069 496 1164 442 q 991 517 1034 517 q 867 449 911 517 q 841 365 841 410 z "},"ෞ":{"ha":1213,"x_min":28,"x_max":1135,"o":"m 315 362 q 359 435 315 412 q 396 445 377 445 q 468 399 446 445 q 477 362 477 381 q 434 290 477 313 q 396 281 415 281 q 324 326 347 281 q 315 362 315 343 m 245 365 q 312 240 245 286 q 321 235 317 237 q 392 216 354 216 q 498 274 461 217 q 414 103 495 152 q 321 79 373 79 q 136 209 193 79 q 104 380 104 282 q 193 635 104 537 q 346 707 258 705 q 502 627 433 707 q 505 623 503 624 l 562 670 q 346 783 477 781 q 107 650 199 783 q 28 380 28 536 q 149 61 28 160 q 321 3 221 3 q 537 136 473 3 q 568 281 568 202 q 473 496 568 442 q 396 517 439 517 q 271 449 316 517 q 245 365 245 410 m 747 479 q 859 331 750 332 q 935 389 922 331 q 939 418 936 399 q 966 479 945 469 q 985 483 974 483 q 1061 301 1061 481 q 956 75 1059 76 q 939 76 947 75 q 924 79 930 77 q 913 85 918 81 q 904 91 907 88 q 897 98 901 94 q 890 105 892 103 q 884 113 888 107 l 882 118 l 829 79 q 887 19 857 35 q 963 3 921 3 q 1135 301 1134 5 q 1021 555 1135 525 q 987 559 1005 559 q 916 534 940 559 q 889 480 891 510 q 882 426 887 450 q 861 401 876 401 q 815 484 815 403 q 892 624 815 608 q 922 627 907 627 l 922 692 q 762 595 796 692 q 747 479 747 551 z "},"ෙ":{"ha":595,"x_min":28,"x_max":568,"o":"m 315 362 q 359 435 315 412 q 396 445 377 445 q 468 399 446 445 q 477 362 477 381 q 434 290 477 313 q 396 281 415 281 q 324 326 347 281 q 315 362 315 343 m 245 365 q 312 240 245 286 q 321 235 317 237 q 392 216 354 216 q 498 274 461 217 q 414 103 495 152 q 321 79 373 79 q 136 209 193 79 q 104 380 104 282 q 193 635 104 537 q 346 707 258 705 q 502 627 433 707 q 505 623 503 624 l 562 670 q 346 783 477 781 q 107 650 199 783 q 28 380 28 536 q 149 61 28 160 q 321 3 221 3 q 537 136 473 3 q 568 281 568 202 q 473 496 568 442 q 396 517 439 517 q 271 449 316 517 q 245 365 245 410 z "},"ේ":{"ha":892,"x_min":28,"x_max":768,"o":"m 315 362 q 359 435 315 412 q 396 445 377 445 q 468 399 446 445 q 477 362 477 381 q 434 290 477 313 q 396 281 415 281 q 324 326 347 281 q 315 362 315 343 m 245 365 q 312 240 245 286 q 321 235 317 237 q 392 216 354 216 q 498 274 461 217 q 414 103 495 152 q 321 79 373 79 q 136 209 193 79 q 104 380 104 282 q 193 635 104 537 q 346 707 258 705 q 502 627 433 707 q 505 623 503 624 l 536 648 l 536 623 l 605 623 l 605 857 q 627 856 613 856 q 755 940 723 856 q 768 1016 768 974 q 605 1172 764 1171 l 536 1172 l 536 700 q 346 783 456 783 q 107 650 199 783 q 28 380 28 536 q 149 61 28 160 q 321 3 221 3 q 537 136 473 3 q 568 281 568 202 q 473 496 568 442 q 396 517 439 517 q 271 449 316 517 q 245 365 245 410 m 624 921 q 598 924 612 921 l 598 1108 l 604 1108 q 701 1016 700 1104 q 624 921 700 922 z "},"ි":{"ha":0,"x_min":-705,"x_max":-50,"o":"m -705 921 q -571 1130 -705 1062 q -377 1172 -488 1172 q -107 1073 -198 1172 q -50 921 -50 1009 q -111 772 -50 834 q -165 734 -137 746 l -220 739 l -220 777 q -132 886 -149 807 q -127 921 -127 903 q -231 1065 -127 1019 q -377 1093 -293 1093 q -597 1009 -532 1093 q -627 921 -627 970 q -567 795 -627 842 q -536 777 -552 784 l -536 739 l -590 734 q -693 853 -663 765 q -705 921 -705 888 z "},"ී":{"ha":0,"x_min":-705,"x_max":-50,"o":"m -277 878 q -235 944 -277 924 q -203 951 -220 951 q -138 909 -157 951 q -132 878 -132 892 q -174 811 -132 829 q -203 804 -189 804 q -270 846 -250 804 q -277 878 -277 861 m -349 878 q -282 757 -349 799 q -205 734 -247 734 q -176 736 -194 734 q -54 873 -75 755 q -50 921 -50 898 q -184 1130 -50 1062 q -377 1172 -267 1172 q -647 1074 -556 1172 q -705 921 -705 1010 q -644 772 -705 834 q -590 734 -618 746 l -536 739 l -536 777 q -624 888 -606 808 q -627 921 -627 906 q -526 1065 -627 1017 q -377 1095 -463 1095 q -134 979 -180 1092 q -213 1015 -165 1013 q -327 954 -288 1015 q -349 878 -349 918 z "},"ෳ":{"ha":408,"x_min":4,"x_max":392,"o":"m 4 479 q 87 674 4 636 q 179 692 123 692 l 179 627 q 76 534 90 627 q 72 484 72 511 q 119 401 75 403 q 141 444 136 401 q 171 533 149 511 q 244 559 197 559 q 391 346 377 559 q 392 301 392 324 q 220 3 391 4 q 91 73 136 3 q 87 79 88 77 l 140 118 q 174 83 159 90 q 213 75 191 75 q 317 301 317 77 q 241 483 316 481 q 199 439 208 483 q 197 419 198 433 q 164 343 189 359 q 115 331 144 331 q 4 479 5 332 z "},"ෟ":{"ha":408,"x_min":4,"x_max":392,"o":"m 4 479 q 87 674 4 636 q 179 692 123 692 l 179 627 q 76 534 90 627 q 72 484 72 511 q 119 401 75 403 q 141 444 136 401 q 171 533 149 511 q 244 559 197 559 q 391 346 377 559 q 392 301 392 324 q 220 3 391 4 q 91 73 136 3 q 87 79 88 77 l 140 118 q 174 83 159 90 q 213 75 191 75 q 317 301 317 77 q 241 483 316 481 q 199 439 208 483 q 197 419 198 433 q 164 343 189 359 q 115 331 144 331 q 4 479 5 332 z "},"ො":{"ha":1331,"x_min":28,"x_max":1267,"o":"m 315 362 q 359 435 315 412 q 396 445 377 445 q 468 399 446 445 q 477 362 477 381 q 434 290 477 313 q 396 281 415 281 q 324 326 347 281 q 315 362 315 343 m 245 365 q 312 240 245 286 q 321 235 317 237 q 392 216 354 216 q 498 274 461 217 q 414 103 495 152 q 321 79 373 79 q 136 209 193 79 q 104 380 104 282 q 193 635 104 537 q 346 707 258 705 q 502 627 433 707 q 505 623 503 624 l 562 670 q 346 783 477 781 q 107 650 199 783 q 28 380 28 536 q 149 61 28 160 q 321 3 221 3 q 537 136 473 3 q 568 281 568 202 q 473 496 568 442 q 396 517 439 517 q 271 449 316 517 q 245 365 245 410 m 982 712 l 1015 651 q 1069 675 1038 674 q 1183 494 1161 675 q 1188 388 1188 445 q 1093 104 1188 134 q 1069 100 1081 100 q 1015 125 1036 102 l 982 64 q 1073 22 1016 22 q 1232 156 1180 22 q 1267 388 1267 248 q 1156 727 1267 648 q 1073 754 1118 754 q 982 712 1015 753 z "},"ෝ":{"ha":1260,"x_min":28,"x_max":1199,"o":"m 315 362 q 359 435 315 412 q 396 445 377 445 q 468 399 446 445 q 477 362 477 381 q 434 290 477 313 q 396 281 415 281 q 324 326 347 281 q 315 362 315 343 m 245 365 q 312 240 245 286 q 321 235 317 237 q 392 216 354 216 q 498 274 461 217 q 414 103 495 152 q 321 79 373 79 q 136 209 193 79 q 104 380 104 282 q 193 635 104 537 q 346 707 258 705 q 502 627 433 707 q 505 623 503 624 l 562 670 q 346 783 477 781 q 107 650 199 783 q 28 380 28 536 q 149 61 28 160 q 321 3 221 3 q 537 136 473 3 q 568 281 568 202 q 473 496 568 442 q 396 517 439 517 q 271 449 316 517 q 245 365 245 410 m 1053 921 q 1027 924 1040 921 l 1027 1109 l 1034 1109 q 1130 1016 1128 1105 q 1053 921 1128 922 m 964 1172 l 964 750 q 911 715 932 739 l 945 655 q 993 678 964 677 q 1104 547 1073 678 q 1119 388 1119 480 q 1032 107 1119 156 q 993 96 1013 96 q 945 119 963 98 l 911 60 q 996 22 944 22 q 1162 156 1108 22 q 1199 388 1199 248 q 1086 724 1199 642 q 1034 750 1062 743 l 1034 857 q 1055 856 1042 856 q 1183 937 1149 856 q 1196 1016 1196 971 q 1034 1172 1192 1171 l 964 1172 z "},"ෘ":{"ha":381,"x_min":0,"x_max":347,"o":"m 0 195 q 54 37 0 90 q 130 7 85 7 q 214 26 153 7 q 245 33 233 33 q 289 5 271 31 l 347 43 q 302 212 302 110 q 316 406 302 228 q 323 544 323 481 q 167 747 321 746 q 8 551 9 745 q 11 502 8 536 l 83 502 q 80 551 80 532 q 167 674 83 673 q 250 545 248 671 q 237 359 250 483 q 146 388 203 388 q 23 307 64 388 q 0 195 0 258 m 148 79 q 72 198 73 81 q 125 309 72 283 q 159 317 141 317 q 229 288 197 316 q 224 205 224 228 q 241 94 224 141 q 231 95 236 95 q 170 81 225 95 q 148 79 156 79 z "},"ෲ":{"ha":810,"x_min":0,"x_max":723,"o":"m 376 195 q 429 37 376 90 q 505 7 461 7 q 590 27 529 7 q 621 33 609 33 q 665 5 647 31 l 723 43 q 677 212 677 113 q 690 406 677 228 q 697 544 697 481 q 557 747 697 738 q 541 747 548 747 q 384 551 385 745 q 387 502 384 519 l 457 502 q 456 551 456 518 q 541 674 458 673 q 624 545 623 671 q 612 359 624 458 q 521 388 578 388 q 397 304 438 388 q 376 195 376 256 m 524 79 q 448 198 449 81 q 500 309 448 283 q 534 317 517 317 q 605 288 572 316 q 600 205 600 228 q 617 94 600 141 q 606 95 612 95 q 544 81 600 95 q 524 79 532 79 m 0 195 q 54 37 0 90 q 130 7 85 7 q 214 26 153 7 q 245 33 233 33 q 289 5 271 31 l 347 43 q 302 212 302 110 q 316 406 302 228 q 323 544 323 481 q 167 747 321 746 q 8 551 9 745 q 11 502 8 536 l 83 502 q 80 551 80 532 q 167 674 83 673 q 250 545 248 671 q 237 359 250 483 q 146 388 203 388 q 23 307 64 388 q 0 195 0 258 m 148 79 q 72 198 73 81 q 125 309 72 283 q 159 317 141 317 q 229 288 197 316 q 224 205 224 228 q 241 94 224 141 q 231 95 236 95 q 170 81 225 95 q 148 79 156 79 z "},"ු":{"ha":0,"x_min":-658,"x_max":-65,"o":"m -658 -160 q -547 -275 -655 -274 l -65 -275 l -65 305 l -125 263 l -141 182 l -141 -198 l -534 -198 q -579 -142 -578 -195 q -574 -88 -579 -122 l -648 -79 q -658 -160 -658 -129 z "},"ූ":{"ha":0,"x_min":-659,"x_max":-66,"o":"m -659 -160 q -590 -266 -659 -239 q -538 -275 -566 -275 q -399 -229 -494 -275 q -274 -189 -316 -189 q -142 -275 -198 -190 l -66 -275 l -66 305 l -114 263 l -142 182 l -142 -170 q -269 -113 -201 -113 q -412 -160 -319 -113 q -528 -198 -490 -198 q -581 -156 -572 -198 q -582 -142 -582 -149 q -575 -90 -582 -118 l -650 -80 q -659 -160 -659 -127 z "},"ඹ":{"ha":768,"x_min":41,"x_max":727,"o":"m 41 342 q 164 11 41 54 q 217 3 190 3 q 323 65 290 3 q 338 123 338 94 q 320 201 338 149 q 315 228 315 217 q 376 270 317 270 q 437 228 435 267 q 422 174 437 220 q 414 123 414 148 q 469 22 414 56 q 536 3 499 3 q 716 201 684 3 q 727 397 727 273 q 511 986 727 882 q 357 1019 444 1019 q 146 932 235 1019 q 83 837 103 888 l 157 810 q 274 922 187 887 q 357 939 316 939 q 624 674 566 939 q 648 397 648 560 q 600 113 648 174 q 536 83 572 83 q 484 122 495 83 q 481 140 481 132 q 498 203 481 157 q 506 244 506 225 q 411 338 506 327 q 376 339 395 339 q 248 263 259 339 q 247 244 247 254 q 263 180 247 227 q 271 140 271 159 q 235 85 271 96 q 217 83 227 83 q 117 313 121 83 q 117 346 117 328 q 175 621 117 557 q 214 640 193 640 q 274 566 270 632 q 271 530 274 552 q 270 503 270 513 q 357 380 270 395 q 384 377 370 377 q 502 547 502 378 q 426 704 502 675 q 387 711 407 711 q 309 671 334 709 q 213 712 271 712 q 50 486 84 712 q 41 342 41 419 m 340 582 q 338 609 340 591 q 385 646 353 644 q 435 547 435 644 q 387 449 434 450 q 338 514 338 450 q 339 553 338 525 q 340 582 340 575 z "},"න":{"ha":911,"x_min":41,"x_max":880,"o":"m 637 79 q 534 132 563 80 q 563 277 563 194 q 438 528 563 500 q 425 530 431 529 q 389 532 411 532 q 411 579 403 564 q 515 705 464 678 q 597 724 552 724 q 772 585 720 724 q 804 370 804 499 q 658 80 804 99 q 637 79 647 79 m 41 300 q 146 50 41 129 q 300 3 210 3 q 490 69 422 4 q 637 3 543 4 q 880 370 879 5 q 711 777 880 692 q 597 803 658 803 q 391 690 471 802 q 258 799 355 784 q 227 802 241 802 q 87 730 133 802 q 62 637 62 689 q 175 461 62 517 q 233 439 202 448 q 275 433 256 433 q 167 327 227 331 q 117 343 129 328 q 119 372 117 354 l 47 374 q 41 300 41 331 m 300 80 q 126 218 163 80 q 117 270 119 244 q 175 259 144 259 q 328 378 271 259 q 365 467 345 410 l 373 467 q 479 362 454 467 q 487 277 487 324 q 372 91 487 129 q 300 80 339 80 m 251 498 q 130 633 132 532 q 190 724 130 703 q 227 731 209 731 q 326 663 301 731 q 335 608 335 637 l 335 589 q 298 490 316 544 q 251 498 258 496 z "},"ඳ":{"ha":804,"x_min":41,"x_max":792,"o":"m 406 -77 q 480 -229 406 -174 q 593 -264 529 -264 q 792 -144 719 -263 l 734 -102 q 593 -190 681 -189 q 495 -129 526 -190 q 481 -72 481 -102 q 503 3 483 -27 q 713 113 633 7 q 723 125 719 119 l 662 171 q 496 85 602 87 q 338 161 396 85 q 297 289 297 216 q 372 445 297 387 q 492 486 423 486 l 661 486 q 681 606 681 553 q 583 785 681 739 q 503 803 547 803 q 363 732 411 802 q 248 787 324 785 q 64 602 111 787 q 41 385 41 513 q 212 5 42 20 l 212 81 q 125 244 146 90 q 117 385 117 305 q 199 694 117 629 q 248 712 221 712 q 332 654 315 712 q 336 637 335 646 q 369 534 336 581 q 229 365 262 483 q 218 289 218 327 q 328 57 218 140 q 426 11 373 24 q 406 -77 406 -28 m 404 635 q 465 726 404 703 q 503 732 484 732 q 602 665 578 732 q 610 609 610 639 q 605 560 610 586 q 492 562 574 562 q 433 556 469 562 q 404 635 404 589 z "},"ඦ":{"ha":1006,"x_min":41,"x_max":985,"o":"m 720 551 l 631 551 q 629 608 629 568 q 703 727 629 704 q 738 732 720 732 q 829 678 804 732 q 837 635 837 658 q 799 538 836 579 q 720 551 764 551 m 321 304 q 397 460 321 418 q 472 477 431 477 l 718 477 q 857 380 822 477 q 869 304 869 345 q 755 107 869 171 q 595 69 686 69 q 365 167 439 69 q 321 304 321 227 m 245 304 q 378 47 245 134 q 595 -11 469 -11 q 879 104 781 -11 q 947 304 947 187 q 859 509 945 439 q 906 636 906 563 q 838 773 905 726 q 981 1005 962 902 q 985 1054 985 1029 l 907 1054 q 825 865 907 966 q 766 802 800 837 q 739 803 755 803 q 597 731 644 802 q 453 803 545 802 q 319 741 366 802 q 218 787 281 785 q 54 575 92 787 q 41 385 41 494 q 212 5 42 20 l 212 81 q 125 244 146 90 q 117 385 117 305 q 189 701 117 646 q 220 712 203 712 q 289 666 269 711 q 286 636 286 647 q 334 507 288 562 q 245 304 245 438 m 355 635 q 416 726 355 705 q 454 732 435 732 q 553 666 528 732 q 563 608 563 640 q 562 551 563 567 l 471 551 q 393 538 429 551 q 355 635 355 579 z "},"ඞ":{"ha":811,"x_min":43,"x_max":730,"o":"m 362 477 q 300 484 350 477 q 315 545 315 513 q 282 635 313 595 l 293 635 q 423 559 415 635 q 425 544 425 551 q 380 480 425 492 q 362 477 370 477 m 43 248 q 151 16 43 62 q 218 3 182 3 q 369 121 334 3 q 374 142 372 132 q 499 5 399 23 q 532 3 514 3 q 716 183 680 3 q 730 397 730 258 q 514 986 730 882 q 359 1019 446 1019 q 149 933 237 1019 q 85 837 106 890 l 160 810 q 278 922 191 888 q 359 939 319 939 q 624 684 564 939 q 650 397 650 568 q 606 123 650 187 q 532 83 578 84 q 414 267 426 83 q 411 315 412 289 l 340 315 q 270 95 335 133 q 221 83 247 83 q 119 250 122 90 q 213 414 119 384 q 258 420 235 420 q 311 416 282 420 q 369 412 343 412 q 484 484 456 412 q 495 545 495 511 q 351 692 495 665 q 277 699 316 699 q 81 643 133 699 q 73 632 77 636 q 45 545 45 597 q 109 430 46 471 q 43 248 43 366 m 111 545 q 153 610 111 593 q 180 616 167 616 q 244 572 227 616 q 250 545 250 559 q 210 481 250 500 q 180 475 195 475 q 117 517 136 475 q 111 545 111 530 z "},"ණ":{"ha":1165,"x_min":47,"x_max":1124,"o":"m 890 85 q 760 153 803 85 q 742 183 753 163 q 685 250 712 237 q 652 258 671 256 q 666 385 666 313 q 665 435 666 419 q 663 487 663 453 q 722 624 663 614 q 734 625 727 625 q 807 453 807 624 l 807 350 l 878 350 l 878 453 q 958 625 879 624 q 1046 377 1046 624 q 1008 146 1046 209 q 890 85 968 87 m 66 22 l 140 8 q 201 37 164 37 q 292 20 213 37 q 365 12 332 12 q 610 149 530 12 q 631 190 623 170 l 632 190 q 681 148 659 190 q 731 65 712 84 q 891 8 785 8 q 1112 195 1074 8 q 1124 377 1124 259 q 1017 694 1124 650 q 964 704 993 704 q 854 644 890 704 q 842 609 845 627 q 783 692 834 666 q 732 704 758 704 q 616 621 648 703 q 506 741 575 700 q 652 956 625 869 q 663 1034 663 996 l 586 1034 q 500 842 586 944 q 434 770 473 810 q 345 783 391 783 q 96 652 179 783 q 47 480 47 574 q 91 305 47 377 q 153 239 115 263 q 84 122 104 201 q 66 22 75 83 m 358 88 q 255 103 345 88 q 206 107 227 107 q 153 98 175 107 q 218 205 170 171 q 231 213 225 209 q 248 212 237 212 q 392 285 340 212 q 423 387 423 331 q 359 522 422 469 q 255 560 312 560 q 123 487 165 560 q 119 480 121 483 l 119 496 q 208 662 123 604 q 345 703 266 703 q 544 583 480 703 q 586 385 586 503 q 453 107 586 167 q 358 88 410 88 m 142 387 q 195 477 142 446 q 247 491 220 491 q 338 438 308 491 q 351 387 351 414 q 297 294 351 324 q 247 282 273 282 q 155 336 184 282 q 142 387 142 361 z "},"ඬ":{"ha":959,"x_min":41,"x_max":920,"o":"m 233 248 q 340 16 233 62 q 408 3 372 3 q 559 121 524 3 q 564 142 562 132 q 674 9 586 34 q 722 3 697 3 q 906 183 869 3 q 920 397 920 258 q 704 986 920 882 q 549 1019 636 1019 q 339 933 427 1019 q 275 837 296 890 l 350 810 q 468 922 381 888 q 549 939 509 939 q 814 684 754 939 q 840 397 840 568 q 796 123 840 187 q 722 83 768 84 q 604 267 616 83 q 601 315 602 289 l 530 315 q 460 95 525 133 q 411 83 437 83 q 311 216 321 83 q 309 248 309 232 q 376 441 309 391 q 441 463 404 463 l 632 463 q 636 517 636 487 q 540 694 636 647 q 458 713 502 713 q 340 665 382 712 q 227 726 301 724 q 58 559 100 726 q 41 385 41 486 q 212 5 42 20 l 212 80 q 123 255 144 90 q 117 385 117 313 q 191 640 117 594 q 227 650 208 650 q 301 589 286 650 q 305 563 304 575 q 309 529 305 547 l 231 529 l 231 463 l 296 463 q 235 292 247 416 q 233 248 233 269 m 372 564 q 434 644 372 631 q 458 647 445 647 q 559 575 534 647 q 567 528 566 553 l 378 529 q 372 564 372 545 z "},"ඟ":{"ha":1084,"x_min":41,"x_max":1043,"o":"m 518 384 l 548 324 q 598 353 579 338 q 655 270 644 339 q 658 240 658 255 q 586 98 658 137 q 511 80 553 80 q 331 380 332 83 q 488 713 332 712 q 587 647 559 713 q 595 624 593 635 q 586 548 586 583 q 586 533 586 544 q 587 510 587 518 q 518 384 586 418 m 807 79 q 713 134 745 80 q 732 241 732 183 q 674 388 732 336 q 642 407 658 401 q 661 499 661 448 l 661 538 q 739 701 662 665 q 793 712 765 712 q 962 494 937 712 q 966 396 966 449 q 807 79 964 80 m 254 380 q 511 3 255 4 q 671 66 612 4 q 807 3 720 4 q 1043 396 1042 5 q 836 787 1043 758 q 793 789 815 789 q 636 709 697 788 q 488 789 586 788 q 343 728 399 788 q 237 784 307 783 q 61 595 106 784 q 41 382 41 507 q 212 3 42 18 l 212 77 q 117 382 117 95 q 217 705 117 674 q 237 708 228 708 q 302 667 281 707 q 254 380 254 564 z "},"ඤ":{"ha":1409,"x_min":41,"x_max":1458,"o":"m 1070 -77 q 1145 -228 1070 -174 q 1259 -264 1195 -264 q 1458 -144 1382 -263 l 1400 -102 q 1259 -190 1345 -189 q 1160 -127 1190 -190 q 1147 -72 1147 -100 q 1169 3 1149 -27 q 1379 113 1299 7 q 1389 125 1385 119 l 1328 171 q 1162 85 1268 87 q 1002 161 1062 85 q 962 289 962 216 q 1038 446 962 388 q 1158 486 1090 486 l 1325 486 q 1347 606 1347 551 q 1249 784 1347 736 q 1168 803 1211 803 q 1028 731 1074 803 q 1015 707 1020 719 q 840 781 945 781 q 617 677 722 780 q 495 798 589 774 q 449 803 472 803 q 317 742 366 802 q 218 787 281 787 q 54 575 92 787 q 41 385 41 494 q 212 5 42 22 l 212 81 q 129 224 152 88 q 117 385 117 293 q 189 701 117 646 q 220 712 203 712 q 286 670 264 711 q 283 639 283 651 q 396 463 283 515 q 430 449 412 454 l 282 267 l 308 199 q 319 203 315 203 q 336 168 335 201 q 335 148 336 161 q 335 134 335 138 q 456 3 338 4 q 559 66 532 3 q 567 96 566 83 q 623 18 575 43 q 682 3 650 3 q 842 189 815 3 q 848 271 848 228 q 697 572 848 533 q 648 578 674 578 q 629 576 635 578 q 632 581 632 581 q 840 703 734 701 q 989 631 937 703 q 1009 589 1002 610 q 1034 534 1016 559 q 894 368 928 483 q 883 289 883 328 q 998 54 883 136 q 1092 11 1042 24 q 1070 -77 1070 -28 m 1070 635 q 1130 726 1070 703 q 1168 732 1147 732 q 1267 665 1242 732 q 1276 609 1276 639 q 1274 575 1276 597 q 1271 560 1271 564 q 1158 562 1238 562 q 1099 556 1135 562 q 1070 635 1070 589 m 678 80 q 602 216 604 83 l 602 252 l 533 252 l 533 216 q 456 80 529 81 q 397 161 399 83 l 397 189 q 372 264 396 258 q 552 481 403 300 q 635 509 587 509 q 757 392 726 509 q 770 271 770 340 q 678 80 769 81 m 351 635 q 411 726 351 703 q 449 732 429 732 q 545 669 518 732 q 556 608 556 642 l 556 606 l 469 499 q 351 635 353 532 z "},"ඕ":{"ha":768,"x_min":41,"x_max":727,"o":"m 332 935 q 218 916 274 935 q 165 1004 167 956 q 245 1084 165 1059 q 369 1100 296 1100 q 581 1031 517 1100 q 609 962 609 998 q 553 872 608 901 q 332 935 461 935 m 88 1010 q 155 888 90 944 q 87 841 118 869 l 134 781 q 327 856 228 856 q 647 397 646 853 q 604 123 647 187 q 529 83 575 84 q 411 267 423 83 q 408 315 410 289 l 338 315 q 267 95 332 133 q 218 83 244 83 q 117 317 121 83 q 117 346 117 331 q 180 625 117 570 q 216 640 197 640 q 273 582 266 640 q 274 566 274 574 q 271 530 274 552 q 270 503 270 513 q 357 380 270 395 q 384 377 370 377 q 500 547 500 378 q 416 707 500 685 q 387 711 401 711 q 308 671 335 709 q 213 712 273 712 q 50 486 84 712 q 41 342 41 419 q 216 3 53 15 q 366 121 331 3 q 372 142 369 132 q 481 9 393 34 q 529 3 505 3 q 713 183 677 3 q 727 397 727 258 q 606 825 726 690 q 688 962 686 873 q 579 1124 688 1063 q 369 1175 491 1175 q 102 1067 156 1175 q 88 1010 88 1040 m 339 582 q 338 606 339 598 q 384 646 350 644 q 435 547 435 644 q 387 449 434 450 q 336 514 338 450 q 338 553 336 525 q 339 582 339 575 z "},"ඔ":{"ha":768,"x_min":41,"x_max":727,"o":"m 41 342 q 216 3 53 15 q 373 142 340 4 q 494 5 396 26 q 529 3 511 3 q 713 183 677 3 q 727 397 727 258 q 511 986 727 882 q 357 1019 444 1019 q 146 932 235 1019 q 83 837 103 888 l 157 810 q 274 922 187 887 q 357 939 316 939 q 624 674 566 939 q 648 397 648 560 q 605 125 648 189 q 529 83 576 84 q 411 267 423 83 q 408 315 410 289 l 339 315 q 277 102 332 144 q 218 83 251 83 q 117 331 118 83 q 117 346 117 339 q 176 621 117 559 q 216 640 194 640 q 273 582 266 640 q 274 566 274 574 q 271 530 274 552 q 270 503 270 513 q 357 380 270 395 q 384 377 370 377 q 502 547 502 378 q 426 704 502 675 q 387 711 407 711 q 308 671 335 709 q 213 712 273 712 q 50 486 84 712 q 41 342 41 419 m 340 582 q 338 608 340 593 q 385 646 351 644 q 435 547 435 644 q 387 449 434 450 q 338 514 338 450 q 339 553 338 525 q 340 582 340 575 z "},"ප":{"ha":781,"x_min":41,"x_max":741,"o":"m 515 551 l 425 551 l 425 608 q 498 727 425 705 q 532 732 515 732 q 623 680 597 732 q 632 635 632 659 q 594 538 631 579 q 515 551 559 551 m 117 304 q 193 458 117 416 q 269 477 227 477 l 513 477 q 652 380 617 477 q 665 304 665 345 q 549 106 665 170 q 391 69 481 69 q 160 167 235 69 q 117 304 117 227 m 41 304 q 174 47 41 134 q 391 -11 264 -11 q 673 106 576 -11 q 741 304 741 187 q 652 507 739 439 q 700 636 700 562 q 617 783 700 739 q 534 803 578 803 q 391 731 441 802 q 248 803 342 802 q 109 731 156 803 q 81 636 81 690 q 129 507 83 562 q 41 304 41 438 m 149 635 q 210 726 149 704 q 250 732 229 732 q 347 665 323 732 q 357 608 357 640 l 357 551 l 266 551 q 187 538 221 551 q 149 635 149 579 z "},"ඵ":{"ha":730,"x_min":41,"x_max":701,"o":"m 549 724 q 438 779 471 724 q 427 819 427 799 q 460 917 427 857 q 475 949 472 939 q 586 728 553 860 q 549 724 570 724 m 354 817 q 429 690 354 739 q 555 654 484 654 q 604 658 578 654 q 623 464 623 555 q 475 111 623 193 q 353 83 422 83 q 132 220 178 83 q 118 300 118 259 q 201 457 118 429 q 240 463 220 463 l 420 463 q 426 517 426 495 q 330 694 426 647 q 248 713 292 713 q 114 644 155 713 q 94 566 94 609 q 114 491 94 526 q 41 297 42 427 q 122 85 41 168 q 353 3 206 3 q 661 214 578 3 q 701 463 701 319 q 583 920 701 716 q 431 1096 518 1032 l 388 1044 q 396 1039 391 1042 q 403 1032 400 1034 q 419 997 419 1015 q 389 929 419 981 q 354 817 354 868 m 160 564 q 222 644 160 629 q 248 647 235 647 q 347 579 323 647 q 357 528 355 556 l 224 528 q 171 519 195 528 q 160 564 160 543 z "},"ර":{"ha":658,"x_min":41,"x_max":618,"o":"m 41 362 q 159 58 41 152 q 328 3 229 3 q 570 152 491 3 q 618 374 618 245 q 579 571 618 487 q 385 718 517 705 q 362 719 373 719 q 278 707 315 719 q 458 930 419 849 q 488 1054 488 991 l 411 1054 q 326 863 411 966 q 214 745 286 818 q 41 362 43 568 m 119 361 l 119 362 l 119 366 l 119 369 q 198 586 122 507 q 349 647 258 647 q 511 528 461 647 q 538 374 538 461 q 448 123 538 201 q 328 81 396 81 q 144 213 197 81 q 119 361 119 277 z "},"ස":{"ha":791,"x_min":41,"x_max":751,"o":"m 567 553 l 438 553 q 438 575 438 559 q 437 608 437 597 q 510 727 437 704 q 545 732 528 732 q 636 678 612 732 q 644 635 644 658 q 613 547 643 585 q 567 553 590 553 m 133 269 q 201 461 133 411 q 264 481 228 481 l 559 481 q 671 327 652 481 q 674 269 674 298 q 602 92 674 129 q 560 83 582 83 q 441 264 454 83 q 438 315 439 288 l 370 315 q 309 104 363 148 q 247 83 283 83 q 142 186 167 83 q 133 269 133 224 m 56 269 q 149 31 56 96 q 247 3 191 3 q 404 142 372 4 q 513 9 426 34 q 560 3 534 3 q 734 142 689 3 q 751 269 751 198 q 671 514 750 442 q 713 636 713 568 q 631 783 713 738 q 547 803 591 803 q 404 731 452 802 q 260 803 353 802 q 122 732 168 803 q 95 639 95 692 q 115 553 95 594 l 41 553 l 41 481 l 118 481 q 58 317 71 438 q 56 269 56 292 m 163 633 q 224 726 163 703 q 262 732 243 732 q 361 666 335 732 q 370 608 370 640 q 369 553 370 568 l 189 553 q 163 633 163 589 z "},"ශ":{"ha":917,"x_min":41,"x_max":883,"o":"m 572 197 q 636 28 572 76 q 703 8 665 8 q 774 22 723 8 q 789 24 784 24 q 831 0 807 23 l 883 41 q 845 153 845 91 q 850 232 845 176 q 860 403 860 331 q 650 787 860 758 q 608 789 629 789 q 430 707 499 789 q 427 703 429 704 q 277 789 380 788 q 41 380 42 787 q 300 3 42 4 q 499 129 445 3 q 521 241 521 182 q 463 388 521 336 q 429 407 445 401 q 449 499 449 446 l 449 540 q 515 684 449 633 q 608 712 556 712 q 784 403 783 705 l 784 377 q 716 392 751 392 q 595 307 636 392 q 572 197 572 258 m 716 76 q 640 198 642 79 q 690 317 640 286 q 727 327 708 327 q 779 312 755 326 q 773 239 777 285 q 768 171 768 191 q 779 88 768 122 q 753 83 770 87 q 716 76 728 76 m 307 384 l 335 324 q 385 353 365 336 q 444 274 430 339 q 446 240 446 256 q 378 100 446 141 q 300 80 345 80 q 118 380 119 83 q 277 713 119 712 q 373 652 343 713 q 384 620 381 636 q 373 548 376 591 q 373 533 373 544 q 374 510 374 518 q 307 384 373 419 z "},"ෂ":{"ha":781,"x_min":41,"x_max":742,"o":"m 515 551 l 426 551 q 425 608 425 568 q 500 728 425 707 q 533 732 517 732 q 624 678 600 732 q 632 635 632 658 q 594 538 631 579 q 515 551 559 551 m 118 304 q 194 460 118 418 q 269 477 228 477 l 514 477 l 528 477 q 363 336 408 388 q 283 141 283 243 q 290 83 283 114 q 130 227 167 118 q 118 304 118 263 m 391 69 q 368 71 374 69 q 358 136 358 100 q 494 370 358 255 q 564 427 517 391 q 598 453 587 445 q 665 304 665 407 q 549 106 665 170 q 391 69 481 69 m 41 304 q 174 47 41 134 q 391 -11 264 -11 q 674 104 576 -11 q 742 304 742 187 q 652 507 741 439 q 700 636 700 562 q 617 783 700 739 q 534 803 578 803 q 391 731 441 802 q 248 803 342 802 q 109 731 156 803 q 81 636 81 690 q 129 507 83 562 q 41 304 41 438 m 149 635 q 210 726 149 704 q 250 732 229 732 q 347 665 323 732 q 357 608 357 640 l 357 551 l 266 551 q 187 538 221 551 q 149 635 149 579 z "},"ත":{"ha":910,"x_min":43,"x_max":879,"o":"m 46 271 l 71 209 l 84 209 q 110 164 109 206 q 199 28 110 72 q 320 3 251 3 q 494 64 433 4 q 637 3 547 3 q 879 370 878 5 q 724 768 879 671 q 595 803 666 803 q 381 682 491 803 q 373 673 377 677 q 256 796 347 772 q 209 803 233 803 q 71 732 117 803 q 43 639 43 692 q 157 464 43 517 q 191 450 174 456 l 46 271 m 633 77 q 536 123 566 79 q 563 273 563 187 q 457 534 563 473 q 388 553 423 553 q 369 552 376 553 l 392 581 q 514 701 468 674 q 595 724 553 724 q 768 591 713 724 q 803 370 803 503 q 677 84 803 122 q 633 77 655 77 m 320 79 q 184 149 212 79 q 178 186 178 167 q 137 271 176 252 q 307 476 174 312 q 363 487 331 487 q 473 381 445 487 q 486 273 486 334 q 359 83 486 107 q 320 79 339 79 m 110 635 q 171 727 110 704 q 209 734 190 734 q 305 669 279 734 q 316 608 316 642 l 316 606 l 231 499 q 110 635 111 532 z "},"ථ":{"ha":720,"x_min":41,"x_max":700,"o":"m 549 724 q 438 780 468 724 q 427 819 427 799 q 460 917 427 857 q 473 949 471 939 q 586 728 551 861 q 549 724 568 724 m 353 817 q 427 690 353 739 q 553 654 483 654 q 602 658 578 654 q 621 464 621 555 q 468 107 621 183 q 355 83 419 83 q 145 205 206 83 q 118 326 118 262 q 190 515 118 463 q 250 536 217 536 q 304 522 278 534 l 334 591 q 245 616 289 616 q 87 517 145 616 q 41 326 41 438 q 132 88 41 179 q 355 3 217 3 q 662 220 582 3 q 700 463 700 323 q 582 920 700 716 q 430 1096 517 1032 l 387 1044 q 393 1039 389 1042 q 401 1032 399 1034 q 418 997 418 1015 q 388 929 418 981 q 353 817 353 868 z "},"ට":{"ha":705,"x_min":41,"x_max":665,"o":"m 41 326 q 134 574 41 495 q 245 616 184 616 q 334 591 290 614 l 304 522 q 250 536 275 536 q 141 450 178 536 q 118 326 118 397 q 193 134 118 203 q 332 83 248 83 q 570 320 522 83 q 583 480 583 391 q 328 939 575 932 q 168 857 227 939 q 142 810 152 834 l 68 837 q 247 1006 117 966 q 328 1019 288 1019 q 665 480 663 1016 q 441 19 665 94 q 332 3 391 3 q 77 157 152 3 q 41 326 41 233 z "},"ඨ":{"ha":772,"x_min":41,"x_max":741,"o":"m 585 724 q 473 780 503 724 q 463 819 463 799 q 495 917 463 857 q 509 948 506 937 q 613 727 581 861 q 585 724 591 724 m 388 817 q 463 690 388 739 q 590 654 518 654 q 629 658 610 654 q 661 358 661 513 q 606 111 661 165 q 534 83 578 83 q 416 255 433 83 q 412 315 414 281 l 343 315 q 273 95 338 134 q 222 83 250 83 q 123 225 142 83 q 119 296 119 259 q 145 439 119 381 q 247 534 180 526 q 259 536 254 536 q 313 522 288 534 l 345 591 q 256 616 297 616 q 91 507 155 616 q 75 473 81 490 q 41 297 41 396 q 127 34 41 104 q 221 3 168 3 q 372 121 336 3 q 377 142 374 132 q 502 5 401 23 q 534 3 517 3 q 728 180 693 3 q 741 358 741 244 q 598 954 741 728 q 467 1096 540 1043 l 423 1044 q 434 1035 429 1040 q 453 997 453 1017 q 423 929 453 981 q 388 817 388 868 z "},"උ":{"ha":738,"x_min":43,"x_max":704,"o":"m 43 182 q 155 -121 43 -14 q 382 -205 244 -205 q 663 -57 575 -205 q 704 50 692 -7 l 625 62 q 507 -94 601 -45 q 382 -123 452 -123 q 160 19 227 -123 q 127 182 127 91 q 255 450 127 374 q 395 487 316 487 l 562 487 q 583 608 583 551 q 487 785 583 738 q 406 804 449 804 q 266 732 313 804 q 239 637 239 692 q 266 541 239 587 q 60 315 106 486 q 43 182 43 252 m 307 636 q 368 727 307 704 q 406 734 387 734 q 502 669 476 734 q 513 610 513 643 q 507 562 513 586 l 395 562 q 334 557 363 562 q 307 636 307 591 z "},"ඌ":{"ha":1085,"x_min":43,"x_max":1016,"o":"m 43 182 q 155 -121 43 -14 q 382 -205 244 -205 q 663 -57 575 -205 q 704 50 692 -7 l 625 62 q 507 -94 601 -45 q 382 -123 452 -123 q 160 19 227 -123 q 127 182 127 91 q 255 450 127 374 q 395 487 316 487 l 562 487 q 583 608 583 551 q 487 785 583 738 q 406 804 449 804 q 266 732 313 804 q 239 637 239 692 q 266 541 239 587 q 60 315 106 486 q 43 182 43 252 m 307 636 q 368 727 307 704 q 406 734 387 734 q 502 669 476 734 q 513 610 513 643 q 507 562 513 586 l 395 562 q 334 557 363 562 q 307 636 307 591 m 628 479 q 738 331 631 332 q 814 389 802 331 q 819 418 817 399 q 845 479 826 469 q 865 483 854 483 q 941 301 941 481 q 837 75 940 76 q 819 76 827 75 q 805 79 811 77 q 793 85 799 81 q 785 91 788 88 q 777 98 781 94 q 771 105 773 103 q 765 113 769 107 l 762 118 l 709 79 q 764 22 738 37 q 842 3 798 3 q 1016 301 1015 5 q 914 551 1016 510 q 867 559 891 559 q 795 534 819 559 q 770 480 772 510 q 762 426 768 450 q 742 401 757 401 q 694 484 694 403 q 772 624 694 608 q 802 627 787 627 l 802 692 q 644 600 678 692 q 628 479 628 553 z "},"ව":{"ha":713,"x_min":41,"x_max":674,"o":"m 41 297 q 122 83 41 164 q 340 3 202 3 q 655 289 593 3 q 674 480 674 373 q 336 1019 673 1017 q 140 936 221 1019 q 76 837 99 894 l 151 810 q 271 928 184 898 q 336 939 304 939 q 586 616 552 939 q 593 480 593 553 q 399 90 593 136 q 340 83 372 83 q 130 222 174 83 q 118 300 118 260 q 201 457 118 429 q 240 463 220 463 l 420 463 q 426 517 426 495 q 330 694 426 647 q 248 713 292 713 q 114 644 155 713 q 94 566 94 609 q 114 491 94 526 q 41 297 42 427 m 160 564 q 222 644 160 629 q 248 647 235 647 q 347 579 323 647 q 357 528 355 556 l 224 528 q 171 519 195 528 q 160 564 160 543 z "},"ය":{"ha":779,"x_min":41,"x_max":739,"o":"m 555 553 l 434 553 q 425 608 425 582 q 498 727 425 704 q 533 732 515 732 q 624 678 600 732 q 632 635 632 658 q 601 547 631 585 q 555 553 578 553 m 41 331 q 157 18 41 71 q 235 3 191 3 q 392 142 359 4 q 500 9 414 34 q 548 3 522 3 q 722 142 677 3 q 739 269 739 198 q 659 514 738 442 q 701 636 701 568 q 618 783 701 738 q 534 803 579 803 q 385 722 434 803 q 362 661 369 694 q 359 643 359 648 q 273 661 315 661 q 90 552 153 661 q 41 331 41 465 m 548 83 q 429 267 441 83 q 426 313 427 289 l 358 313 q 297 103 351 146 q 235 83 270 83 q 118 331 118 85 q 209 564 118 507 q 277 585 241 585 q 359 560 321 583 q 380 481 365 526 l 547 481 q 659 327 640 481 q 662 269 662 298 q 590 92 662 129 q 548 83 570 83 z "},"෴":{"ha":2745,"x_min":41,"x_max":2700,"o":"m 2098 149 q 2167 30 2098 64 q 2227 16 2196 16 l 2591 16 q 2700 132 2699 19 q 2692 213 2700 171 l 2616 205 q 2623 152 2623 160 q 2576 92 2620 94 l 2250 92 q 2182 163 2184 95 q 2186 201 2182 179 l 2228 415 l 2150 415 l 2148 412 q 2043 331 2139 366 q 1937 289 1949 296 q 1925 281 1930 285 l 2001 623 l 1921 623 l 1918 608 q 1799 532 1900 567 q 1690 486 1709 500 l 1769 841 l 1690 841 l 1681 800 q 1572 722 1671 757 q 1468 681 1482 690 q 1463 678 1465 680 l 1522 940 l 1442 940 l 1370 617 q 1297 671 1363 629 q 1230 735 1232 712 q 1232 747 1230 743 l 1240 787 l 1160 787 l 1077 414 q 1004 464 1072 426 q 932 529 932 505 l 932 540 l 940 574 l 860 574 l 785 232 q 709 283 779 244 q 639 349 639 324 l 639 354 l 648 401 l 568 401 l 541 260 q 464 103 518 140 q 373 79 427 79 l 167 79 q 119 138 121 81 q 126 190 119 163 l 50 199 q 41 118 41 149 q 151 3 43 4 l 388 3 q 575 109 521 3 q 620 255 600 159 l 621 259 q 697 212 631 250 q 762 138 761 174 q 761 122 762 127 l 758 114 l 758 111 l 751 80 l 831 80 l 911 442 q 989 392 922 430 q 1054 319 1053 354 q 1053 302 1054 308 l 1043 259 l 1123 259 l 1210 648 q 1283 600 1219 637 q 1348 524 1348 560 l 1348 517 l 1317 377 l 1397 377 l 1439 567 q 1556 646 1455 612 q 1656 689 1641 677 l 1565 281 l 1645 281 l 1667 377 q 1789 460 1685 423 q 1895 505 1879 491 l 1817 155 l 1898 155 l 1899 159 q 2006 248 1908 210 q 2104 286 2098 283 q 2127 304 2119 296 l 2104 193 q 2098 149 2098 172 z "},"ඏ":{"ha":1196,"x_min":41,"x_max":1152,"o":"m 910 142 q 951 206 910 187 q 979 213 964 213 q 1043 171 1024 213 q 1050 142 1050 157 q 1009 79 1050 96 q 979 72 994 72 q 917 113 935 72 q 910 142 910 127 m 1077 384 q 1072 240 1077 317 q 978 281 1032 281 q 945 277 962 281 q 947 304 947 286 q 857 507 945 439 q 905 636 905 562 q 903 663 905 655 q 972 712 922 711 q 1065 559 1038 712 q 1077 384 1077 484 m 720 551 l 629 551 l 629 608 q 705 728 629 707 q 738 732 722 732 q 829 678 804 732 q 837 635 837 658 q 799 538 836 579 q 720 551 764 551 m 321 304 q 397 458 321 416 q 473 477 431 477 l 719 477 q 859 378 825 477 q 869 304 869 343 q 757 107 869 171 q 595 69 688 69 q 365 167 439 69 q 321 304 321 227 m 245 304 q 247 277 245 285 q 214 281 231 281 q 121 240 159 279 q 115 384 115 294 q 190 703 115 651 q 220 712 205 712 q 288 665 267 711 q 288 651 288 659 q 286 636 286 640 q 334 507 288 562 q 245 304 245 438 m 354 635 q 415 726 354 704 q 454 732 434 732 q 552 665 528 732 q 562 608 562 640 l 562 551 l 471 551 q 392 538 426 551 q 354 635 354 579 m 41 385 q 140 20 41 80 q 210 3 170 3 q 330 69 289 3 q 336 81 334 76 q 595 -11 434 -11 q 856 80 757 -9 q 959 4 887 15 q 981 3 971 3 l 983 3 q 1128 144 1092 3 q 1152 385 1152 232 q 1013 781 1152 734 q 974 788 994 788 q 872 741 909 787 q 739 803 823 802 q 595 731 646 802 q 453 803 547 802 q 319 741 366 802 q 217 788 281 787 q 61 606 102 788 q 41 385 41 515 m 142 142 q 182 206 142 187 q 212 213 197 213 q 275 171 256 213 q 281 142 281 157 q 239 77 281 95 q 212 72 225 72 q 148 115 165 72 q 142 142 142 129 z "},"ඐ":{"ha":1614,"x_min":41,"x_max":1580,"o":"m 910 153 q 951 217 910 198 q 979 224 964 224 q 1043 182 1024 224 q 1050 153 1050 168 q 1009 90 1050 107 q 979 83 994 83 q 917 123 935 83 q 910 153 910 138 m 1077 395 q 1072 250 1077 330 q 978 292 1034 290 q 944 288 960 292 q 945 315 945 297 q 857 518 944 450 q 905 647 905 572 q 903 674 905 666 q 972 723 922 722 q 1065 570 1038 723 q 1077 395 1077 495 m 720 562 l 629 562 l 629 618 q 703 738 629 715 q 738 743 720 743 q 827 692 802 743 q 837 646 837 670 q 799 549 836 590 q 720 562 764 562 m 321 315 q 397 469 321 427 q 473 488 431 488 l 718 488 q 857 391 822 488 q 869 315 869 355 q 757 118 869 182 q 595 80 688 80 q 363 179 438 80 q 321 315 321 237 m 245 315 q 247 288 245 296 q 214 292 231 292 q 119 250 157 290 q 114 395 114 332 q 187 711 114 655 q 220 723 203 723 q 288 674 270 722 q 286 647 286 665 q 334 518 288 572 q 245 315 245 449 m 354 646 q 415 736 354 715 q 454 743 434 743 q 552 677 526 743 q 562 618 562 650 l 562 562 l 471 562 q 392 549 426 562 q 354 646 354 590 m 41 396 q 140 31 41 91 q 210 14 170 14 q 327 77 288 14 q 335 92 332 85 q 595 -1 434 -1 q 856 91 757 0 q 966 15 890 22 q 981 14 974 14 l 983 14 q 1128 155 1092 14 q 1152 396 1152 243 q 1013 792 1152 745 q 974 799 994 799 q 872 751 909 798 q 739 814 823 812 q 595 742 646 812 q 453 814 547 812 q 319 751 366 812 q 217 799 281 798 q 61 617 102 799 q 41 396 41 526 m 142 153 q 182 217 142 198 q 212 224 197 224 q 275 182 256 224 q 281 153 281 168 q 239 88 281 106 q 212 83 225 83 q 148 126 165 83 q 142 153 142 140 m 1192 479 q 1303 331 1195 332 q 1379 389 1367 331 q 1385 419 1382 399 q 1411 479 1390 469 q 1430 483 1419 483 q 1506 301 1506 481 q 1401 75 1504 76 q 1331 114 1356 75 q 1328 118 1329 117 l 1275 79 q 1329 22 1303 37 q 1408 3 1363 3 q 1580 301 1579 5 q 1466 555 1580 525 q 1432 559 1450 559 q 1371 543 1393 559 q 1341 503 1348 526 q 1332 457 1335 480 q 1324 418 1329 434 q 1308 401 1320 401 q 1260 484 1260 403 q 1337 624 1260 608 q 1367 627 1352 627 l 1367 692 q 1207 595 1241 692 q 1192 479 1192 551 z "},"ඍ":{"ha":1175,"x_min":45,"x_max":1135,"o":"m 788 195 q 842 37 788 90 q 918 7 873 7 q 1004 27 941 7 q 1035 33 1023 33 q 1078 5 1059 31 l 1135 43 q 1090 212 1090 110 q 1104 406 1090 228 q 1111 544 1111 481 q 955 747 1109 746 q 796 551 798 745 q 799 502 796 536 l 871 502 q 868 551 868 532 q 955 674 871 673 q 1038 545 1036 671 q 1025 359 1038 483 q 935 388 991 388 q 811 307 852 388 q 788 195 788 258 m 937 79 q 860 198 861 81 q 913 309 860 283 q 947 317 929 317 q 1017 288 985 316 q 1012 205 1012 228 q 1029 95 1012 140 l 1019 95 q 956 81 1013 95 q 937 79 944 79 m 556 553 l 426 553 l 426 608 q 499 727 426 705 q 533 732 517 732 q 624 680 598 732 q 633 635 633 659 q 602 547 632 585 q 556 553 578 553 m 121 269 q 182 463 121 412 q 237 481 206 481 l 547 481 q 659 332 639 481 q 663 269 663 300 q 591 92 663 129 q 548 83 571 83 q 427 278 439 83 q 426 315 426 296 l 358 315 q 290 98 354 138 q 236 83 266 83 q 129 189 155 83 q 121 269 121 225 m 45 269 q 141 30 45 92 q 236 3 182 3 q 387 121 351 3 q 392 142 389 132 q 500 9 414 34 q 548 3 522 3 q 722 142 677 3 q 739 269 739 198 q 659 514 738 442 q 701 636 701 568 q 618 783 701 739 q 536 803 579 803 q 392 731 442 802 q 250 803 340 802 q 110 731 156 803 q 83 636 83 690 q 125 514 84 567 q 45 269 45 442 m 151 635 q 212 726 151 704 q 251 732 231 732 q 349 665 324 732 q 358 608 358 640 l 358 553 l 228 553 q 182 547 206 553 q 151 635 151 586 z "},"ඎ":{"ha":1550,"x_min":45,"x_max":1511,"o":"m 1164 195 q 1217 37 1164 90 q 1293 7 1249 7 q 1378 27 1317 7 q 1409 33 1397 33 q 1453 5 1435 31 l 1511 43 q 1465 212 1465 113 q 1478 406 1465 228 q 1485 544 1485 481 q 1331 747 1476 742 q 1172 551 1173 745 q 1175 502 1172 536 l 1245 502 q 1244 551 1244 518 q 1331 674 1246 673 q 1413 545 1412 671 q 1401 359 1413 483 q 1309 388 1367 388 q 1185 304 1226 388 q 1164 195 1164 256 m 1312 79 q 1236 198 1237 81 q 1289 309 1236 283 q 1322 317 1305 317 q 1393 288 1360 316 q 1388 205 1388 228 q 1405 94 1388 141 q 1394 95 1400 95 q 1332 81 1388 95 q 1312 79 1320 79 m 788 195 q 842 37 788 90 q 918 7 873 7 q 1004 27 941 7 q 1035 33 1023 33 q 1078 5 1059 31 l 1135 43 q 1090 212 1090 110 q 1104 406 1090 228 q 1111 544 1111 481 q 955 747 1109 746 q 796 551 798 745 q 799 502 796 536 l 871 502 q 868 551 868 532 q 955 674 871 673 q 1038 545 1036 671 q 1025 359 1038 483 q 935 388 991 388 q 811 307 852 388 q 788 195 788 258 m 937 79 q 860 198 861 81 q 913 309 860 283 q 947 317 929 317 q 1017 288 985 316 q 1012 205 1012 228 q 1029 95 1012 140 l 1019 95 q 956 81 1013 95 q 937 79 944 79 m 556 553 l 426 553 l 426 608 q 499 727 426 705 q 533 732 517 732 q 624 680 598 732 q 633 635 633 659 q 602 547 632 585 q 556 553 578 553 m 121 269 q 182 463 121 412 q 237 481 206 481 l 547 481 q 659 332 639 481 q 663 269 663 300 q 591 92 663 129 q 548 83 571 83 q 427 278 439 83 q 426 315 426 296 l 358 315 q 290 98 354 138 q 236 83 266 83 q 129 189 155 83 q 121 269 121 225 m 45 269 q 141 30 45 92 q 236 3 182 3 q 387 121 351 3 q 392 142 389 132 q 500 9 414 34 q 548 3 522 3 q 722 142 677 3 q 739 269 739 198 q 659 514 738 442 q 701 636 701 568 q 618 783 701 739 q 536 803 579 803 q 392 731 442 802 q 250 803 340 802 q 110 731 156 803 q 83 636 83 690 q 125 514 84 567 q 45 269 45 442 m 151 635 q 212 726 151 704 q 251 732 231 732 q 349 665 324 732 q 358 608 358 640 l 358 553 l 228 553 q 182 547 206 553 q 151 635 151 586 z "},"/":{"ha":526,"x_min":35,"x_max":506,"o":"m 426 983 l 35 -94 l 118 -95 l 506 983 l 426 983 z "}," ":{"ha":406,"x_min":0,"x_max":0,"o":""},"£":{"ha":624,"x_min":31,"x_max":576,"o":"m 564 0 l 564 77 l 214 77 l 214 430 l 472 430 l 472 505 l 214 505 l 214 620 q 328 841 214 804 q 378 848 353 848 q 537 795 457 846 l 576 863 q 373 928 477 928 q 165 817 232 928 q 123 637 123 745 l 123 505 l 31 505 l 31 430 l 123 430 l 123 77 l 31 77 l 31 0 l 564 0 z "},"∑":{"ha":656,"x_min":33,"x_max":610,"o":"m 33 -237 l 610 -237 l 610 -160 l 145 -160 l 498 350 l 180 841 l 610 841 l 610 918 l 62 918 l 62 860 l 399 347 l 33 -180 l 33 -237 z "},"t":{"ha":429,"x_min":28,"x_max":414,"o":"m 414 27 l 388 84 q 315 61 346 61 q 225 190 229 72 l 225 608 l 388 608 l 388 678 l 225 678 l 225 861 l 137 861 l 137 678 l 28 678 l 28 608 l 137 608 l 137 174 q 235 -3 137 31 q 290 -12 260 -12 q 414 27 353 -11 z "},"ť":{"ha":429,"x_min":28,"x_max":441,"o":"m 414 27 l 388 84 q 315 61 346 61 q 225 190 229 72 l 225 608 l 388 608 l 388 678 l 225 678 l 225 861 l 137 861 l 137 678 l 28 678 l 28 608 l 137 608 l 137 174 q 235 -3 137 31 q 290 -12 260 -12 q 414 27 353 -11 m 439 899 q 396 968 439 956 q 378 971 387 971 q 323 930 336 971 q 320 906 320 918 q 363 848 321 860 q 311 728 355 798 l 340 705 q 437 872 420 783 q 439 899 439 887 z "},"þ":{"ha":661,"x_min":104,"x_max":613,"o":"m 321 61 q 193 94 258 61 l 193 395 q 278 593 193 536 q 357 617 315 617 q 486 532 439 617 q 521 370 521 465 q 425 96 521 172 q 321 61 378 61 m 193 -277 l 193 11 q 326 -12 258 -12 q 556 126 477 -12 q 613 372 613 227 q 506 646 613 560 q 376 690 448 690 q 193 582 259 689 l 193 983 l 104 983 l 104 -277 l 193 -277 z "},"¾":{"ha":1108,"x_min":11,"x_max":1073,"o":"m 1006 0 l 1006 127 l 1073 127 l 1073 194 l 1006 194 l 1006 552 l 913 552 l 666 179 l 674 127 l 926 127 l 926 0 l 1006 0 m 197 351 q 368 426 312 351 q 397 521 397 467 q 319 644 397 604 q 267 662 294 655 q 368 758 350 685 q 372 788 372 773 q 282 911 372 876 q 197 928 241 928 q 34 853 90 928 q 24 840 28 846 l 81 804 q 194 864 118 863 q 283 817 259 864 q 292 780 292 799 q 228 699 292 722 q 161 688 198 688 l 125 688 l 125 627 l 182 627 q 311 557 288 627 q 316 526 316 541 q 244 427 316 452 q 194 419 221 419 q 50 473 114 420 l 11 416 q 197 351 92 351 m 332 -15 l 895 997 l 811 997 l 245 -14 l 332 -15 m 926 194 l 753 194 l 926 461 l 926 194 z "},"³":{"ha":446,"x_min":12,"x_max":399,"o":"m 198 351 q 369 426 313 351 q 399 521 399 467 q 320 644 399 604 q 269 662 296 655 q 369 758 351 685 q 373 788 373 773 q 283 911 373 876 q 198 928 243 928 q 35 853 91 928 q 26 840 30 846 l 83 804 q 195 864 119 863 q 285 817 260 864 q 293 780 293 799 q 229 699 293 722 q 163 688 199 688 l 126 688 l 126 627 l 183 627 q 312 557 289 627 q 317 526 317 541 q 245 427 317 452 q 195 419 222 419 q 52 473 115 420 l 12 416 q 198 351 94 351 z "},"˜":{"ha":505,"x_min":52,"x_max":454,"o":"m 335 884 q 252 913 309 884 q 176 935 209 933 q 52 872 114 933 l 92 829 q 176 863 133 863 q 259 834 202 863 q 340 812 305 812 q 454 878 401 814 l 414 921 q 335 884 378 884 z "},"™":{"ha":1027,"x_min":30,"x_max":943,"o":"m 30 917 l 30 860 l 165 860 l 165 335 l 237 335 l 237 860 l 373 860 l 373 917 l 30 917 m 437 335 l 481 690 q 494 792 481 694 q 524 690 515 715 l 624 354 l 686 357 l 793 689 q 825 793 806 724 q 830 743 826 777 q 836 690 833 707 l 875 335 l 943 335 l 872 916 l 803 916 l 681 530 q 673 499 678 521 q 659 449 663 465 q 651 484 656 460 q 640 529 644 515 l 525 916 l 453 916 l 373 335 l 437 335 z "},"²":{"ha":473,"x_min":38,"x_max":401,"o":"m 401 366 l 401 437 l 164 437 l 247 533 q 281 571 258 545 q 382 707 363 659 q 393 761 393 735 q 308 905 393 857 q 213 928 263 928 q 45 844 106 928 q 38 834 41 838 l 95 800 q 205 863 138 861 q 300 810 273 863 q 312 760 312 787 q 247 632 312 707 q 214 597 236 621 q 194 575 201 582 l 41 406 l 41 366 l 401 366 z "},"u":{"ha":690,"x_min":102,"x_max":669,"o":"m 621 -12 q 669 -8 643 -12 l 665 58 q 644 57 655 57 q 583 110 593 57 q 581 151 581 127 l 581 678 l 492 678 l 492 294 q 404 83 492 142 q 323 58 366 58 q 198 159 224 58 q 191 222 191 189 l 191 678 l 102 678 l 102 213 q 229 0 102 42 q 307 -11 264 -11 q 491 96 425 -11 q 502 117 496 107 q 581 -8 509 9 q 621 -12 600 -12 z "},"ú":{"ha":690,"x_min":102,"x_max":669,"o":"m 621 -12 q 669 -8 643 -12 l 665 58 q 644 57 655 57 q 583 110 593 57 q 581 151 581 127 l 581 678 l 492 678 l 492 294 q 404 83 492 142 q 323 58 366 58 q 198 159 224 58 q 191 222 191 189 l 191 678 l 102 678 l 102 213 q 229 0 102 42 q 307 -11 264 -11 q 491 96 425 -11 q 502 117 496 107 q 581 -8 509 9 q 621 -12 600 -12 m 519 916 l 467 987 l 262 833 l 301 776 l 519 916 z "},"û":{"ha":690,"x_min":102,"x_max":669,"o":"m 621 -12 q 669 -8 643 -12 l 665 58 q 644 57 655 57 q 583 110 593 57 q 581 151 581 127 l 581 678 l 492 678 l 492 294 q 404 83 492 142 q 323 58 366 58 q 198 159 224 58 q 191 222 191 189 l 191 678 l 102 678 l 102 213 q 229 0 102 42 q 307 -11 264 -11 q 491 96 425 -11 q 502 117 496 107 q 581 -8 509 9 q 621 -12 600 -12 m 354 975 l 170 823 l 210 773 l 350 879 l 491 772 l 534 826 l 354 975 z "},"ü":{"ha":690,"x_min":102,"x_max":669,"o":"m 621 -12 q 669 -8 643 -12 l 665 58 q 644 57 655 57 q 583 110 593 57 q 581 151 581 127 l 581 678 l 492 678 l 492 294 q 404 83 492 142 q 323 58 366 58 q 198 159 224 58 q 191 222 191 189 l 191 678 l 102 678 l 102 213 q 229 0 102 42 q 307 -11 264 -11 q 491 96 425 -11 q 502 117 496 107 q 581 -8 509 9 q 621 -12 600 -12 m 283 875 q 243 935 283 924 q 227 937 235 937 q 172 895 183 937 q 170 875 170 884 q 209 812 170 825 q 227 810 218 810 q 281 852 269 810 q 283 875 283 864 m 525 875 q 484 935 525 924 q 468 937 476 937 q 414 895 425 937 q 411 875 411 884 q 450 812 411 825 q 467 810 458 810 q 522 854 511 810 q 525 875 525 865 z "},"ù":{"ha":690,"x_min":102,"x_max":669,"o":"m 621 -12 q 669 -8 643 -12 l 665 58 q 644 57 655 57 q 583 110 593 57 q 581 151 581 127 l 581 678 l 492 678 l 492 294 q 404 83 492 142 q 323 58 366 58 q 198 159 224 58 q 191 222 191 189 l 191 678 l 102 678 l 102 213 q 229 0 102 42 q 307 -11 264 -11 q 491 96 425 -11 q 502 117 496 107 q 581 -8 509 9 q 621 -12 600 -12 m 208 916 l 260 987 l 465 833 l 426 776 l 208 916 z "},"ű":{"ha":686,"x_min":102,"x_max":669,"o":"m 621 -12 q 669 -8 643 -12 l 665 58 q 644 57 655 57 q 583 110 593 57 q 581 151 581 127 l 581 678 l 492 678 l 492 294 q 404 83 492 142 q 323 58 366 58 q 198 159 224 58 q 191 222 191 189 l 191 678 l 102 678 l 102 213 q 229 0 102 42 q 307 -11 264 -11 q 491 96 425 -11 q 502 117 496 107 q 581 -8 509 9 q 621 -12 600 -12 m 407 929 l 350 993 l 161 826 l 203 776 l 407 929 m 648 929 l 591 993 l 403 826 l 445 776 l 648 929 z "},"ū":{"ha":690,"x_min":102,"x_max":669,"o":"m 621 -12 q 669 -8 643 -12 l 665 58 q 644 57 655 57 q 583 110 593 57 q 581 151 581 127 l 581 678 l 492 678 l 492 294 q 404 83 492 142 q 323 58 366 58 q 198 159 224 58 q 191 222 191 189 l 191 678 l 102 678 l 102 213 q 229 0 102 42 q 307 -11 264 -11 q 491 96 425 -11 q 502 117 496 107 q 581 -8 509 9 q 621 -12 600 -12 m 175 910 l 175 838 l 519 838 l 519 910 l 175 910 z "},"_":{"ha":678,"x_min":-1,"x_max":680,"o":"m -1 -206 l -1 -277 l 680 -277 l 680 -206 l -1 -206 z "}," ":{"ha":258,"x_min":0,"x_max":0,"o":""},"­":{"ha":814,"x_min":61,"x_max":382,"o":"m 61 400 l 61 328 l 382 328 l 382 400 l 61 400 z "},"µ":{"ha":718,"x_min":104,"x_max":670,"o":"m 193 -277 l 190 42 q 316 -11 237 -11 q 499 109 433 -11 q 503 115 502 113 q 591 -9 510 4 q 624 -12 608 -12 q 670 -8 644 -12 l 666 58 q 646 57 658 57 q 586 106 595 57 q 583 151 583 123 l 583 678 l 494 678 l 494 294 q 406 83 494 142 q 324 58 368 58 q 199 159 225 58 q 193 222 193 189 l 193 678 l 104 678 l 104 -277 l 193 -277 z "},"Ģ":{"ha":769,"x_min":50,"x_max":699,"o":"m 699 65 l 699 441 l 401 441 l 401 363 l 608 363 l 608 114 q 426 68 505 68 q 190 228 260 68 q 149 456 149 321 q 267 795 149 694 q 411 846 328 846 q 613 696 547 844 l 699 723 q 486 921 636 886 q 414 929 450 929 q 138 784 239 929 q 50 456 50 656 q 209 50 50 170 q 416 -14 297 -14 q 699 65 548 -12 m 456 -145 q 410 -73 456 -87 q 392 -71 400 -71 q 335 -111 349 -71 q 331 -137 331 -125 q 376 -198 332 -186 q 321 -323 369 -251 l 353 -347 q 453 -175 434 -266 q 456 -145 456 -159 z "},"ģ":{"ha":628,"x_min":50,"x_max":602,"o":"m 312 281 q 194 347 235 281 q 170 445 170 389 q 250 602 170 562 q 311 617 279 617 q 429 545 391 617 q 452 446 452 503 q 372 296 452 335 q 312 281 343 281 m 312 689 q 129 598 194 689 q 83 445 83 534 q 171 254 84 317 q 95 140 96 210 q 157 42 96 76 q 50 -115 52 -26 q 159 -263 50 -217 q 300 -289 220 -289 q 556 -190 477 -289 q 595 -73 595 -138 q 490 79 595 35 q 363 100 435 100 l 241 99 q 172 141 184 99 q 171 155 171 148 q 228 222 174 202 q 311 209 266 209 q 494 297 429 209 q 538 445 538 358 q 476 618 537 552 l 602 616 l 602 688 l 378 680 q 312 689 347 689 m 307 -216 q 146 -146 182 -216 q 136 -102 136 -125 q 227 26 137 -27 l 241 26 l 357 28 q 499 -37 468 30 q 509 -77 509 -56 q 407 -201 509 -168 q 307 -216 362 -216 m 237 857 q 282 785 237 800 q 301 783 292 783 q 358 823 343 783 q 362 849 362 836 q 317 910 359 898 q 372 1035 324 960 l 340 1059 q 240 884 256 975 q 237 857 237 871 z "},"Ķ":{"ha":713,"x_min":106,"x_max":709,"o":"m 704 60 q 643 100 667 58 l 422 487 l 682 916 l 589 916 l 350 521 l 197 521 l 197 916 l 106 916 l 106 0 l 197 0 l 197 445 l 349 445 l 567 61 q 670 -12 609 -11 q 709 -8 690 -12 l 704 60 m 433 -145 q 387 -73 433 -87 q 369 -71 377 -71 q 312 -111 326 -71 q 308 -137 308 -125 q 353 -198 309 -186 q 298 -323 346 -251 l 330 -347 q 430 -175 411 -266 q 433 -145 433 -159 z "},"ķ":{"ha":609,"x_min":106,"x_max":604,"o":"m 567 -12 q 604 -8 586 -12 l 600 57 l 585 57 q 547 85 564 57 q 541 96 544 91 l 377 384 l 576 678 l 484 678 l 320 431 l 194 431 l 194 983 l 106 983 l 106 0 l 194 0 l 194 359 l 300 359 l 468 60 q 567 -12 517 -8 m 401 -145 q 355 -73 401 -87 q 338 -71 346 -71 q 281 -111 294 -71 q 277 -137 277 -125 q 321 -198 278 -186 q 267 -323 315 -251 l 298 -347 q 399 -175 380 -266 q 401 -145 401 -159 z "},"Ļ":{"ha":545,"x_min":104,"x_max":532,"o":"m 532 0 l 532 77 l 195 77 l 195 916 l 104 916 l 104 0 l 532 0 m 389 -145 q 343 -73 389 -87 q 326 -71 334 -71 q 269 -111 282 -71 q 264 -137 264 -125 q 309 -198 266 -186 q 255 -323 302 -251 l 286 -347 q 387 -175 368 -266 q 389 -145 389 -159 z "},"ļ":{"ha":328,"x_min":104,"x_max":317,"o":"m 233 -12 q 317 5 270 -12 l 298 72 q 251 61 275 61 q 193 140 194 64 l 193 983 l 104 983 l 104 130 q 189 -5 104 20 q 233 -12 210 -12 m 260 -145 q 214 -73 260 -87 q 197 -71 205 -71 q 140 -111 153 -71 q 136 -137 136 -125 q 180 -198 137 -186 q 126 -323 174 -251 l 157 -347 q 258 -175 239 -266 q 260 -145 260 -159 z "},"Ņ":{"ha":829,"x_min":106,"x_max":723,"o":"m 723 0 l 723 916 l 636 916 l 636 178 l 189 926 l 106 916 l 106 0 l 193 0 l 193 749 l 644 -11 l 723 0 m 477 -145 q 431 -73 477 -87 q 414 -71 422 -71 q 357 -111 370 -71 q 353 -137 353 -125 q 397 -198 354 -186 q 343 -323 391 -251 l 374 -347 q 475 -175 456 -266 q 477 -145 477 -159 z "},"ņ":{"ha":684,"x_min":106,"x_max":640,"o":"m 636 58 q 579 94 589 53 q 576 132 576 110 l 576 465 q 464 674 576 627 q 380 690 426 690 q 191 570 252 689 l 190 678 l 106 678 l 106 0 l 194 0 l 194 381 q 283 595 194 536 q 362 620 320 620 q 480 524 453 620 q 488 454 488 492 l 488 123 q 600 -12 491 -11 q 640 -8 620 -12 l 636 58 m 415 -145 q 369 -73 415 -87 q 351 -71 359 -71 q 294 -111 308 -71 q 290 -137 290 -125 q 335 -198 292 -186 q 281 -323 328 -251 l 312 -347 q 412 -175 393 -266 q 415 -145 415 -159 z "},"Ŗ":{"ha":692,"x_min":107,"x_max":667,"o":"m 199 0 l 199 395 l 321 395 q 358 396 346 395 l 522 61 q 625 -12 562 -11 q 667 -8 650 -12 l 662 60 l 654 60 q 601 98 618 62 l 445 411 q 625 593 590 454 q 635 669 635 629 q 321 920 632 918 q 107 916 209 920 l 107 0 l 199 0 m 316 841 q 524 749 484 841 q 538 658 538 711 q 368 475 538 496 q 317 472 343 472 l 199 472 l 199 838 q 316 841 273 841 m 419 -145 q 373 -73 419 -87 q 355 -71 363 -71 q 298 -111 312 -71 q 294 -137 294 -125 q 339 -198 296 -186 q 285 -323 332 -251 l 316 -347 q 416 -175 397 -266 q 419 -145 419 -159 z "},"ŗ":{"ha":407,"x_min":102,"x_max":408,"o":"m 193 0 l 193 388 q 266 581 193 521 q 346 609 302 609 q 397 601 372 609 l 408 685 q 365 690 388 690 q 195 576 252 690 q 190 564 193 570 l 187 680 l 104 680 l 104 0 l 193 0 m 237 -145 q 191 -73 237 -87 q 174 -71 182 -71 q 117 -111 130 -71 q 113 -137 113 -125 q 157 -198 114 -186 q 103 -323 151 -251 l 134 -347 q 235 -175 216 -266 q 237 -145 237 -159 z "},"Ş":{"ha":651,"x_min":57,"x_max":568,"o":"m 278 -267 q 427 -193 387 -267 q 442 -136 442 -165 q 369 -16 442 -61 q 353 -8 361 -12 q 538 115 483 11 q 567 240 567 171 q 445 454 567 377 q 311 524 425 468 q 183 628 209 574 q 170 690 170 656 q 252 830 170 788 q 335 850 292 850 q 487 770 434 850 q 496 753 492 761 l 568 791 q 399 922 524 897 q 340 928 370 928 q 140 848 217 928 q 76 686 76 781 q 193 480 76 555 q 327 412 213 468 q 458 304 430 361 q 473 233 473 271 q 385 84 473 125 q 305 68 349 68 q 98 137 201 69 l 57 69 q 285 -12 161 -5 q 373 -119 372 -56 q 311 -193 373 -175 q 267 -198 290 -198 q 224 -194 245 -198 l 221 -260 q 278 -267 247 -267 z "},"ş":{"ha":522,"x_min":46,"x_max":468,"o":"m 210 -267 q 359 -193 319 -267 q 374 -136 374 -165 q 297 -15 374 -57 q 288 -9 292 -11 q 441 87 395 4 q 464 179 464 129 q 359 345 464 282 q 290 380 338 358 q 176 457 201 425 q 156 517 156 484 q 224 612 156 586 q 271 620 247 620 q 396 560 353 620 q 403 548 400 553 l 468 583 q 298 689 418 678 q 273 690 286 690 q 107 623 168 690 q 68 515 68 576 q 171 351 68 414 q 239 316 193 339 q 354 240 330 273 q 376 176 376 212 q 305 69 376 98 q 251 60 279 60 q 81 117 165 61 l 46 57 q 212 -9 118 3 q 305 -119 297 -57 q 243 -193 305 -175 q 199 -198 222 -198 q 156 -194 178 -198 l 153 -260 q 210 -267 179 -267 z "},"Ţ":{"ha":559,"x_min":11,"x_max":547,"o":"m 237 -267 q 388 -190 349 -267 q 401 -133 401 -163 q 323 0 400 -58 l 323 838 l 547 838 l 547 917 l 11 917 l 11 838 l 232 838 l 232 0 q 334 -119 332 -54 q 277 -190 334 -170 q 225 -198 254 -198 q 183 -194 206 -198 l 180 -260 q 237 -267 217 -267 z "},"ţ":{"ha":437,"x_min":28,"x_max":414,"o":"m 216 -267 q 363 -197 323 -267 q 380 -137 380 -168 q 302 -12 378 -61 q 414 27 359 -7 l 388 84 q 315 61 346 61 q 225 190 229 72 l 225 608 l 388 608 l 388 678 l 225 678 l 225 861 l 137 861 l 137 678 l 28 678 l 28 608 l 137 608 l 137 174 q 213 7 138 50 q 309 -119 301 -52 q 235 -195 309 -183 q 203 -198 220 -198 q 160 -194 183 -198 l 157 -260 q 216 -267 183 -267 z "},"Ș":{"ha":627,"x_min":57,"x_max":568,"o":"m 567 240 q 445 454 567 377 q 311 524 425 468 q 183 628 209 574 q 170 690 170 656 q 252 830 170 788 q 335 850 292 850 q 487 770 434 850 q 496 753 492 761 l 568 791 q 399 922 524 897 q 340 928 370 928 q 140 848 217 928 q 76 686 76 781 q 193 480 76 555 q 327 412 213 468 q 458 304 430 361 q 473 233 473 271 q 385 84 473 125 q 305 68 349 68 q 98 137 201 69 l 57 69 q 301 -12 171 -12 q 518 84 444 -12 q 567 240 567 148 m 399 -145 q 353 -73 399 -87 q 335 -71 343 -71 q 278 -111 292 -71 q 274 -137 274 -125 q 319 -198 275 -186 q 264 -323 312 -251 l 296 -347 q 396 -175 377 -266 q 399 -145 399 -159 z "},"ș":{"ha":522,"x_min":46,"x_max":468,"o":"m 464 179 q 359 345 464 282 q 290 380 338 358 q 176 457 201 425 q 156 517 156 484 q 224 612 156 586 q 271 620 247 620 q 396 560 353 620 q 403 548 400 553 l 468 583 q 298 689 418 678 q 273 690 286 690 q 107 623 168 690 q 68 515 68 576 q 171 351 68 414 q 239 316 193 339 q 354 240 330 273 q 376 176 376 212 q 305 69 376 98 q 251 60 279 60 q 81 117 165 61 l 46 57 q 252 -12 138 -12 q 423 62 362 -12 q 464 179 464 111 m 357 -145 q 311 -73 357 -87 q 293 -71 301 -71 q 236 -111 250 -71 q 232 -137 232 -125 q 277 -198 233 -186 q 222 -323 270 -251 l 254 -347 q 354 -175 335 -266 q 357 -145 357 -159 z "},"Ț":{"ha":559,"x_min":11,"x_max":547,"o":"m 11 917 l 11 838 l 232 838 l 232 0 l 323 0 l 323 838 l 547 838 l 547 917 l 11 917 m 343 -145 q 297 -73 343 -87 q 279 -71 288 -71 q 222 -111 236 -71 q 218 -137 218 -125 q 263 -198 220 -186 q 209 -323 256 -251 l 240 -347 q 340 -175 321 -266 q 343 -145 343 -159 z "},"ț":{"ha":429,"x_min":28,"x_max":414,"o":"m 414 27 l 388 84 q 315 61 346 61 q 225 190 229 72 l 225 608 l 388 608 l 388 678 l 225 678 l 225 861 l 137 861 l 137 678 l 28 678 l 28 608 l 137 608 l 137 174 q 235 -3 137 31 q 290 -12 260 -12 q 414 27 353 -11 m 321 -145 q 275 -73 321 -87 q 258 -71 266 -71 q 201 -111 214 -71 q 197 -137 197 -125 q 241 -198 198 -186 q 187 -323 235 -251 l 218 -347 q 319 -175 300 -266 q 321 -145 321 -159 z "},"ˉ":{"ha":491,"x_min":73,"x_max":418,"o":"m 73 910 l 73 838 l 418 838 l 418 910 l 73 910 z "},"₺":{"ha":784,"x_min":33,"x_max":724,"o":"m 724 433 l 631 433 q 400 79 620 106 q 357 76 378 76 q 240 77 285 76 l 240 334 l 471 419 l 471 491 l 240 406 l 240 507 l 471 591 l 471 663 l 240 579 l 240 916 l 149 916 l 149 545 l 33 503 l 33 433 l 149 475 l 149 373 l 33 330 l 33 258 l 149 301 l 149 0 q 357 -4 274 -4 q 703 269 632 -5 q 724 433 722 343 z "},"₽":{"ha":701,"x_min":31,"x_max":647,"o":"m 331 841 q 547 704 521 841 q 551 650 551 678 q 403 464 551 496 q 323 456 366 456 l 214 456 l 214 838 q 331 841 288 841 m 471 224 l 471 293 l 214 293 l 214 387 l 347 387 q 604 510 525 387 q 647 665 647 578 q 452 909 647 864 q 338 920 400 920 q 123 916 225 920 l 123 456 l 31 456 l 31 387 l 123 387 l 123 293 l 31 293 l 31 224 l 123 224 l 123 0 l 214 0 l 214 224 l 471 224 z "},"ℓ":{"ha":467,"x_min":15,"x_max":461,"o":"m 431 837 q 338 1019 431 982 q 279 1029 311 1029 q 127 838 144 1029 q 125 788 125 815 l 126 338 q 15 233 71 277 l 57 175 q 127 235 83 195 l 127 174 q 216 5 129 52 q 292 -12 251 -12 q 461 72 391 -11 l 418 122 q 305 64 361 64 q 218 148 233 64 q 216 186 216 165 l 216 328 q 420 731 377 524 q 431 837 431 788 m 213 795 q 283 952 214 951 q 353 829 351 949 q 235 483 353 674 q 214 450 225 465 l 213 795 z "},"Ω":{"ha":865,"x_min":66,"x_max":799,"o":"m 354 0 l 354 79 q 190 313 232 141 q 172 463 172 385 q 277 783 172 680 q 435 846 342 846 q 661 673 595 846 q 693 463 693 582 q 587 140 693 259 q 509 77 551 100 l 511 0 l 799 0 l 799 77 l 612 77 q 773 336 731 168 q 791 473 791 404 q 661 845 791 724 q 437 928 571 928 q 151 766 251 928 q 75 471 75 643 q 190 133 75 269 q 247 77 217 102 l 66 77 l 66 0 l 354 0 z "},"∆":{"ha":804,"x_min":14,"x_max":789,"o":"m 789 0 l 460 920 l 346 920 l 14 0 l 789 0 m 666 75 l 134 75 l 400 838 l 666 75 z "},"∕":{"ha":735,"x_min":35,"x_max":685,"o":"m 122 -15 l 35 -14 l 601 997 l 685 997 l 122 -15 z "},"∙":{"ha":464,"x_min":104,"x_max":358,"o":"m 358 399 q 298 511 358 475 q 232 530 267 530 q 122 467 157 530 q 104 399 104 435 q 167 286 104 323 q 232 269 197 269 q 342 332 307 269 q 358 399 358 363 z "},"ų":{"ha":697,"x_min":104,"x_max":680,"o":"m 680 -256 l 675 -194 q 629 -199 654 -199 q 540 -148 556 -199 q 537 -127 537 -137 q 659 -11 537 -52 q 670 -7 665 -8 l 666 58 q 646 57 658 57 q 586 106 595 57 q 583 151 583 123 l 583 678 l 494 678 l 494 294 q 406 83 494 142 q 324 58 368 58 q 202 153 229 58 q 193 222 193 184 l 193 678 l 104 678 l 104 213 q 237 -1 104 38 q 309 -11 271 -11 q 492 96 426 -11 q 503 115 498 106 q 578 -7 511 16 q 465 -113 491 -43 q 458 -151 458 -133 q 528 -251 458 -220 q 608 -266 563 -266 q 680 -256 637 -266 z "},"ů":{"ha":690,"x_min":102,"x_max":669,"o":"m 621 -12 q 669 -8 643 -12 l 665 58 q 644 57 655 57 q 583 110 593 57 q 581 151 581 127 l 581 678 l 492 678 l 492 294 q 404 83 492 142 q 323 58 366 58 q 198 159 224 58 q 191 222 191 189 l 191 678 l 102 678 l 102 213 q 229 0 102 42 q 307 -11 264 -11 q 491 96 425 -11 q 502 117 496 107 q 581 -8 509 9 q 621 -12 600 -12 m 486 882 q 408 1009 486 977 q 353 1020 381 1020 q 236 959 275 1020 q 216 880 216 924 q 293 753 216 785 q 349 742 320 742 q 464 802 425 742 q 486 882 486 837 m 277 880 q 327 960 277 944 q 350 964 339 964 q 416 920 397 964 q 425 880 425 902 q 374 802 425 818 q 351 798 362 798 q 285 841 305 798 q 277 880 277 860 z "},"v":{"ha":579,"x_min":4,"x_max":575,"o":"m 326 0 l 575 678 l 486 678 l 290 129 l 96 678 l 4 678 l 247 0 l 326 0 z "},"ඃ":{"ha":320,"x_min":41,"x_max":281,"o":"m 104 202 q 138 152 104 167 q 160 146 149 146 q 212 182 197 146 q 216 202 216 193 q 180 254 216 239 q 160 258 170 258 q 110 225 126 258 q 104 202 104 213 m 41 202 q 99 305 41 270 q 160 321 127 321 q 264 263 229 321 q 281 202 281 235 q 221 99 281 134 q 160 83 193 83 q 57 141 92 83 q 41 202 41 170 m 104 555 q 138 505 104 519 q 160 499 149 499 q 212 534 197 499 q 216 555 216 545 q 183 605 216 589 q 160 610 171 610 q 110 576 126 610 q 104 555 104 566 m 41 555 q 99 658 41 623 q 160 674 127 674 q 264 616 229 674 q 281 555 281 587 q 224 452 281 487 q 160 434 194 434 q 57 494 92 434 q 41 555 41 522 z "},"w":{"ha":933,"x_min":5,"x_max":926,"o":"m 286 0 l 467 548 l 637 0 l 704 0 l 926 678 l 845 678 l 677 133 l 511 671 l 427 667 l 259 134 l 95 678 l 5 678 l 221 0 l 286 0 z "},"x":{"ha":575,"x_min":8,"x_max":564,"o":"m 560 57 l 553 57 q 503 91 526 60 l 334 345 l 557 678 l 467 678 l 292 410 l 122 678 l 19 678 l 240 343 l 8 0 l 100 0 l 283 277 l 423 60 q 526 -12 475 -9 q 564 -8 545 -12 l 560 57 z "},"y":{"ha":556,"x_min":-72,"x_max":562,"o":"m 473 678 l 282 122 l 90 678 l -4 678 l 239 8 q 133 -187 180 -146 q 60 -214 100 -214 q -42 -187 15 -213 l -72 -254 q 62 -289 1 -289 q 266 -119 189 -289 q 293 -52 279 -88 l 562 678 l 473 678 z "},"ý":{"ha":556,"x_min":-72,"x_max":562,"o":"m 473 678 l 282 122 l 90 678 l -4 678 l 239 8 q 133 -187 180 -146 q 60 -214 100 -214 q -42 -187 15 -213 l -72 -254 q 62 -289 1 -289 q 266 -119 189 -289 q 293 -52 279 -88 l 562 678 l 473 678 m 452 916 l 399 987 l 194 833 l 233 776 l 452 916 z "},"ÿ":{"ha":556,"x_min":-72,"x_max":562,"o":"m 473 678 l 282 122 l 90 678 l -4 678 l 239 8 q 133 -187 180 -146 q 60 -214 100 -214 q -42 -187 15 -213 l -72 -254 q 62 -289 1 -289 q 266 -119 189 -289 q 293 -52 279 -88 l 562 678 l 473 678 m 216 875 q 175 935 216 924 q 159 937 167 937 q 104 895 115 937 q 102 875 102 884 q 141 812 102 825 q 159 810 151 810 q 213 852 201 810 q 216 875 216 864 m 457 875 q 416 935 457 924 q 400 937 408 937 q 346 895 357 937 q 343 875 343 884 q 382 812 343 825 q 399 810 391 810 q 454 854 444 810 q 457 875 457 865 z "},"¥":{"ha":719,"x_min":28,"x_max":670,"o":"m 598 183 l 598 252 l 391 252 l 391 345 l 598 345 l 598 414 l 425 414 l 670 916 l 574 916 l 426 601 q 349 425 389 525 q 273 602 316 509 l 127 916 l 28 916 l 267 414 l 94 414 l 94 345 l 300 345 l 300 252 l 94 252 l 94 183 l 300 183 l 300 0 l 391 0 l 391 183 l 598 183 z "},"z":{"ha":549,"x_min":43,"x_max":503,"o":"m 153 69 l 502 628 l 502 678 l 56 678 l 56 609 l 393 609 l 43 49 l 43 0 l 503 0 l 503 69 l 153 69 z "},"ź":{"ha":549,"x_min":43,"x_max":503,"o":"m 153 69 l 502 628 l 502 678 l 56 678 l 56 609 l 393 609 l 43 49 l 43 0 l 503 0 l 503 69 l 153 69 m 467 916 l 414 987 l 209 833 l 248 776 l 467 916 z "},"ž":{"ha":549,"x_min":43,"x_max":503,"o":"m 153 69 l 502 628 l 502 678 l 56 678 l 56 609 l 393 609 l 43 49 l 43 0 l 503 0 l 503 69 l 153 69 m 292 772 l 476 925 l 437 974 l 297 867 l 153 977 l 111 924 l 292 772 z "},"ż":{"ha":549,"x_min":43,"x_max":503,"o":"m 153 69 l 502 628 l 502 678 l 56 678 l 56 609 l 393 609 l 43 49 l 43 0 l 503 0 l 503 69 l 153 69 m 326 842 q 328 907 354 878 q 324 911 326 910 q 267 913 297 941 q 262 907 264 910 q 264 838 236 869 q 319 836 292 810 q 326 842 323 840 z "},"‍":{"ha":0,"x_min":-243,"x_max":241,"o":"m -38 9 l 35 9 l 35 773 l 191 663 l 235 723 l 65 841 l 241 966 l 198 1025 l 0 887 l -198 1025 l -243 967 l -64 842 l -235 723 l -189 663 l -38 769 l -38 9 z "},"‌":{"ha":0,"x_min":-41,"x_max":35,"o":"m -41 1 l -41 998 l 35 998 l 35 1 l -41 1 z "}}}
